<?xml version="1.0" standalone="no"?>
<!DOCTYPE svg PUBLIC "-//W3C//DTD SVG 1.1//EN" "http://www.w3.org/Graphics/SVG/1.1/DTD/svg11.dtd" >
<svg>
<metadata>
Created by FontForge 20110222 at Tue Jan 13 19:03:35 2015
 By deploy user
Copyright (c) 1997 Adobe Systems Incorporated.  All Rights Reserved.Wendy is a trademark of LetterPerfect Design.
</metadata>
<defs>
<font id="WendyLP-Medium" horiz-adv-x="408" >
  <font-face 
    font-family="Wendy LP Medium"
    font-weight="500"
    font-stretch="normal"
    units-per-em="1000"
    panose-1="2 11 6 0 0 0 0 0 0 0"
    ascent="652"
    descent="-348"
    x-height="240"
    cap-height="613"
    bbox="-146 -348 1186 827"
    underline-thickness="30"
    underline-position="-70"
    unicode-range="U+0020-FB02"
  />
<missing-glyph horiz-adv-x="240" 
 />
    <glyph glyph-name=".notdef" horiz-adv-x="240" 
 />
    <glyph glyph-name=".null" horiz-adv-x="0" 
 />
    <glyph glyph-name="nonmarkingreturn" horiz-adv-x="333" 
 />
    <glyph glyph-name="space" unicode=" " horiz-adv-x="240" 
 />
    <glyph glyph-name="space" unicode="&#xa0;" horiz-adv-x="240" 
 />
    <glyph glyph-name="exclam" unicode="!" horiz-adv-x="234" 
d="M135 557q0 -14 -3.5 -41t-3.5 -31q-4 -49 -8 -149q-1 -26 -1 -76q0 -118 10 -128q5 -5 5 -8q0 -7 -7 -12t-14 -5q-8 0 -13.5 5t-9 15t-5.5 19.5t-2.5 23.5t-0.5 22.5v21v13.5q0 56 3 110q9 211 9 212q2 28 25 28q16 0 16 -20zM156 43q0 -16 -12.5 -33.5t-27.5 -17.5
q-13 0 -23 9t-10 21q0 13 16.5 31.5t28.5 18.5q11 0 19.5 -9t8.5 -20z" />
    <glyph glyph-name="quotedbl" unicode="&#x22;" horiz-adv-x="168" 
d="M144 543q0 -34 -13 -103q-5 -25 -19 -25t-14 19q0 52 10 109q3 18 21 18q15 0 15 -18zM68 544q0 -130 -25 -130q-15 0 -15 22q0 61 4 106q1 8 7.5 14t13.5 6q15 0 15 -18z" />
    <glyph glyph-name="numbersign" unicode="#" horiz-adv-x="601" 
d="M563 307q0 -16 -17 -21q-35 -8 -127 -8q0 -10 -0.5 -29t-1 -35t-1.5 -30q11 1 35 1q102 0 102 -27q0 -8 -6 -13t-14 -5q-2 0 -5 0.5t-4 0.5q-36 10 -111 10q-6 -74 -21 -113q-6 -16 -24 -16t-18 16q0 4 4 12q16 28 23 100l-127 -6l-1 -14l-1.5 -21t-2.5 -22t-5 -23.5
t-7 -18.5t-10 -15t-14 -5q-7 0 -12 4.5t-5 11.5q0 5 3 11q13 28 19 91q-112 0 -140 8q-16 5 -16 22q0 19 19 19q5 0 13 -3q35 -13 111 -13h16q1 18 2.5 54.5t2.5 54.5q-11 1 -33 1q-55 0 -92 -10q-1 0 -4 -0.5t-4 -0.5q-20 0 -20 18q0 25 68 27.5t88 -2.5q4 68 19 110
q6 16 24 16t18 -16q0 -5 -4 -13q-12 -23 -22 -98q125 -6 127 -6q5 130 40 130q7 0 12 -4.5t5 -11.5q0 -1 -3 -10q-15 -42 -19 -105q70 0 110 14q6 3 12 3q19 0 19 -20zM384 277q-22 1 -64.5 3.5t-62.5 3.5l-6 -106q63 1 128 6q3 31 5 93z" />
    <glyph glyph-name="dollar" unicode="$" horiz-adv-x="325" 
d="M283 280q0 -38 -107 -51q1 -38 1 -114q0 -8 -6.5 -13.5t-15.5 -5.5q-10 0 -16 6.5t-6 16.5q0 3 1.5 9t1.5 9q0 15 0.5 45.5t0.5 45.5q-108 4 -108 46q0 10 7 19t17 9t16.5 -8t6.5 -18q0 -14 66 -14q3 23 1 52v11q-4 1 -19 4.5t-25 6.5t-23 8.5t-19.5 13t-6.5 17.5
q0 25 35 46t66 27v32q0 39 14 45q4 2 9 2q17 0 17 -20q0 -9 -1 -29t-1 -29q23 -1 54 -15.5t31 -34.5q0 -9 -6 -16t-15 -7t-24.5 17.5t-40.5 19.5q-2 -10 -4 -62q33 -10 66 -29t33 -42zM149 413q-14 -2 -36 -12t-22 -20q0 -6 56 -20q2 36 2 52zM243 282q0 7 -25 17.5
t-37 12.5q-1 -8 -1 -25t-1 -26q12 0 38 6.5t26 14.5z" />
    <glyph glyph-name="percent" unicode="%" horiz-adv-x="520" 
d="M465 143q0 -49 -40.5 -90.5t-89.5 -41.5q-52 0 -52 53q0 46 37 89.5t82 43.5q27 0 45 -14t18 -40zM358 408q0 -37 -47.5 -112.5t-95 -151.5t-47.5 -115q0 -14 15 -19.5t15 -15.5t-8 -17t-18 -7q-20 0 -29.5 17.5t-9.5 39.5q0 41 29 97.5t64 102.5t64 96t29 80
q0 14 -6 23.5t-13.5 14t-21 6.5t-22.5 2t-24.5 -0.5t-20.5 -0.5l-27 3q-9 -45 -42.5 -88.5t-74.5 -43.5q-17 0 -26.5 12.5t-9.5 30.5q0 43 23 82.5t60 67.5q15 12 29 12q39 0 47 -34q1 -4 6.5 -6t14 -2h16t16 0.5t11.5 0.5q48 0 76 -15.5t28 -59.5zM145 454q0 16 -13 16
q-18 0 -40 -39.5t-22 -59.5q0 -11 7 -11q22 0 45 35t23 59zM422 129q0 31 -41 31q-18 0 -37 -33t-19 -54q0 -28 13 -28q35 0 59.5 24.5t24.5 59.5z" />
    <glyph glyph-name="ampersand" unicode="&#x26;" horiz-adv-x="639" 
d="M286 253l-9 -6q15 -44 103 -136.5t121 -92.5q11 0 42 20.5t31 29.5q0 10 -38 13.5t-38 18.5q0 16 31 16q96 0 96 -48q0 -36 -87 -76q3 -2 14.5 -6t17.5 -9.5t6 -14.5q0 -8 -7 -13.5t-16 -5.5q-12 0 -36 17l-24 18q-3 0 -11 -2q-92 -21 -171 -21q-180 0 -249 88
q-22 29 -22 58q0 38 30 70.5t65.5 50t65.5 34t30 24.5t-1 23t-1 22q0 46 10 90.5t30 86t58 67t88 25.5q40 0 66 -19.5t26 -57.5q0 -36 -22.5 -76.5t-59 -76t-71 -63t-68.5 -48.5zM415 556q-35 0 -62.5 -15.5t-43 -39t-25.5 -55.5t-13.5 -61.5t-3.5 -61.5q0 -22 1 -33
q58 31 128 101.5t70 121.5q0 43 -51 43zM243 232l-10 -3q-149 -66 -149 -129q0 -10 5 -22q23 -48 88 -67.5t135 -19.5q80 0 137 16q-127 94 -203 220z" />
    <glyph glyph-name="quotesingle" unicode="'" horiz-adv-x="115" 
d="M74 543q0 -34 -13 -103q-5 -25 -19 -25t-14 20q0 58 11 108q4 18 20 18q15 0 15 -18z" />
    <glyph glyph-name="parenleft" unicode="(" horiz-adv-x="341" 
d="M353 644q0 -10 -10 -15q-129 -75 -209 -181.5t-80 -240.5q0 -102 47.5 -190t134.5 -133q19 -10 87 -30q16 -6 16 -18q0 -16 -19 -16q-28 0 -87 26q-100 47 -156.5 146t-56.5 214q0 118 61.5 227.5t161.5 180.5q63 43 94 43q16 0 16 -13z" />
    <glyph glyph-name="parenright" unicode=")" horiz-adv-x="341" 
d="M268 264q0 -152 -87 -268.5t-233 -184.5q-2 -2 -5 -2q-5 0 -10 5t-5 10q0 10 10 15t29 15t33.5 18t27.5 17q96 65 151 162.5t55 210.5q0 102 -48.5 190.5t-136.5 132.5q-19 10 -77 27q-17 6 -17 19q0 16 20 16t83 -26q99 -47 154.5 -145t55.5 -212z" />
    <glyph glyph-name="asterisk" unicode="*" horiz-adv-x="177" 
d="M149 492q0 -4 -2 -7t-5 -5.5t-8 -5.5t-8 -4t-8.5 -3.5t-6.5 -2.5q30 -18 30 -31q0 -14 -15 -14q-9 0 -35 20q-3 -43 -19 -43q-13 0 -14.5 18t1.5 28q-26 -11 -33 -11q-16 0 -16 16q0 7 5.5 11.5t18.5 9.5l12 4q-29 23 -29 33q0 6 4.5 10.5t10.5 4.5t34 -21q3 45 22 45
q14 0 14 -21q0 -10 -4 -30q29 13 35 13q16 0 16 -14z" />
    <glyph glyph-name="plus" unicode="+" 
d="M332 182h-120v-132h-36v132h-120v33h120v132h36v-132h120v-33z" />
    <glyph glyph-name="comma" unicode="," horiz-adv-x="163" 
d="M123 115q0 -15 -20.5 -76t-30.5 -84q-7 -18 -20 -18q-14 0 -14 17q0 6 3 11q9 25 49 154q6 13 16 13q17 0 17 -17z" />
    <glyph glyph-name="hyphen" unicode="-" horiz-adv-x="295" 
d="M254 159q0 -9 -6.5 -15.5t-15.5 -6.5q-6 0 -19.5 3t-20.5 3q-18 0 -53 -4t-52 -4q-38 0 -38 20q0 11 7 20.5t17 9.5q7 0 13 -7t21 -7q19 0 56 3.5t55 3.5q36 0 36 -19z" />
    <glyph glyph-name="hyphen" unicode="&#xad;" horiz-adv-x="295" 
d="M254 159q0 -9 -6.5 -15.5t-15.5 -6.5q-6 0 -19.5 3t-20.5 3q-18 0 -53 -4t-52 -4q-38 0 -38 20q0 11 7 20.5t17 9.5q7 0 13 -7t21 -7q19 0 56 3.5t55 3.5q36 0 36 -19z" />
    <glyph glyph-name="period" unicode="." horiz-adv-x="163" 
d="M126 32q0 -17 -21 -33.5t-39 -16.5q-12 0 -20 7.5t-8 19.5q0 13 13 30t24 17q5 0 9 -4q8 3 17 3q10 0 17.5 -6.5t7.5 -16.5z" />
    <glyph glyph-name="slash" unicode="/" horiz-adv-x="394" 
d="M466 587q0 -10 -26.5 -46.5t-43.5 -56.5q-19 -24 -94.5 -117.5t-107.5 -135t-84 -115.5t-90 -138q-2 -3 -9 -17t-12 -22t-13.5 -15.5t-16.5 -7.5q-15 0 -15 15q0 6 4 14t12 19.5t9 12.5q103 161 242 337q60 78 118 148q50 62 65 85q2 2 10.5 19t17 26.5t17.5 9.5
q6 0 11.5 -4.5t5.5 -10.5z" />
    <glyph glyph-name="zero" unicode="0" horiz-adv-x="527" 
d="M474 256q0 -109 -59.5 -178.5t-166.5 -86.5q-14 -2 -23 -2q-85 0 -147 73t-62 159q0 115 74 206t187 91q69 0 115 -40.5t64 -97t18 -124.5zM438 252q0 56 -16.5 105.5t-57 85.5t-97.5 36q-92 0 -154.5 -80t-62.5 -174q0 -73 56 -137t128 -64q14 0 21 2q183 37 183 226z
" />
    <glyph glyph-name="one" unicode="1" horiz-adv-x="192" 
d="M139 509q0 -18 -2 -39t-5.5 -47.5t-4.5 -38.5q-16 -151 -16 -255q0 -92 12 -109q11 -15 11 -21q0 -9 -6.5 -15.5t-14.5 -6.5q-41 0 -41 140q0 78 21 349q-2 -3 -9 -15t-14 -19.5t-14 -7.5q-9 0 -14.5 7t-5.5 16q0 12 35 51t47 39q21 0 21 -28z" />
    <glyph glyph-name="two" unicode="2" horiz-adv-x="549" 
d="M533 28q0 -16 -24 -27t-43 -11q-16 0 -44 6q-124 30 -189 30q-84 0 -144 -30q-34 -17 -54 -17q-21 0 -21 20q0 18 26 29.5t61 19.5t46 15q41 27 81.5 58t88 75t77 92t29.5 89q0 51 -38.5 82t-90.5 31q-61 0 -134.5 -32t-96.5 -80q-10 -18 -23 -18q-9 0 -15.5 8t-6.5 17
t7 18q38 52 123 90t154 38q66 0 115.5 -41t49.5 -106q0 -36 -20 -76t-45.5 -71.5t-68 -70t-67.5 -58t-64 -48.5q11 1 33 1q64 0 220 -32q10 -2 17 -2q12 0 28.5 7t20.5 7q12 0 12 -13z" />
    <glyph glyph-name="three" unicode="3" horiz-adv-x="551" 
d="M505 193q0 -62 -55.5 -118t-128.5 -86.5t-133 -30.5q-45 0 -105 23.5t-60 59.5q0 21 19.5 31.5t42.5 10.5q60 0 60 -24q0 -14 -17 -14q-4 0 -13 1.5t-13 1.5q-22 0 -29 -13q1 -19 50.5 -31.5t79.5 -12.5q48 0 107.5 25.5t104.5 72t45 96.5q0 39 -26.5 62t-67.5 27
q-117 -57 -158 -57q-16 0 -29 9.5t-13 25.5q0 23 26.5 39t61.5 20t69 6.5t50 -1.5q68 50 68 98q0 41 -44 60.5t-92 19.5q-56 0 -127 -21t-117 -52q-14 -11 -14 -15q0 -5 10.5 -12.5t10.5 -14.5q0 -14 -15 -14q-18 0 -39.5 12.5t-21.5 28.5q0 11 12 23q38 37 141 69.5
t163 32.5q37 0 75 -10t69.5 -36.5t31.5 -65.5q0 -59 -67 -114q39 -15 63.5 -44t24.5 -68zM308 284q-27 -1 -59.5 -9t-39.5 -24q1 0 3.5 -0.5t3.5 -0.5q27 0 92 34z" />
    <glyph glyph-name="four" unicode="4" horiz-adv-x="509" 
d="M436 222q20 0 20 -22q0 -20 -39 -24t-39 -11q-3 -41 -3 -205q0 -10 -7 -16.5t-18 -6.5q-13 0 -20.5 9.5t-7.5 22.5q0 9 5.5 16.5t5.5 13.5q2 20 2 164q-118 -19 -170 -19q-150 0 -150 82q0 15 5 33q18 48 152.5 168.5t180.5 120.5q17 0 26.5 -11t9.5 -28q0 -27 -11 -305
q30 5 38 11q10 7 20 7zM344 503h-1q-68 -31 -177.5 -125t-109.5 -147q0 -31 38.5 -42.5t80.5 -11.5q65 0 160 20q10 216 9 269v37z" />
    <glyph glyph-name="five" unicode="5" horiz-adv-x="530" 
d="M479 187q0 -55 -40.5 -104t-97.5 -75.5t-111 -26.5q-91 0 -147 49q-8 6 -8 16t8.5 16.5t18.5 6.5t29 -13.5t47.5 -27t62.5 -13.5q69 0 133 50t64 117q0 61 -54.5 96.5t-118.5 35.5q-77 0 -154 -70q-6 -6 -25.5 -46t-39.5 -40t-20 22q0 19 8.5 32.5t22 26.5t19.5 23
q48 81 48 192q0 11 -2.5 31.5t-2.5 30.5q0 28 23 28q6 0 10 -3q34 -13 120 -13q21 0 151 13h6q17 0 17 -17t-19 -24q-28 -9 -181 -9q-70 0 -85 4v-32q0 -88 -26 -157q63 41 135 41q77 0 143 -43.5t66 -116.5z" />
    <glyph glyph-name="six" unicode="6" horiz-adv-x="540" 
d="M494 149q0 -54 -40 -94t-92.5 -57.5t-104.5 -17.5q-95 0 -173 50t-78 139q0 113 61.5 213t163.5 143q39 18 84 18q34 0 75 -17.5t41 -47.5q0 -19 -21 -19q-13 0 -23 11t-29.5 22t-54.5 11q-89 0 -157 -74t-88 -167q90 39 181 39q39 0 79.5 -7.5t82 -23.5t67.5 -47.5
t26 -73.5zM451 145q0 42 -38.5 71.5t-83 40.5t-85.5 11q-45 0 -97.5 -11.5t-85.5 -32.5q-15 -9 -15 -32q0 -87 60.5 -134t149.5 -47q40 0 83.5 14t77.5 46t34 74z" />
    <glyph glyph-name="seven" unicode="7" horiz-adv-x="510" 
d="M483 474q0 -8 -8 -18q-134 -166 -198 -373q-4 -13 -9.5 -36t-7.5 -30q-7 -23 -25 -23q-9 0 -16.5 6.5t-7.5 15.5q0 6 1 8q60 186 204 425q-152 -28 -264 -28q-19 0 -41 2t-53.5 7t-52 17.5t-20.5 30.5q0 9 8 15.5t17 6.5q11 0 21 -10q38 -35 138 -35q98 0 284 36q4 1 9 1
q21 0 21 -18z" />
    <glyph glyph-name="eight" unicode="8" horiz-adv-x="539" 
d="M533 423q0 -19 -37.5 -45t-108.5 -62l-71 -35q159 -74 159 -153q0 -36 -28 -65.5t-69 -45.5t-81.5 -24.5t-73.5 -8.5q-24 0 -55.5 6t-64.5 17.5t-55.5 32.5t-22.5 48q0 73 204 184q-3 1 -31 9.5t-42 13.5l-42 15t-44.5 20t-35 22.5t-27.5 27t-9 30.5q0 38 47 83
q41 39 110 57t137 18q69 0 138.5 -20.5t90.5 -67.5q0 -1 0.5 -3t0.5 -3q0 -11 -11 -11q-6 0 -14 6q-83 67 -204 67q-67 0 -142 -24t-103 -70q-11 -16 -11 -29q0 -8 6.5 -16.5t19 -17t26.5 -16t33.5 -15.5t35 -14t36 -12.5t32 -10t27.5 -8.5t17 -5q1 -1 4 -1q15 0 110.5 56.5
t102.5 69.5q-2 2 -33 2q-29 0 -29 20q0 23 43 23q23 0 44 -12t21 -33zM434 124q0 41 -53 77.5t-107 54.5q-32 -16 -74.5 -42.5t-86.5 -64t-44 -61.5q0 -7 5 -14q50 -58 161 -58q34 0 77.5 10t82.5 36t39 62z" />
    <glyph glyph-name="nine" unicode="9" horiz-adv-x="527" 
d="M493 352q0 -68 -31.5 -150.5t-93.5 -147t-134 -64.5q-22 0 -52.5 14.5t-30.5 33.5q0 10 9 16.5t20 6.5q17 0 23 -6t10 -23q16 -8 33 -8q56 0 108.5 66t75.5 132q21 61 20 115q-53 -60 -126 -96t-149 -36q-64 0 -112 30.5t-48 90.5q0 62 46 123.5t113.5 99t128.5 37.5
q87 0 138.5 -72t51.5 -162zM448 405q0 53 -46.5 100.5t-99.5 47.5q-48 0 -105.5 -32t-98 -83.5t-40.5 -100.5q0 -51 35.5 -75t89.5 -24q72 0 137 34.5t101 95.5q11 17 26 25q1 4 1 12z" />
    <glyph glyph-name="colon" unicode=":" horiz-adv-x="193" 
d="M150 232q0 -16 -22 -32.5t-39 -16.5q-9 0 -15 6t-6 15q0 16 17 35.5t33 19.5q11 0 21.5 -8t10.5 -19zM153 36q0 -16 -22.5 -30t-38.5 -14q-11 0 -19 7.5t-8 17.5q0 15 16 29.5t31 14.5q11 0 26 -7.5t15 -17.5z" />
    <glyph glyph-name="semicolon" unicode=";" horiz-adv-x="193" 
d="M158 216q0 -17 -21.5 -30.5t-40.5 -13.5q-24 0 -24 22q0 19 18.5 33t37.5 14q12 0 21 -7t9 -18zM139 82q0 -20 -56 -143q-6 -16 -18 -16q-15 0 -15 18q0 2 12.5 34.5t27.5 69t17 41.5q5 12 16 12q16 0 16 -16z" />
    <glyph glyph-name="less" unicode="&#x3c;" 
d="M332 51l-277 126v40l277 125v-36l-240 -109l240 -110v-36z" />
    <glyph glyph-name="equal" unicode="=" 
d="M358 231h-314v33h314v-33zM358 129h-314v33h314v-33z" />
    <glyph glyph-name="greater" unicode="&#x3e;" 
d="M360 177l-277 -126v36l241 110l-241 109v36l277 -125v-40z" />
    <glyph glyph-name="question" unicode="?" horiz-adv-x="438" 
d="M459 448q0 -39 -46.5 -90t-102 -90.5t-102 -80t-46.5 -60.5q0 -5 15 -5q14 0 41 8t40 8q16 0 16 -17q0 -10 -6.5 -19t-16.5 -9q-3 0 -11 1.5t-11 1.5q-9 0 -28 -4.5t-29 -4.5q-51 0 -51 36q0 28 46.5 70t101.5 80t101.5 85.5t46.5 84.5q0 24 -21 38.5t-43.5 18.5t-47.5 4
q-55 0 -121.5 -19t-113.5 -48q-20 -11 -20 -25q0 -24 36 -24q6 0 18 2t19 2q21 0 21 -12t-23.5 -16.5t-42.5 -4.5q-25 0 -47.5 14t-22.5 38q0 38 64 68t131.5 42.5t107.5 12.5q24 0 47 -3.5t47 -12t39 -27t15 -43.5zM213 28q0 -18 -13.5 -30t-31.5 -12q-11 0 -22.5 7.5
t-11.5 17.5q0 24 17 29q4 1 19.5 7t22.5 6q20 0 20 -25z" />
    <glyph glyph-name="at" unicode="@" horiz-adv-x="684" 
d="M644 307q0 -136 -110.5 -232t-248.5 -96q-112 0 -196 75.5t-84 186.5q0 83 52 167q-6 6 -6 12q0 10 13 23q48 51 134 82t162 31q114 0 199 -69t85 -180zM609 299q0 63 -33.5 114.5t-91.5 80.5v-2q1 -8 -4 -13t-13 -5q-5 0 -23 10t-47.5 20t-61.5 10q-114 0 -204.5 -76.5
t-90.5 -187.5q0 -106 79 -169.5t187 -63.5q115 0 209 84t94 198zM538 271q0 -2 -2 -6q-14 -47 -50.5 -83.5t-81.5 -36.5q-28 0 -47.5 18t-27.5 46q-47 -69 -108 -69q-34 0 -57 23.5t-23 57.5q0 57 63 122.5t120 65.5q17 0 35.5 -10t18.5 -26q0 -13 -9 -21q7 -6 7 -19
q0 -9 -7.5 -35.5t-7.5 -43.5q0 -76 50 -76q22 0 41.5 16.5t30.5 36.5t23 36.5t21 16.5q11 0 11 -13zM348 355q-17 17 -35 17q-7 0 -13 -3q-43 -19 -82.5 -61.5t-39.5 -83.5q0 -22 14 -35t36 -13q33 0 62.5 33.5t34.5 68.5q0 4 0.5 15t1 19t2.5 17.5t7 16t12 9.5z" />
    <glyph glyph-name="A" unicode="A" horiz-adv-x="767" 
d="M689 169h5q16 0 16 -16q0 -13 -14 -21q-1 0 -33.5 -3.5t-69.5 -7t-43 -4.5q69 -66 144 -83l21 -3t21 -4q18 -5 18 -19q0 -16 -16 -16q-65 0 -115 27t-110 81q-14 13 -26 13q-14 0 -41 -2t-35 -2q-75 -3 -149 -3h-40q-27 -31 -61 -68t-85 -83.5t-69 -46.5q-11 0 -20.5 6.5
t-9.5 17.5q0 13 6 17.5t16.5 4.5t14.5 2q26 12 77 60.5t88 89.5h-21q-19 0 -44 1.5t-61 5.5t-60 14t-24 24q0 7 5.5 12.5t13.5 5.5q5 0 11 -3q65 -25 213 -25q89 105 181 248q-5 50 -5 89q0 20 4.5 49.5t13 63t25.5 57t38 23.5q40 0 40 -70q0 -78 -77 -209q28 -151 94 -242
q103 6 163 19zM463 624q-19 0 -30.5 -55t-11.5 -85q0 -28 2 -41q49 92 49 151q0 30 -9 30zM253 140q99 1 224 8q-51 97 -74 196q-62 -95 -150 -204z" />
    <glyph glyph-name="B" unicode="B" horiz-adv-x="716" 
d="M715 464q0 -28 -20 -56.5t-52.5 -51t-61 -37.5t-57.5 -27q44 -13 70.5 -47.5t26.5 -80.5q0 -82 -76.5 -137t-161.5 -55q-39 0 -96.5 21.5t-57.5 51.5q0 22 29 22q32 0 40 -25q7 -20 36 -29t57 -9q68 0 128 44.5t60 110.5q0 48 -32 77.5t-81 32.5l-5 -1
q-17 -5 -71.5 -22.5t-92.5 -26.5t-74 -12q-1 -11 -1 -34q0 -29 4 -86.5t4 -86.5q0 -11 -5.5 -20.5t-15.5 -9.5q-14 0 -19 25q-10 44 -10 215q-25 8 -25 28q0 24 31 38l14 148q6 63 7 67q7 20 18 20q14 0 14 -18q0 -41 -12 -204q63 19 169 19q51 0 75 -5q27 11 44 18.5
t50.5 25.5t53.5 33.5t36.5 37t16.5 42.5q0 28 -25 47.5t-64 28t-70 11.5t-59 3q-100 0 -269 -34t-220 -81q-2 -4 -2 -16t-4.5 -17.5t-18.5 -5.5q-16 0 -28 8.5t-12 23.5q0 24 33 41q104 52 245.5 81.5t265.5 29.5q40 0 76.5 -3.5t86 -13.5t79 -35.5t29.5 -63.5zM370 269
q-6 1 -17 1q-31 0 -73 -7t-55 -21q1 -2 8 -2q18 0 69.5 11t67.5 18z" />
    <glyph glyph-name="C" unicode="C" horiz-adv-x="654" 
d="M634 80q0 -11 -11 -19q-59 -40 -141.5 -63.5t-156.5 -23.5q-52 0 -108 14.5t-107 42.5t-83.5 74.5t-32.5 103.5q0 21 4 38q25 109 108 201.5t187 118.5q23 35 40 35q10 0 14 -8.5t1 -17.5q66 0 107 -31.5t41 -95.5q0 -69 -47 -122t-116 -53q-49 0 -76 31.5t-27 82.5
q0 63 37 135q-89 -33 -159.5 -124t-70.5 -183q0 -67 49 -117t114 -72t129 -22q131 0 279 88q1 0 5 1.5t6 1.5q15 0 15 -16zM456 446q0 44 -29 69t-74 25q-10 0 -30 -2q-57 -83 -57 -144q0 -37 21.5 -62.5t57.5 -25.5q45 0 78 46.5t33 93.5z" />
    <glyph glyph-name="D" unicode="D" horiz-adv-x="775" 
d="M731 261q0 -56 -43 -108q-66 -78 -188 -111.5t-251 -34.5q3 -10 3 -20q0 -27 -20 -27q-29 0 -34 49q-48 6 -98.5 28.5t-50.5 59.5q0 9 8 15.5t18 6.5q15 0 26.5 -11.5t19 -25.5t26.5 -24.5t47 -9.5v3q0 19 -3.5 59t-3.5 59q0 129 41 275l1 1q-50 0 -145 -34.5t-95 -77.5
t104 -43q21 0 21 -16t-32 -16q-21 0 -41.5 2.5t-44.5 9t-39 22t-15 37.5q0 35 35.5 63.5t89 45.5t96 26.5t76.5 13.5q16 59 41 59q10 0 15 -8.5t5 -18.5t-4 -26q45 -1 95 -6.5t113 -20.5t111.5 -38.5t82 -64.5t33.5 -93zM695 256q0 46 -33 81.5t-80 55.5t-107.5 32.5
t-106.5 16.5t-85 4q-13 0 -19 -9q-19 -32 -29.5 -114.5t-10.5 -138.5q0 -80 12 -128q2 -7 7 -10t8.5 -3.5t13 0t11.5 0.5q112 0 218.5 29.5t164.5 97.5q36 41 36 86z" />
    <glyph glyph-name="E" unicode="E" horiz-adv-x="687" 
d="M655 80q0 -11 -14 -19q-80 -34 -194 -57.5t-201 -23.5q-27 0 -43.5 0.5t-51.5 3t-58 8.5t-48.5 16t-38.5 28t-13 41q0 34 25 67t64 57t74.5 40.5t68.5 27.5q-31 8 -61 18.5t-67.5 28.5t-60.5 44.5t-23 56.5q0 40 35 70t88.5 44t99 20t83.5 6q93 0 177.5 -25.5
t129.5 -86.5q7 -9 7 -16q0 -14 -15.5 -21.5t-31.5 -7.5q-27 0 -27 15q0 8 14 13q-1 1 -2 2.5t-1 2.5q-31 49 -105 69.5t-151 20.5q-148 0 -218 -52q-40 -27 -40 -55q0 -26 28.5 -50t72 -40t77 -25.5t61.5 -14.5q49 9 83 9q73 0 73 -29q0 -21 -28 -21q-15 0 -46 3t-46 3
q-29 0 -77 -12.5t-97 -33t-84 -52t-35 -65.5q0 -23 26 -39.5t65 -23.5t69.5 -10t54.5 -3q168 0 380 80q6 2 8 2q14 0 14 -14z" />
    <glyph glyph-name="F" unicode="F" horiz-adv-x="663" 
d="M742 520q0 -26 -14.5 -50.5t-39.5 -24.5q-9 0 -16 5t-7 14q0 8 20.5 26t20.5 37q0 31 -36.5 46.5t-73.5 15.5q-24 0 -53.5 -5t-53.5 -11t-61 -18.5t-54.5 -19.5t-57.5 -22.5t-49 -18.5q-23 -61 -23 -115q0 -38 14 -110q22 2 143.5 12t186.5 13h9q33 2 33 -21
q0 -11 -12 -20t-23 -9q-7 0 -21 4.5t-22 4.5q-74 0 -285 -18q2 -7 9.5 -35.5t10.5 -46.5t3 -37q0 -66 -49 -94.5t-119 -28.5q-30 0 -64 8t-34 29q0 9 9 16.5t18 7.5q6 0 20 -10q25 -14 76 -14q104 0 104 76q0 36 -27 126q-151 -11 -166 -11q-81 0 -81 31q0 22 30 24
q36 3 109 3q14 0 19 -17q2 -1 4 -1q43 0 76 4q-11 58 -11 113q0 52 13 98q-113 -37 -176 -37q-30 0 -54.5 13t-24.5 40q0 25 19 25q9 0 14 -6t8 -13.5t17 -13.5t37 -6q61 0 175 38q25 69 51 69q14 0 14 -12q0 -9 -13 -35q214 88 312 88q54 0 100 -28t46 -78z" />
    <glyph glyph-name="G" unicode="G" horiz-adv-x="764" 
d="M724 59q16 0 16 -15q0 -9 -7 -14t-16 -5q-27 0 -84.5 -21.5t-86.5 -39.5q44 -86 44 -152q0 -68 -39.5 -114t-106.5 -46q-47 0 -73.5 32t-26.5 81q0 61 44 113.5t106 91.5q-18 36 -33 61q-29 -9 -70 -26t-73 -25t-77 -8q-53 0 -103.5 15t-90 53t-39.5 93q0 46 30 91
q74 103 207 163t267 60q152 0 152 -64q0 -32 -47 -66q37 -18 37 -61q0 -42 -32 -87.5t-73 -79.5q-7 -5 -21.5 -15t-21.5 -16l-5 -5q4 -15 32 -59q33 18 98.5 41.5t92.5 23.5zM417 171q0 71 38 105q-15 4 -15 15q0 16 21 16q30 0 43 4q7 2 19 8q1 0 44 9q15 4 35.5 19
t20.5 29q0 15 -26.5 24t-49.5 11t-42 2q-53 0 -128 -20.5t-148 -54.5t-124 -88t-51 -112q0 -46 32.5 -77t73.5 -42.5t86 -11.5q46 0 99 14t92 37q5 2 5 8q0 5 -1 6q-2 6 -7 19.5t-7 20t-5 17.5t-4 21t-1 21zM550 -201q0 68 -40 143q-49 -29 -87.5 -76t-38.5 -96
q0 -35 18.5 -60.5t52.5 -25.5q44 0 69.5 34.5t25.5 80.5zM610 242q0 18 -12 34t-30 16q-12 0 -41 -11q-32 -12 -51 -37.5t-19 -57.5q0 -37 26 -99q50 29 88.5 70t38.5 85z" />
    <glyph glyph-name="H" unicode="H" horiz-adv-x="743" 
d="M722 238q0 -9 -6.5 -16.5t-15.5 -7.5q-8 0 -28.5 10.5t-39.5 10.5q-25 0 -51 -8q-2 -8 -2 -26q0 -94 7 -130q0 -3 2 -11.5t2 -13.5q0 -11 -7 -20.5t-18 -9.5q-12 0 -19 12.5t-7 25.5q0 4 1.5 10t1.5 10q0 22 -0.5 47t-1.5 55.5t-1 47.5l-1 -1q-166 -43 -371 -46
q1 -10 1 -126q0 -1 0.5 -15.5t0.5 -25t-1.5 -23.5t-5.5 -20.5t-11 -7.5q-9 0 -15 6.5t-6 15.5q0 152 -3 202q-30 3 -59.5 10t-61.5 20t-52 37t-20 55q0 24 15.5 49t37.5 25q9 0 16 -6.5t7 -15.5t-17.5 -20.5t-17.5 -31.5q0 -26 31 -46.5t62 -29.5t58 -12q0 207 24 311
q5 22 24 22q18 0 18 -31q0 -7 -2 -25q-26 -141 -26 -230q0 -34 1 -50h1q32 -3 63 -3q73 0 159.5 12.5t148.5 35.5q4 1 4 7q1 9 3.5 71t5.5 114t11 103t18 60q10 8 19 8q8 0 13.5 -6t5.5 -14q0 -7 -6.5 -16.5t-7.5 -13.5q-18 -47 -23 -306q44 8 67 8q15 0 30 -2t30 -11
t15 -23z" />
    <glyph glyph-name="I" unicode="I" horiz-adv-x="459" 
d="M440 539q0 -8 -6.5 -14t-14.5 -6q-3 0 -25.5 6.5t-42.5 6.5q-58 0 -77 -5q-38 -156 -38 -342q0 -76 9 -133q44 9 104 9q69 0 69 -23q0 -10 -7.5 -16.5t-17.5 -6.5q-12 0 -36 5t-37 5q-54 0 -64 -8q-2 -10 -3.5 -13.5t-6 -6t-14.5 -2.5q-14 0 -18.5 7.5t-7.5 7.5t-5 -1
q-12 -3 -34.5 -9.5t-36.5 -10t-34 -7t-38 -3.5q-62 0 -62 47q0 29 17 29q8 0 12 -6.5t6.5 -14.5t12.5 -14.5t28 -6.5q21 0 63.5 10t62.5 19l1 5q0 17 -2.5 50t-2.5 50q0 119 39 376q-63 -9 -127 -9q-75 0 -75 30q0 12 14 23t26 11q14 0 14 -12q0 -6 -5 -11q10 -7 46 -7
q56 0 107 9q4 1 11 28.5t25 27.5q15 0 15 -20q0 -6 -2 -16.5t-2 -14.5q39 5 94 5q66 0 66 -28z" />
    <glyph glyph-name="J" unicode="J" horiz-adv-x="541" 
d="M573 336q0 -11 -12 -17q-7 -5 -22.5 -11.5t-20.5 -8.5q-47 -23 -86 -45q5 -57 5 -103q0 -298 -216 -335q-15 -3 -31 -3q-44 0 -75 22t-31 64q0 48 32 104t83 106.5t97.5 88.5t91.5 68q-56 2 -124 14t-146 35t-130 68t-52 103q0 65 56 100t125 35q182 0 264 -178
q34 -75 46 -152q116 58 133 58q13 0 13 -13zM383 306q-25 119 -91 198t-177 79q-54 0 -96 -25t-42 -76q0 -18 10 -34q30 -49 107 -82.5t148 -45.5t141 -14zM402 123q0 36 -8 106q-51 -34 -107.5 -82.5t-110 -117.5t-53.5 -119q0 -31 27.5 -48.5t60.5 -17.5t71 19
q120 61 120 260z" />
    <glyph glyph-name="K" unicode="K" horiz-adv-x="611" 
d="M626 -6q0 -25 -84 -25q-60 0 -107.5 17.5t-74 43t-52 56t-43.5 56t-46.5 43t-63.5 17.5q-25 0 -46 -7q-9 -119 -9 -161q0 -73 5 -82q10 -3 10 -15q0 -11 -11 -19.5t-23 -8.5q-21 0 -21 25q0 62 9 249q-54 -15 -68 -15q-19 0 -19 14q0 21 92 48q26 355 84 355q9 0 17 -6
t8 -15t-10 -19q-26 -27 -41.5 -128.5t-19.5 -179.5q105 26 233 123t180 192q7 16 21 16q9 0 15.5 -6t6.5 -15q0 -5 -3 -10q-18 -47 -88.5 -111.5t-141 -111t-125.5 -75.5q-3 0 -3 -3q2 -2 4 -3q31 -10 57 -32.5t43 -47t39 -51.5t45 -48.5t62 -35.5t88 -14q11 0 32 4t29 4
q20 0 20 -18z" />
    <glyph glyph-name="L" unicode="L" horiz-adv-x="768" 
d="M748 32q0 -6 -6 -14q-60 -64 -190 -64q-90 0 -205 33q-44 -84 -133 -84q-64 0 -141.5 51.5t-77.5 112.5q0 26 17 40.5t44 14.5q42 0 142 -40t124 -46l3 -1q10 25 26 116t18 124q-38 10 -63 18t-63 22t-63 30.5t-49.5 39t-37 52.5t-12.5 66q0 62 61 62q19 0 47.5 -8
t28.5 -22t-22 -14q-8 0 -24 4.5t-25 4.5q-11 0 -16 -5.5t-6 -11.5t-1 -17q0 -53 45 -95.5t99 -63t106 -27.5q2 0 2 1q7 39 21 80.5t37.5 90.5t62.5 80.5t86 31.5q51 0 91.5 -39t40.5 -89q0 -44 -29 -83t-72 -65q-78 -47 -200 -47q-7 0 -7 -3q-11 -100 -47 -243v-1h2
q104 -38 196 -38q90 0 161 54q6 6 15 6q14 0 14 -14zM672 466q0 37 -26 65t-63 28t-68.5 -28t-51.5 -70t-32 -81.5t-17 -73.5q11 -1 31 -1q50 0 100 16t88.5 54.5t38.5 90.5zM314 -1q-9 3 -76 27t-114 38t-72 14q-19 0 -19 -16q0 -2 2 -8q21 -45 79 -84t107 -39
q32 0 56.5 19t36.5 49z" />
    <glyph glyph-name="M" unicode="M" horiz-adv-x="858" 
d="M811 5q0 -17 -45 -17q-39 0 -66 36.5t-27 76.5q0 33 5.5 71.5t11.5 64.5t17.5 71t16.5 66q8 30 8 47q0 30 -22 30q-20 0 -44 -18q-18 -13 -35.5 -29.5t-31 -31t-29 -38t-24 -37.5t-23 -42.5t-20 -40t-20 -43.5t-18.5 -40q-29 -65 -51 -81q-13 -10 -27 -10q-40 0 -40 58
q0 43 17 136.5t17 141.5q0 19 -11 19q-8 0 -25 -11q-53 -33 -136 -163q-7 -11 -59 -100.5t-77 -121.5q-13 -13 -23 -13q-19 0 -19 26q0 15 8 46.5t19.5 71.5t14.5 50q31 124 31 188q0 37 -14.5 68t-48.5 31q-20 0 -42.5 -18t-28.5 -18q-12 0 -12 14q0 26 30.5 44.5
t57.5 18.5q35 0 57 -21.5t30 -50t8 -62.5q0 -46 -9.5 -95t-29.5 -118.5t-25 -92.5q7 12 33 54.5t47 77.5t53 81.5t58.5 78t55.5 54t51 22.5q47 0 47 -78q0 -42 -18 -125t-18 -126q0 -25 6 -25q8 0 18 20q16 29 49 97.5t53.5 107.5t60 88t84.5 79q29 19 58 19q58 0 58 -61
q0 -27 -11 -67q-3 -12 -12.5 -45.5t-14 -50.5t-10.5 -44.5t-8.5 -51.5t-2.5 -47q0 -40 21 -74t59 -34q17 0 17 -13z" />
    <glyph glyph-name="N" unicode="N" horiz-adv-x="675" 
d="M686 17q0 -24 -43 -39.5t-73 -15.5q-60 0 -93 40.5t-33 102.5q0 45 15.5 134t15.5 134q0 61 -41 61q-34 0 -74.5 -34t-75 -85t-59.5 -95t-40 -78q-17 -40 -21 -87q-5 -40 -27 -40q-21 0 -21 37q0 14 3 31q6 35 21.5 95.5t25 111.5t9.5 97q0 57 -23 105.5t-74 48.5
q-35 0 -64 -20.5t-47 -41t-26 -20.5q-6 0 -10.5 5.5t-4.5 11.5t4 14q23 35 68 61t86 26q66 0 98.5 -51.5t32.5 -120.5q0 -20 -2.5 -44t-5 -38.5t-8 -44.5t-7.5 -40q21 37 45 72t58.5 76t74 66.5t74.5 25.5q37 0 55.5 -30t18.5 -70q0 -43 -17 -127.5t-17 -127.5
q0 -51 25.5 -86t74.5 -35q24 0 56 14t33 14q13 0 13 -13z" />
    <glyph glyph-name="O" unicode="O" horiz-adv-x="684" 
d="M634 307q0 -136 -110.5 -232t-248.5 -96q-112 0 -196 75.5t-84 186.5q0 83 52 167q-6 4 -6 12q0 9 12 23q49 51 135 82t162 31q114 0 199 -69t85 -180zM599 299q0 63 -33.5 114.5t-91.5 80.5v-2q0 -18 -17 -18q-1 0 -45 20t-87 20q-114 0 -204.5 -76.5t-90.5 -187.5
q0 -106 79 -169.5t187 -63.5q115 0 209 84t94 198z" />
    <glyph glyph-name="P" unicode="P" horiz-adv-x="683" 
d="M692 443q0 -43 -30 -91q-56 -84 -160.5 -126.5t-217.5 -42.5q-54 0 -104 10q-8 -43 -8 -181q0 -24 -19 -24q-22 0 -22 43q0 31 5.5 89t5.5 85q-71 26 -71 61q0 26 25 40t55 17q20 102 20 203q0 22 13 22q22 0 22 -59q0 -30 -7.5 -85.5t-8.5 -80.5q19 0 47.5 -7.5
t28.5 -20.5t-18 -13q-10 0 -30.5 4.5t-31.5 3.5q-2 -7 -5 -53q66 -20 131 -20t141 24t137.5 77t61.5 120q0 46 -29 79.5t-75.5 49t-89.5 22.5t-86 7q-98 0 -210 -28t-181 -78q-37 -26 -37 -41t49 -26.5t49 -24.5q0 -14 -23 -14q-22 0 -46 4t-47 18.5t-23 36.5q0 30 33 53
q85 65 201.5 98t234.5 33q58 0 107 -7q82 -12 147.5 -57.5t65.5 -119.5zM148 287q-35 -6 -35 -14q0 -9 32 -25z" />
    <glyph glyph-name="Q" unicode="Q" horiz-adv-x="720" 
d="M707 44q0 -27 -56 -59.5t-87 -32.5q-36 0 -62.5 20.5t-55.5 57.5q-4 0 -6 -2q-103 -49 -186 -49q-111 0 -184.5 73t-73.5 184q0 91 50.5 171.5t133 127.5t172.5 47q60 0 112.5 -24t71.5 -74q102 -56 102 -162q0 -83 -39.5 -144.5t-114.5 -121.5h2q46 -68 89 -68
q24 0 50 17t45 34.5t25 17.5q12 0 12 -13zM601 309q0 37 -15.5 72.5t-44.5 50.5q-7 -41 -23 -41q-3 0 -5.5 1t-4 3.5t-2.5 5t-1 6.5v6v6v5q0 26 -15 36q-42 27 -131 27q-58 0 -103 -15q-4 -2 -7 -2q-17 0 -17 14q0 19 48.5 28t81.5 9q54 0 107 -12q-45 38 -125 38
q-123 0 -217 -95.5t-94 -219.5q0 -94 68 -155.5t163 -61.5q80 0 161 46q-33 48 -71 48q-24 0 -51.5 -22t-36.5 -45q-5 -17 -19 -17q-18 0 -18 21q0 33 54.5 67.5t90.5 34.5q43 0 89 -66q138 105 138 227z" />
    <glyph glyph-name="R" unicode="R" horiz-adv-x="744" 
d="M729 -12q0 -16 -45 -24.5t-73 -8.5q-137 0 -318 126q-32 -6 -61 -5q0 -18 3.5 -52.5t3.5 -51.5q0 -22 -21 -22q-18 0 -23 22q-4 18 -4 107q-31 3 -55 19t-24 45q0 28 25.5 43.5t53.5 10.5q1 63 13 138.5t33 127.5q5 14 16 14q15 0 15 -17q0 -5 -2 -11q-35 -116 -35 -244
q0 -14 1 -22q14 -7 28 -17.5t32 -26t26 -21.5q39 10 81.5 25t93 40.5t89.5 55t65.5 70t26.5 82.5q0 44 -32.5 76.5t-83 47.5t-96 21.5t-87.5 6.5q-98 0 -199.5 -27t-168.5 -80q-45 -37 -45 -62q0 -27 40 -39.5t79.5 -19t39.5 -18.5q0 -14 -22 -14q-24 0 -51 4t-58 12.5
t-51 27.5t-20 45q0 42 53 82q76 61 188.5 92.5t221.5 31.5q49 0 100.5 -8t107 -26.5t90.5 -57t35 -90.5q0 -46 -26.5 -89.5t-65 -75.5t-90.5 -61t-95 -46.5t-86 -31.5q146 -104 283 -104q36 0 69 10q4 1 10 1q15 0 15 -11zM261 108q-14 13 -31 25l1 -23q14 -2 21 -2h9z
M190 156q-10 5 -18 5q-20 0 -20 -11q0 -21 37 -32z" />
    <glyph glyph-name="S" unicode="S" horiz-adv-x="655" 
d="M619 205q0 -28 -20 -53q-65 -82 -188 -135t-233 -53q-76 0 -133 41.5t-57 114.5q0 34 22 34q16 0 16 -30q0 -61 48 -92t113 -31q92 0 201.5 45t168.5 111q17 19 17 36q0 21 -19 36t-39 21.5t-42 9.5q-46 7 -133 11t-157 15t-128 38q-77 35 -77 82q0 39 45.5 69t112 44
t122 20.5t94.5 6.5q134 0 199 -38q49 -30 49 -60q0 -17 -16.5 -33.5t-32.5 -16.5q-8 0 -14 5t-6 13q0 10 10 21t10 13q0 3 -9 12q-26 28 -87.5 40t-116.5 12q-72 0 -151.5 -15.5t-131.5 -45.5q-35 -20 -35 -42q0 -27 48 -51q33 -17 68.5 -28t81 -17t70 -8t82.5 -4.5t73 -3.5
q26 -1 51 -5.5t55.5 -14t49.5 -29t19 -45.5z" />
    <glyph glyph-name="T" unicode="T" horiz-adv-x="532" 
d="M747 503q0 -7 -7 -14.5t-14 -7.5q-3 0 -25.5 6t-38.5 6q-34 0 -78 -5.5t-72.5 -11t-82.5 -17.5l-72 -16q-15 -144 -15 -487q0 -11 -6.5 -20t-16.5 -9q-12 0 -21 11t-9 23q0 6 5 17.5t5 17.5q1 16 1 148q4 184 16 292q-116 -19 -204 -19q-209 0 -209 127q0 32 20 77t47 45
q19 0 19 -29q0 -13 -5 -28.5t-15 -15.5q-11 0 -13 13q-14 -28 -14 -52q0 -31 20 -53t53 -31.5t61.5 -13t58.5 -3.5q79 0 186 19q0 4 1.5 23t3 34t5 33t11 28t17.5 10q9 0 16 -6.5t7 -15.5q0 -6 -3 -13q-12 -26 -15 -86q9 2 132.5 29t184.5 27q22 0 44 -7.5t22 -24.5z" />
    <glyph glyph-name="U" unicode="U" horiz-adv-x="686" 
d="M696 55q0 -25 -42 -46t-71 -21q-38 0 -62.5 15t-35.5 43t-14.5 55.5t-3.5 64.5q-27 -40 -49 -68.5t-57.5 -67t-74 -59.5t-75.5 -21q-45 0 -66.5 30.5t-21.5 77.5q0 39 13 88.5t39.5 122t31.5 87.5q20 62 20 87q0 36 -28 36q-5 0 -23 -5q-54 -20 -103.5 -63t-82.5 -94
q12 0 12 -11q0 -8 -24.5 -22.5t-33.5 -14.5q-17 0 -17 22q0 10 22 43q37 52 101 103.5t120 71.5q30 8 45 8q27 0 41.5 -15.5t14.5 -42.5q0 -14 -4 -33t-12 -44.5t-14 -41.5t-16.5 -44.5t-12.5 -33.5q-47 -139 -47 -196q0 -32 14.5 -55.5t44.5 -23.5q39 0 99.5 57t106.5 125
t54 106q1 7 9.5 47.5t14.5 66t16 56.5t19 44q7 10 17 10q9 0 15 -7t6 -16q0 -13 -2 -28.5t-7 -33.5t-9 -32.5t-12 -36t-12 -32.5t-12.5 -33t-10.5 -27q-10 -27 -10 -87q0 -32 5.5 -60.5t25.5 -54t52 -25.5q22 0 42.5 11t34 22t18.5 11q12 0 12 -15z" />
    <glyph glyph-name="V" unicode="V" horiz-adv-x="730" 
d="M676 280q0 -67 -38.5 -146.5t-105 -137.5t-135.5 -58q-146 0 -146 221q0 36 6 107.5t6 107.5q0 85 -46 85q-37 0 -99.5 -48t-110 -110t-47.5 -99q0 -11 11.5 -15t11.5 -12q0 -16 -27 -16q-17 0 -28.5 9t-11.5 25q0 56 98 167q47 53 105.5 94.5t110.5 41.5q74 0 74 -116
q0 -36 -8 -109t-8 -109q0 -45 8 -83.5t36 -71.5t73 -33q60 0 116 53t87.5 123.5t31.5 128.5q0 48 -24 88.5t-47.5 63t-23.5 25.5q0 8 8.5 13.5t17.5 5.5q5 0 10 -3q44 -27 69.5 -82t25.5 -110z" />
    <glyph glyph-name="W" unicode="W" horiz-adv-x="825" 
d="M775 329q0 -44 -17 -102.5t-46 -114t-74 -93.5t-93 -38q-63 0 -103 59.5t-52 130.5q-39 -66 -103 -137t-112 -71q-44 0 -66.5 38.5t-22.5 85.5q0 50 31.5 146t31.5 145q0 27 -19 46.5t-47 19.5q-20 0 -38 -9q-80 -38 -80 -136q0 -9 -6 -16t-15 -7t-15 7t-6 16
q0 70 50 124.5t120 54.5q44 0 68.5 -26.5t24.5 -71.5q0 -46 -32 -143t-32 -149q0 -33 13 -59t42 -26q44 0 123.5 93t84.5 137q1 4 0 28t-1 28q0 30 4 71.5t19.5 88.5t40.5 47q26 0 26 -36q0 -25 -5.5 -56t-10.5 -50t-16.5 -57.5t-14.5 -49.5q-2 -6 -2 -16q0 -45 12 -90.5
t44.5 -83t77.5 -37.5q25 0 44 13q57 37 96.5 124t39.5 160q0 37 -11 66t-24 42.5t-24 24.5t-11 17q0 19 25 19q6 0 14 -3q67 -44 67 -154z" />
    <glyph glyph-name="X" unicode="X" horiz-adv-x="793" 
d="M382 260v-3q27 -76 88 -129.5t137 -53.5q33 0 59.5 10.5t39 22.5t23.5 22.5t16 10.5q13 0 13 -14q0 -1 -3 -10q-25 -39 -67 -59.5t-89 -20.5q-154 0 -245 187q-48 -57 -105.5 -142t-82.5 -142q-10 -24 -29 -24q-21 0 -21 14q0 8 8 20.5t19 27t14 19.5q58 96 119 178
q8 11 28 36t30 39l4 8q0 3 -2 9q-9 25 -24 71t-22 65q-35 102 -95 102q-31 0 -77.5 -34.5t-47.5 -60.5q2 -1 6 -2.5t6 -2t4 -3.5t2 -7q0 -9 -11.5 -14t-22.5 -5q-12 0 -20 7t-8 19q0 10 5 18q28 47 79 84t101 37q30 0 54 -16.5t40 -48t26 -58t21.5 -66.5t16.5 -54
q90 112 135 169q42 54 91 131q5 11 17 11q9 0 16 -6.5t7 -15.5q0 -14 -126.5 -168t-126.5 -158z" />
    <glyph glyph-name="Y" unicode="Y" horiz-adv-x="569" 
d="M572 141q0 -4 -0.5 -7t-1.5 -5.5t-1.5 -3.5t-3 -2.5t-3.5 -2t-5 -1.5t-6 -2q-22 -8 -88 -97q1 -23 1 -70q0 -33 -0.5 -44.5t-2 -53t-7.5 -64.5t-16 -52.5t-27.5 -43.5t-40.5 -14q-34 0 -51.5 27t-17.5 63q0 100 125 259q-1 39 -8 114.5t-8 111.5q-54 -68 -131 -121.5
t-148 -53.5q-55 0 -87 32t-32 88q0 74 45 177t98 166q9 12 22 12q18 0 18 -19q0 -18 -14.5 -41.5t-31.5 -22.5q-42 -60 -72.5 -129.5t-30.5 -127.5q0 -46 25.5 -73.5t70.5 -27.5q70 0 145.5 62t116.5 133q7 11 8 25q9 94 45 150q9 14 21 14q21 0 21 -25q0 -55 -32 -124
q-15 -30 -16 -34q-2 -7 -2 -49q0 -17 11 -193q2 2 9 10t12.5 14.5t14 16t16 16.5l15 14t14 10.5t10.5 3.5q7 0 14 -4t7 -11zM430 -95q0 12 -0.5 34.5t-0.5 33.5q-92 -123 -92 -205q0 -22 8.5 -41.5t27.5 -19.5q57 0 57 198z" />
    <glyph glyph-name="Z" unicode="Z" horiz-adv-x="570" 
d="M583 99q20 0 20 -18q0 -9 -6.5 -15t-15.5 -6q-54 0 -132 -36q1 -11 1 -28q0 -65 -48.5 -142t-121 -130t-134.5 -53q-32 0 -52 22t-20 54q0 41 36.5 88t93.5 87.5t105.5 68.5t91.5 49q-8 39 -42 65.5t-78 38.5q-77 -50 -125 -50q-19 0 -33 9t-14 27q0 30 36 45t71 15
q30 0 60 -6q50 36 90 89t40 102q0 62 -53 99t-117 37q-73 0 -153 -44.5t-106 -108.5q-5 -12 -5 -23q0 -22 33 -22q14 0 40 7.5t36 7.5q13 0 13 -11q0 -15 -39 -27t-60 -12q-28 0 -45 15.5t-17 42.5q0 35 27 69q49 62 127.5 100.5t156.5 38.5q74 0 137 -42t63 -112
q0 -101 -126 -216q44 -16 78 -46.5t45 -70.5q104 42 142 42zM166 129q28 0 69 26q-3 0 -8 0.5t-8 0.5q-57 0 -67 -25q5 -2 14 -2zM408 -11v17q-40 -19 -81 -43t-94.5 -60t-87 -77t-33.5 -76q0 -19 11.5 -31.5t30.5 -12.5q75 0 164.5 94.5t89.5 188.5z" />
    <glyph glyph-name="bracketleft" unicode="[" horiz-adv-x="269" 
d="M261 -120q0 -8 -8 -8h-149q-8 0 -8 8v776q0 8 8 8h149q3 0 5 -2t3 -6t1 -7.5t-0.5 -7.5t-0.5 -5q0 -8 -8 -8h-121v-720h121q3 0 5 -2t3 -6t1 -7.5t-0.5 -7.5t-0.5 -5z" />
    <glyph glyph-name="backslash" unicode="\" horiz-adv-x="394" 
d="M407 -69q0 -15 -15 -15q-9 0 -17.5 7.5t-13 15.5t-11.5 22t-9 17q-38 64 -90 137.5t-85.5 117t-106 133t-95.5 118.5q-70 89 -70 103q0 6 6 10.5t12 4.5q9 0 17.5 -9.5t16.5 -26t10 -19.5q11 -18 66 -85q6 -8 50.5 -63t67.5 -85q140 -180 241 -337q26 -36 26 -46z" />
    <glyph glyph-name="bracketright" unicode="]" horiz-adv-x="269" 
d="M141 -120q0 -8 -8 -8h-149q-3 0 -5 2t-3 6t-1 7.5t0.5 7.5t0.5 5q0 8 8 8h121v720h-121q-3 0 -5 2t-3 6t-1 7.5t0.5 7.5t0.5 5q0 8 8 8h149q8 0 8 -8v-776z" />
    <glyph glyph-name="asciicircum" unicode="^" 
d="M328 392q0 -8 -6 -8q-5 0 -27 20.5t-46 44.5t-30 29h-2q-5 -4 -32 -28.5t-50.5 -45t-28.5 -20.5q-7 0 -7 8q0 11 53.5 64.5t66.5 53.5q12 0 60.5 -53t48.5 -65z" />
    <glyph glyph-name="underscore" unicode="_" horiz-adv-x="500" 
d="M500 -115h-500v30h500v-30z" />
    <glyph glyph-name="grave" unicode="`" horiz-adv-x="250" 
d="M165 327q0 -14 -15 -14q-6 0 -24.5 14.5t-41 35t-25.5 22.5q-9 7 -9 17q0 19 16 19q10 0 54.5 -42t44.5 -52z" />
    <glyph glyph-name="a" unicode="a" horiz-adv-x="338" 
d="M363 156l-1 -5q-5 -48 -42 -91.5t-84 -43.5q-50 0 -73 55q-18 -34 -46.5 -58t-61.5 -24q-34 0 -57 23.5t-23 57.5q0 59 56 129t113 70q17 0 33 -9t16 -25q0 -11 -8 -17q10 -7 10 -18q0 -10 -3.5 -29t-3.5 -28q0 -20 4 -39t16.5 -36.5t32.5 -17.5q31 0 52 30t34 60t24 30
q12 0 12 -14zM165 218q-18 13 -31 13q-37 0 -79.5 -57.5t-42.5 -98.5q0 -22 13 -36t35 -14q36 0 63.5 38t27.5 76q0 5 -1.5 16t-1.5 17q0 36 17 46z" />
    <glyph glyph-name="b" unicode="b" horiz-adv-x="305" 
d="M328 153q0 -4 -2 -8q-14 -26 -43 -39.5t-60 -13.5q-13 0 -27 3q-19 -43 -49 -73t-70 -30q-34 0 -54 28t-25 58t-5 65q0 80 34 197t81 169q19 21 42 21q29 0 42.5 -26.5t13.5 -58.5q0 -73 -53.5 -155.5t-122.5 -147.5v-5q0 -20 4.5 -43t18 -44t34.5 -21q23 0 46.5 25.5
t32.5 50.5q-55 36 -55 85q0 22 11.5 36.5t32.5 14.5q28 0 40.5 -26t12.5 -56q0 -11 -4 -35q14 -2 21 -2q26 0 45 11t29.5 21.5t16.5 10.5q4 0 8 -3.5t4 -8.5zM169 443q0 48 -25 48q-5 0 -15 -10q-35 -36 -62.5 -130t-37.5 -168q57 55 98.5 125t41.5 135zM176 160q0 14 -6 29
t-18 15q-8 -5 -8 -14q0 -30 30 -51q2 14 2 21z" />
    <glyph glyph-name="c" unicode="c" horiz-adv-x="300" 
d="M322 150q0 -6 -2 -9q-21 -52 -79.5 -91t-114.5 -39q-57 0 -95.5 37.5t-38.5 94.5q0 60 44 120t102 60q23 0 42 -19l5 1q14 0 11 -22q6 -16 6 -40q0 -26 -9 -59.5t-28 -33.5q-21 0 -21 50q0 15 6.5 37t6.5 31q-3 8 -12 13.5t-18 5.5q-39 0 -68 -46t-29 -88q0 -48 30 -78.5
t78 -30.5q36 0 68 19t50 41t33 41t20 19q13 0 13 -14z" />
    <glyph glyph-name="d" unicode="d" horiz-adv-x="334" 
d="M358 149v-5q-14 -46 -44 -84t-70 -38q-28 0 -52 19.5t-37 47.5q-22 -33 -53.5 -58.5t-62.5 -25.5q-30 0 -43.5 24t-13.5 56q0 36 15.5 83.5t47.5 86.5t70 39q11 0 21 -3q1 22 6.5 53t15.5 67.5t27 62t38 25.5q41 0 41 -88q0 -110 -80 -276q22 -76 63 -76q26 0 45.5 26
t31.5 52.5t21 26.5q13 0 13 -15zM174 186q54 129 54 212q0 40 -10 55q-24 -31 -35.5 -95.5t-11.5 -118.5q0 -26 3 -53zM52 41q36 0 91 86q-10 42 -10 112q0 8 -8 14t-17 6q-31 0 -60.5 -62.5t-29.5 -100.5q0 -20 8 -37.5t26 -17.5z" />
    <glyph glyph-name="e" unicode="e" horiz-adv-x="230" 
d="M254 152q0 -2 -2 -8q-21 -43 -67 -78t-90 -35q-47 0 -74 34t-27 82q0 52 31.5 101.5t80.5 49.5q22 0 34.5 -14.5t12.5 -37.5q0 -44 -38.5 -80t-82.5 -33q5 -30 22.5 -47.5t46.5 -17.5q36 0 67.5 24.5t50 49t22.5 24.5q13 0 13 -14zM120 234q0 11 -6 22t-16 11
q-28 0 -46 -31.5t-20 -62.5q8 -4 20 -4q24 0 46 20.5t22 44.5z" />
    <glyph glyph-name="f" unicode="f" horiz-adv-x="284" 
d="M310 154q0 -18 -32.5 -43t-54.5 -33q9 -32 9 -55q0 -55 -32.5 -101.5t-85.5 -46.5q-117 0 -120 226q-29 19 -29 41q0 28 36 40q3 39 14 94t30 121.5t50.5 111.5t68.5 45q28 0 41.5 -19t13.5 -48q0 -98 -148 -298q42 -1 80.5 -22.5t60.5 -58.5q13 4 32.5 19.5t34 28
t17.5 12.5q5 0 9.5 -4.5t4.5 -9.5zM186 486q0 33 -24 33q-34 0 -64.5 -72t-44 -139t-17.5 -107q42 42 96 139t54 146zM176 100q-16 26 -48 40t-65 14q-13 0 -18 -0.5t-9.5 -6t-4.5 -16.5v-4q41 -29 114 -29q9 0 31 2zM198 19q0 29 -10 50q-48 -3 -49 -3q-53 0 -111 22
q3 -177 102 -177q33 0 50.5 36t17.5 72z" />
    <glyph glyph-name="g" unicode="g" horiz-adv-x="342" 
d="M167 10l-9 67q-53 -38 -98 -38q-32 0 -52 20t-20 52q0 64 64.5 136.5t127.5 72.5q26 0 39 -16.5t9 -42.5q6 -8 6 -31q0 -24 -10 -53t-20 -49.5t-10 -23.5q0 -1 6 -76q37 23 78.5 59.5t59.5 67.5q4 9 14 9q14 0 14 -14q0 -27 -60.5 -79t-101.5 -77q18 -106 18 -142
q0 -66 -35.5 -122.5t-97.5 -56.5q-44 0 -77.5 37t-33.5 81q0 33 18 66t52 63.5t58 48t61 41.5zM157 119q1 69 38 141q4 4 4 10q0 17 -24 17q-51 0 -101 -60t-50 -113q0 -41 46 -41q43 0 87 46zM173 -237q15 28 15 87q0 48 -15 125q-164 -93 -164 -184q0 -34 26.5 -60.5
t60.5 -26.5q45 0 77 59z" />
    <glyph glyph-name="h" unicode="h" horiz-adv-x="301" 
d="M31 182v-52q50 88 90 88q25 0 37.5 -23t14.5 -50.5t11.5 -50.5t29.5 -23q27 0 46 23t30 46t19 23q14 0 14 -20q0 -30 -40.5 -69t-73.5 -39q-31 0 -48.5 22.5t-20.5 50t-8.5 50t-14.5 22.5q-28 0 -56.5 -67.5t-37.5 -114.5q-7 -34 -26 -34q-16 0 -16 17v6q9 45 11 131
q1 70 8.5 147.5t33 169t65.5 127.5q16 13 34 13q41 0 41 -71q0 -79 -41.5 -166.5t-101.5 -155.5zM110 524q-29 -40 -51 -130.5t-29 -161.5q46 57 78 126t32 132q0 11 -3 30t-9 19q-7 0 -18 -15z" />
    <glyph glyph-name="i" unicode="i" horiz-adv-x="169" 
d="M85 336q0 -20 -13 -35.5t-32 -15.5q-10 0 -17.5 6t-7.5 16q0 22 12 42.5t32 20.5q13 0 19.5 -10.5t6.5 -23.5zM193 152q0 -6 -3 -10q-19 -48 -59 -90t-84 -42q-59 0 -59 85q0 33 7 81.5t20 58.5q7 5 13 5q16 0 16 -18q0 -12 -9.5 -56t-9.5 -68q0 -53 33 -53q43 0 108 110
q5 10 14 10q13 0 13 -13z" />
    <glyph glyph-name="j" unicode="j" horiz-adv-x="166" 
d="M94 362q0 -18 -12.5 -33.5t-30.5 -15.5q-24 0 -24 24q0 19 11.5 38t30.5 19q12 0 18.5 -9.5t6.5 -22.5zM189 153q0 -23 -50.5 -77t-81.5 -78q28 -123 28 -173q0 -65 -34 -114t-96 -49q-45 0 -73 29.5t-28 75.5q0 61 47 124t110 113q-21 90 -21 144q0 29 8.5 57.5
t30.5 28.5q10 0 16 -7t6 -17q0 -8 -9.5 -33t-9.5 -49q0 -45 15 -98q70 57 113 129q5 10 14 10q15 0 15 -16zM48 -192q0 47 -28 163q-52 -41 -92 -96t-40 -109q0 -34 20.5 -53t54.5 -19q44 0 64.5 33.5t20.5 80.5z" />
    <glyph glyph-name="k" unicode="k" horiz-adv-x="333" 
d="M355 146q0 -6 -3 -10q-68 -114 -158 -114q-50 0 -89 35.5t-63 87.5q-2 4 -2 8q0 9 8.5 15.5t17.5 6.5q11 0 20.5 -19.5t22.5 -19.5q26 0 46 36t20 64q0 31 -12.5 53t-37.5 21l-6 -1q-28 -2 -55.5 -59t-31.5 -93q-4 -38 -4 -142q0 -38 -24 -38q-15 0 -21 27t-6 51
q0 26 8 65.5t9 50.5t1.5 24t1 28.5t0.5 23.5q12 158 12 160v15q1 12 -1.5 33.5t-2.5 30.5q0 23 20 23q21 0 21 -71q0 -26 -5 -81.5t-4 -84.5v-6q46 77 100 77q35 0 56.5 -30.5t21.5 -69.5q0 -37 -32 -86t-64 -53q32 -45 77 -45q33 0 65.5 25.5t53.5 51.5t26 26q14 0 14 -16z
" />
    <glyph glyph-name="l" unicode="l" horiz-adv-x="199" 
d="M219 146q0 -43 -40.5 -88.5t-84.5 -45.5q-30 0 -51.5 17.5t-31.5 46.5t-14 56.5t-4 55.5q0 42 12 116t42.5 148t70.5 74q23 0 34.5 -21t11.5 -45q0 -69 -38 -152.5t-89 -148.5l-2 -3q-4 -4 -4 -15q0 -26 24 -59.5t49 -33.5q21 0 39 17.5t27.5 38.5t19 38.5t17.5 17.5
q12 0 12 -14zM132 450q0 38 -17 38q-6 0 -14 -8q-37 -34 -54.5 -114t-16.5 -146v-18q37 53 69.5 125.5t32.5 122.5z" />
    <glyph glyph-name="m" unicode="m" horiz-adv-x="470" 
d="M148 29h-7q-6 0 -10 5.5t-4 11.5q0 9 11 47t11 61q0 45 -26 45q-36 0 -74.5 -57t-50.5 -102q-8 -28 -23 -28q-7 0 -13.5 6t-6.5 14q0 1 0.5 3.5t0.5 3.5q5 20 21 66.5t22 72.5q2 9 5 25t6 29t7 23q7 17 20 17q10 0 15.5 -9.5t5.5 -20.5q0 -16 -17 -69q43 61 91 61
q30 0 44.5 -24.5t10.5 -54.5q4 5 19 23.5t24.5 29.5t25.5 21t30 10q24 0 35 -28.5t12.5 -62t12 -62t33.5 -28.5q24 0 44 26t35 52t25 26q6 0 10 -5t4 -11q0 -32 -45.5 -77.5t-81.5 -45.5q-11 0 -20.5 3t-16.5 9.5t-12 12.5t-9.5 18t-7 19t-5 21t-3 20t-2.5 20.5t-2 17.5
q-5 37 -14 37q-23 0 -65.5 -60.5t-48.5 -89.5q-4 -17 -16 -22z" />
    <glyph glyph-name="n" unicode="n" horiz-adv-x="333" 
d="M356 148q0 -7 -2 -10q-17 -49 -56.5 -98.5t-80.5 -49.5q-35 0 -52 27.5t-17.5 60t-3.5 60t-15 27.5q-22 0 -53 -36.5t-56.5 -72.5t-32.5 -36t-12.5 7t-5.5 14q0 5 5 12q17 24 17 93q0 14 -3 41t-3 40q0 11 6.5 19.5t17.5 8.5q30 0 24 -130q66 77 108 77q27 0 37 -27
t8 -59t6.5 -59t33.5 -27q27 0 50.5 33.5t40 66.5t26.5 33q13 0 13 -15z" />
    <glyph glyph-name="o" unicode="o" horiz-adv-x="339" 
d="M360 149l-2 -6q-10 -30 -47 -45.5t-71 -11.5q-19 -39 -62.5 -65.5t-87.5 -26.5q-46 0 -76 32.5t-30 78.5q0 60 49.5 103t110.5 43q47 0 52 -15q3 -1 9 -1q24 -1 38 -29.5t14 -55.5q0 -16 -5 -33q3 -1 10 -1q23 0 41.5 11t29.5 22.5t15 11.5q12 0 12 -12zM220 152
q0 14 -9.5 31t-22.5 17t-13 -20q0 -32 41 -53q4 16 4 25zM25 108q0 -34 21 -59.5t54 -25.5q30 0 60 22.5t45 51.5q-66 37 -66 91q0 17 8 33h-4q-50 1 -84 -31t-34 -82z" />
    <glyph glyph-name="p" unicode="p" horiz-adv-x="330" 
d="M350 148q0 -3 -2 -7q-28 -47 -87.5 -76t-118.5 -29q-58 0 -106 24q0 -8 -0.5 -47.5t-1 -74t-2 -75.5t-4 -71t-6.5 -43q-7 -22 -24 -22q-9 0 -18 7q-27 25 -39 74.5t-12 97.5q0 116 46 212q4 8 12.5 22t11.5 20q2 3 2 22q0 18 -2 58q0 9 -4.5 30t-4.5 31q0 9 6 17.5
t15 8.5q23 0 23 -116q63 57 127 57q47 0 74.5 -30.5t27.5 -77.5q0 -45 -22 -71q9 5 18 10.5t18 13t14 12.5t16 15.5t15 14.5q7 7 14 7q5 0 9.5 -4.5t4.5 -9.5zM224 136q0 38 -19.5 66t-55.5 28q-34 0 -74 -26.5t-40 -58.5q0 -38 6 -44q33 -29 83 -29q39 0 69.5 14.5
t30.5 49.5zM6 73q0 2 -2.5 8t-3.5 6q-13 0 -25.5 -68t-12.5 -96q0 -112 34 -138q10 38 10 288z" />
    <glyph glyph-name="q" unicode="q" horiz-adv-x="331" 
d="M356 153q0 -28 -50.5 -55.5t-82.5 -29.5q57 -86 57 -170q0 -45 -26.5 -97t-67.5 -52q-27 0 -45 23.5t-25.5 60.5t-10.5 66t-3 56q0 41 5 91q-29 -22 -57 -22q-30 0 -48.5 22.5t-18.5 52.5q0 60 40.5 115.5t98.5 55.5q33 0 54 -17q26 -4 26 -34q0 -18 -13 -53.5t-13 -39.5
q0 -11 17 -18t30 -7q32 0 57.5 16.5t41 32.5t21.5 16q13 0 13 -13zM157 205q0 12 -13.5 21t-25.5 9q-41 0 -69.5 -44t-28.5 -87q0 -42 33 -42q15 0 39 14t24 27q0 2 -2 6.5t-2 8.5q0 19 22 23q23 60 23 64zM246 -112q0 95 -76 184q-18 7 -20 7q-12 -33 -12 -130
q0 -23 3.5 -56t17 -69.5t33.5 -36.5q23 0 38.5 37t15.5 64z" />
    <glyph glyph-name="r" unicode="r" horiz-adv-x="267" 
d="M41 176h6q13 0 37.5 18.5t27.5 31.5q7 32 29 32q7 0 11.5 -7t4.5 -14q0 -13 -11 -24q-10 -11 -16.5 -45t-6.5 -56q0 -62 41 -62q30 0 53 27t37.5 54.5t23.5 27.5q12 0 12 -12v-5q-13 -49 -53 -90t-86 -41q-62 0 -62 85q0 29 7 71q-40 -26 -72 -24q-12 -7 -17 -7
q-11 0 -11 11q0 1 3 10q-5 10 -5 25q0 25 16.5 68t37.5 43q7 0 11.5 -6.5t4.5 -13.5q0 -11 -6 -35t-11.5 -42.5t-5.5 -19.5z" />
    <glyph glyph-name="s" unicode="s" horiz-adv-x="230" 
d="M254 162q0 -24 -17 -46.5t-43.5 -45.5t-35.5 -36q-34 -45 -84 -45q-23 0 -49 12t-26 32q0 15 13 15q1 0 20.5 -8t34.5 -8q28 0 49 11.5t21 36.5q0 7 -3 15.5t-6.5 15t-11 15.5t-12.5 14.5t-15.5 14.5t-14.5 12.5t-14.5 12t-11.5 9.5q-29 -58 -40 -58t-11 15q0 4 28 69
q-8 15 -8 35q0 22 14.5 51.5t34.5 29.5q17 0 17 -25q0 -33 -19 -79q1 -1 23.5 -21.5t31 -29.5t24 -28t21.5 -35t5 -31q32 27 63 80q6 10 12 10q10 0 10 -10z" />
    <glyph glyph-name="t" unicode="t" horiz-adv-x="205" 
d="M228 149q0 -5 -3 -10q-24 -42 -65 -78.5t-81 -36.5q-92 0 -92 173q0 59 11 120h-11.5t-17 1t-16 2.5t-13.5 5t-5 9.5q0 15 29 17t41 -1q6 24 15.5 49t28.5 51t39 26q36 0 36 -80q0 -27 -4 -47q58 -3 72 -5q12 -2 12 -13q0 -14 -14 -14h-78q-7 -21 -17.5 -45t-18.5 -39.5
t-22.5 -42.5t-21.5 -40q-2 -6 -2 -8q0 -25 17.5 -51.5t41.5 -26.5q28 0 55 25.5t45 50.5t26 25q13 0 13 -17zM89 391q0 30 -8 41q-23 -22 -41 -80l43 -1q6 19 6 40zM73 317h-42q-11 -57 -11 -93q0 -19 1 -28q27 48 52 121z" />
    <glyph glyph-name="u" unicode="u" horiz-adv-x="365" 
d="M389 146q0 -2 -2 -8q-17 -38 -58.5 -80t-76.5 -42q-26 0 -49.5 17t-33.5 42q-75 -70 -119 -70q-34 0 -49 26t-15 63q0 35 15.5 90.5t39.5 55.5q18 0 18 -18q0 -11 -20 -45q-6 -10 -11.5 -37.5t-5.5 -42.5q0 -22 9 -39.5t29 -17.5q25 0 53.5 23.5t47.5 50.5q0 31 12 71.5
t35 40.5q20 0 20 -28q0 -21 -14.5 -51t-14.5 -36q0 -19 18 -38t37 -19q22 0 43 16.5t33 36t25 36t21 16.5q13 0 13 -13z" />
    <glyph glyph-name="v" unicode="v" horiz-adv-x="299" 
d="M322 149q0 -23 -32.5 -44.5t-59.5 -21.5q-29 0 -57 18q-12 -39 -42 -68t-67 -29q-41 0 -60 29.5t-19 72.5q0 35 18.5 93t44.5 58q7 0 12 -5.5t5 -11.5q0 -2 -10 -23.5t-20 -53t-10 -55.5q0 -26 12 -49t35 -23q22 0 47.5 32t25.5 55q0 5 -9 28t-9 40q0 49 27 49
q34 0 34 -64q0 -5 -2.5 -17t-1.5 -18l1 -3q23 -21 49 -21q20 0 35.5 12.5t24.5 24.5t14 12q14 0 14 -17z" />
    <glyph glyph-name="w" unicode="w" horiz-adv-x="465" 
d="M490 149q0 -3 -2 -7q-14 -33 -52 -55.5t-75 -22.5q-21 0 -45 8q-38 -69 -98 -69q-23 0 -39 10t-23.5 21.5t-18.5 35.5l-9.5 -9.5t-10.5 -10t-10.5 -9t-11.5 -9.5t-11 -8.5t-12.5 -8t-12.5 -5.5t-13.5 -4t-13.5 -1q-57 0 -57 60q0 40 22.5 109.5t52.5 69.5q9 0 16 -5.5
t7 -14.5l-15 -28q-14 -28 -28 -64.5t-14 -57.5q0 -35 21 -35q24 0 58 36.5t36 61.5q0 1 1 13t2 18t3.5 18.5t5.5 19.5t7 15t10 11.5t14 3.5q17 0 17 -26q0 -16 -10.5 -47t-10.5 -48q0 -26 15 -51t40 -25q19 0 36.5 16t28.5 36q-14 17 -14 48q0 23 12 54.5t30 31.5
q22 0 22 -47q0 -30 -9 -71q17 -9 36 -9q25 0 45 10t29.5 22.5t19 22.5t15.5 10q5 0 9.5 -4.5t4.5 -9.5z" />
    <glyph glyph-name="x" unicode="x" horiz-adv-x="335" 
d="M359 144q0 -6 -3 -10q-25 -55 -74.5 -96t-104.5 -41q-45 0 -99 42q-8 -8 -37.5 -49.5t-56.5 -77t-33 -35.5q-7 0 -12.5 5.5t-5.5 13.5q0 5 27.5 40t58.5 74.5t38 51.5q-6 12 -20 32t-19 28q-15 -15 -24 -15q-10 0 -10 12q0 7 4.5 19.5t5.5 17.5q-18 25 -18 48q0 12 7 22
t19 10q14 0 21 -12.5t11 -34t6 -25.5q15 -33 43 -68q14 22 29 47.5t32 56.5t27 48v1q9 12 22 12q12 0 12 -12q0 -11 -21 -48t-48 -79t-32 -52q5 -16 32 -27t48 -11q37 0 66.5 20t44 44t28 44t21.5 20q15 0 15 -16z" />
    <glyph glyph-name="y" unicode="y" horiz-adv-x="343" 
d="M363 152q0 -19 -29.5 -47t-74 -60t-50.5 -37q42 -126 42 -204q0 -139 -148 -139q-63 0 -107.5 28t-44.5 87q0 38 20 74t59 69t65 51t68 44q-1 6 -10 42q-68 -59 -122 -59q-27 0 -45 16.5t-18 43.5q0 33 27.5 99t54.5 66q14 0 14 -13q0 -14 -13 -21q-46 -70 -46 -119
q0 -36 39 -36q28 0 57 19t47 45q-1 7 -1 21q0 32 12.5 76t36.5 44q18 0 18 -36q0 -24 -13 -62t-13 -46q0 -5 11 -57q99 57 136 116q7 11 15 11q13 0 13 -16zM217 -207q0 71 -43 196q-70 -38 -127 -93t-57 -115q0 -25 11.5 -42.5t31 -26t40 -12.5t43.5 -4q52 0 76.5 22.5
t24.5 74.5z" />
    <glyph glyph-name="z" unicode="z" horiz-adv-x="335" 
d="M358 55q0 -10 -13 -17q-11 -6 -35 -16.5t-36 -17.5q-3 -101 -114 -207q-45 -42 -102.5 -76t-103.5 -34q-20 0 -32.5 12t-12.5 32q0 107 319 288q-7 44 -49 44q-18 0 -38 -5q-79 -62 -105 -62q-15 0 -15 17t23 32.5t54.5 30t40.5 21.5q56 47 56 90q0 20 -16 32.5t-36 12.5
q-24 0 -47 -15t-36 -33.5t-26 -33.5t-21 -15q-12 0 -12 14q0 7 3 13q19 41 60.5 74.5t83.5 33.5q33 0 60 -24t27 -57q0 -41 -44 -89q29 -1 51 -17t27 -44q62 31 74 31q6 0 10.5 -4.5t4.5 -10.5zM230 -17q-42 -20 -104.5 -61t-121 -97t-58.5 -93q0 -9 4 -11t14 -2
q35 0 88.5 33.5t87.5 67.5q86 84 90 163z" />
    <glyph glyph-name="braceleft" unicode="{" horiz-adv-x="269" 
d="M141 501v-93v-17v-18t-0.5 -16t-2 -16.5t-4 -15t-6 -15.5t-9 -13t-12.5 -13q13 -13 21 -36t10.5 -56t3 -56t-0.5 -60t-1 -45q0 -3 -0.5 -19t0 -24.5t1.5 -23.5t4.5 -24t8.5 -19t14 -14.5t21 -4.5q4 0 11.5 1t10.5 1q4 0 6 -1.5t2.5 -4.5l1 -6t0 -7t-0.5 -5q0 -9 -33 -9
q-24 0 -40.5 10t-24.5 23t-12 37t-4.5 38t-0.5 41v10q0 19 1.5 58.5t1.5 59.5q0 35 -1.5 52t-12.5 39t-34 39q-5 5 -5 6q0 3 10 10t22.5 20.5t16.5 30.5q4 15 4 47q0 20 -1.5 58t-1.5 58v10q0 26 0.5 40.5t4.5 38t12 36t24.5 22.5t40.5 10h10.5h8.5t5.5 -0.5t4.5 -2
t2.5 -4.5t1.5 -7v-11q0 -4 -2.5 -6t-6.5 -2t-7.5 0.5t-8 1t-6.5 0.5q-12 0 -21 -5t-14 -15t-8.5 -20t-4.5 -25t-1 -24.5t0.5 -24.5t0.5 -19z" />
    <glyph glyph-name="bar" unicode="|" horiz-adv-x="238" 
d="M121 750v-1000h-34v1000h34z" />
    <glyph glyph-name="braceright" unicode="}" horiz-adv-x="269" 
d="M87 408v93q0 4 0.5 19t0.5 24.5t-1 24.5t-4.5 25t-8.5 20t-14 15t-21 5q-4 0 -11.5 -1t-10.5 -1q-4 0 -6 1.5t-2.5 4.5l-1 6t0 7t0.5 5q0 9 33 9q24 0 40.5 -10t24.5 -22.5t12 -36t4.5 -37.5t0.5 -41v-10q0 -20 -1.5 -58t-1.5 -58q0 -42 8 -60.5t40 -39.5q5 -5 5 -7
t-5 -7q-24 -20 -34.5 -40.5t-12 -36t-1.5 -53.5q0 -20 1.5 -59.5t1.5 -58.5v-10q0 -27 -0.5 -41.5t-4.5 -38t-12 -36.5t-24.5 -23t-40.5 -10q-27 0 -29 3q-4 4 -4 22q0 4 2.5 6t6.5 2t7.5 -0.5t8 -1t6.5 -0.5q12 0 21 4.5t14 14.5t8.5 19t4.5 24t1.5 23.5t0 24.5t-0.5 19
q0 14 -0.5 42t-0.5 43q0 133 34 168q-8 7 -14 14t-9.5 17t-6 15.5t-3.5 19t-1 17.5v21v20z" />
    <glyph glyph-name="asciitilde" unicode="~" 
d="M346 484q0 -19 -30.5 -40t-57.5 -21q-24 0 -56 26q-32 22 -38 22q-20 0 -47 -22t-37 -22q-13 0 -13 13q0 12 35.5 36t59.5 24q26 0 56 -24q28 -24 40 -24q20 0 42 22.5t32 22.5q14 0 14 -13z" />
    <glyph glyph-name="exclamdown" unicode="&#xa1;" horiz-adv-x="234" 
d="M144 241q0 -11 -8.5 -21.5t-19.5 -10.5q-12 0 -29 19.5t-17 32.5q0 11 10 20t21 9q16 0 29.5 -16.5t13.5 -32.5zM126 146q0 -40 -1 -95t-4 -135.5t-11 -138.5t-19 -67q-4 -4 -11 -4q-8 0 -15.5 4.5t-7.5 12.5q0 4 4 8q6 6 10.5 28.5t7 57.5t4.5 71.5t2 82.5t0.5 76.5
t0 67t-0.5 42.5q0 18 17 18q11 0 17.5 -9t6.5 -20z" />
    <glyph glyph-name="cent" unicode="&#xa2;" horiz-adv-x="335" 
d="M172 407h-2q-4 -23 -9 -68t-8 -67q27 1 72 11.5t54 23.5q1 1 5 8t7.5 9.5t9.5 2.5q9 0 14.5 -10t5.5 -19q0 -7 -7.5 -14t-22 -12.5t-28.5 -10.5t-34.5 -9t-31.5 -6.5t-29 -5.5l-17 -3q-4 -13 -4 -86q0 -1 4 -5.5t4 -10.5q0 -11 -9.5 -20t-19.5 -9q-20 0 -20 22
q0 21 3.5 60.5t4.5 50.5q-39 7 -67 27.5t-28 55.5q0 42 33.5 70.5t80.5 44.5l3 1v72q0 8 8 15.5t16 7.5q16 0 16 -28q0 -31 -3 -61q30 1 50 -17.5t20 -48.5q0 -35 -28 -35q-9 0 -15.5 7.5t-6.5 16.5q0 3 2.5 10t2.5 11q0 6 -10 13t-16 6zM118 276q7 41 13 125
q-30 -7 -53.5 -25.5t-23.5 -45.5q0 -24 19.5 -37.5t44.5 -16.5z" />
    <glyph glyph-name="sterling" unicode="&#xa3;" horiz-adv-x="598" 
d="M584 43q0 -8 -9 -17q-53 -54 -147 -54q-77 0 -201 44q-37 -57 -96 -57q-41 0 -83.5 28t-42.5 67q0 25 21 40t46 15q13 0 32.5 -5.5t34.5 -11t38 -15t31 -12.5q9 25 16 52t15 70.5t10 53.5q-88 0 -88 28q0 8 5.5 14t13.5 6q3 0 23.5 -6.5t36.5 -6.5q10 0 14 1q2 6 5 17.5
t4 13.5q11 39 25.5 74t37.5 74.5t56.5 63t71.5 23.5q24 0 60 -19t36 -40q0 -7 -5 -12t-12 -5q-6 0 -25.5 17.5t-42.5 17.5q-27 0 -52 -17t-42.5 -41.5t-33.5 -57t-25 -58.5t-15 -51q110 10 132 10q52 0 52 -26q0 -22 -16 -22q-3 0 -7 2q-21 7 -54 7q-21 0 -60.5 -3t-55.5 -3
q-30 -138 -47 -190q122 -42 190 -42q70 0 126 39q7 6 15 6q4 0 8 -3.5t4 -8.5zM45 52q0 -21 30 -40.5t53 -19.5q41 0 63 38q-100 40 -122 40q-9 0 -16.5 -5t-7.5 -13z" />
    <glyph glyph-name="currency" unicode="&#xa4;" horiz-adv-x="350" 
d="M31 246q0 52 30 84l-49 43l22 22l46 -46q30 29 85 29t85 -29l46 46l22 -22l-49 -43q30 -30 30 -84q0 -52 -30 -84l49 -43l-22 -22l-46 46q-30 -29 -85 -29t-85 29l-46 -46l-22 22l49 43q-30 30 -30 84zM268 246q0 44 -29.5 74t-73.5 30t-73.5 -30t-29.5 -74t29.5 -74
t73.5 -30t73.5 30t29.5 74z" />
    <glyph glyph-name="yen" unicode="&#xa5;" horiz-adv-x="569" 
d="M605 51q0 -22 -16 -22q-3 0 -7 2q-21 7 -54 7q-27 0 -54 -3l-11 -15l1 -20q70 5 84 5q52 0 52 -26q0 -22 -16 -22q-3 0 -7 2q-21 7 -54 7q-9 0 -18.5 -0.5t-21.5 -1.5t-19 -1v-13q2 -272 -94 -272q-34 0 -51.5 27t-17.5 63q0 74 76 192q-97 0 -97 27q0 7 6.5 13t14.5 6
q1 0 21.5 -6t36.5 -6q29 0 43 1l24 32v6q-20 -1 -60 -1q-81 0 -81 27q0 7 6.5 13t14.5 6q1 0 21.5 -6t36.5 -6q21 0 59 2q-1 11 -6.5 79.5t-6.5 105.5q-54 -68 -131 -121.5t-148 -53.5q-55 0 -87 32t-32 88q0 76 44 174.5t99 168.5q9 12 22 12q18 0 18 -19t-14 -42t-32 -22
q-42 -60 -72.5 -129.5t-30.5 -127.5q0 -46 25.5 -73.5t70.5 -27.5q71 0 145.5 61.5t116.5 133.5q7 10 8 25q7 87 45 150q9 14 21 14q21 0 21 -25q0 -56 -34 -127q-1 -3 -4.5 -9.5t-6 -12t-3.5 -9.5q-2 -7 -2 -49q0 -17 11 -193q2 2 9 10t12.5 14.5t14 16t16 16.5l15 14
t14 10.5t10.5 3.5q7 0 14 -4.5t7 -10.5q0 -11 -3 -15t-11.5 -6.5t-13.5 -6.5q-9 -6 -38 -38q32 2 47 2q52 0 52 -26zM430 -95q0 10 -0.5 28.5t-0.5 27.5l-10 -1q-82 -114 -82 -192q0 -22 8.5 -41.5t27.5 -19.5q57 0 57 198z" />
    <glyph glyph-name="brokenbar" unicode="&#xa6;" horiz-adv-x="238" 
d="M87 175h34v-350h-34v350zM87 675h34v-350h-34v350z" />
    <glyph glyph-name="section" unicode="&#xa7;" horiz-adv-x="391" 
d="M338 143q0 -61 -85 -109q39 -37 39 -81q0 -47 -36.5 -74.5t-88.5 -27.5q-47 0 -82 30t-35 77h30q5 -38 28 -60.5t60 -22.5q35 0 62.5 19t27.5 53q0 22 -8 40t-28.5 35.5t-33 26t-43.5 27.5q-38 23 -58 37.5t-39 42t-19 58.5q0 36 23.5 66.5t58.5 45.5q-35 32 -35 73
q0 42 35.5 71.5t78.5 29.5q52 0 86.5 -30.5t32.5 -81.5h-29q0 36 -23.5 62t-65.5 26q-31 0 -56 -23t-25 -54q0 -16 7 -30t26 -29.5t29 -22t40 -24.5q9 -5 13 -8q35 -22 55.5 -38t39 -44t18.5 -60zM302 139q0 56 -67 101q-17 11 -55 33.5t-53 32.5q-62 -34 -62 -91
q0 -47 68 -94q11 -7 50.5 -31.5t53.5 -36.5q65 38 65 86z" />
    <glyph glyph-name="dieresis" unicode="&#xa8;" horiz-adv-x="250" 
d="M221 353q0 -11 -15 -22t-27 -11q-26 0 -26 20q0 10 13 21.5t23 11.5q32 0 32 -20zM107 354q0 -12 -16 -24t-29 -12q-18 0 -18 17q0 15 14 27.5t29 12.5q7 0 13.5 -6.5t6.5 -14.5z" />
    <glyph glyph-name="copyright" unicode="&#xa9;" horiz-adv-x="671" 
d="M574 239q0 -108 -76.5 -184.5t-184.5 -76.5t-184.5 76.5t-76.5 184.5t76.5 184.5t184.5 76.5t184.5 -76.5t76.5 -184.5zM553 239q0 100 -70.5 170t-169.5 70q-100 0 -170 -70t-70 -170t70 -170t170 -70q99 0 169.5 70t70.5 170zM427 296q-2 -1 -6 -1h-4q-8 32 -36.5 56
t-61.5 24q-49 0 -75.5 -42t-26.5 -94q0 -51 24 -87t73 -36q26 0 51 10t39 20l15 9q3 0 5 -5q0 -6 -5 -9q-51 -46 -114 -46q-58 0 -96.5 41.5t-38.5 99.5q0 64 40 108.5t103 44.5q18 0 46 -7.5t33 -7.5q16 0 18 12h10q1 -15 3.5 -45t3.5 -45z" />
    <glyph glyph-name="ordfeminine" unicode="&#xaa;" horiz-adv-x="293" 
d="M288 316q0 -18 -24 -18q-20 1 -39 17t-28 48q-55 -74 -116 -65q-33 4 -52 30t-14 58q3 26 26 61t55 64.5t68.5 41.5t67.5 -9q15 -10 15 -25t-9 -19q10 -12 3 -34q-11 -37 -11 -42q-4 -92 36 -88q9 1 15.5 -5t6.5 -15zM218 503q-14 14 -29 16q-35 5 -83.5 -44t-53.5 -89
q-3 -21 7.5 -36t31.5 -18q34 -5 65.5 27.5t36.5 69.5q1 7 1.5 18.5t2 20.5t5.5 19q5 11 16 16z" />
    <glyph glyph-name="guillemotleft" unicode="&#xab;" horiz-adv-x="343" 
d="M272 255q0 -15 -89 -116l24 -34q24 -34 40 -59t16 -31q0 -13 -12 -13q-13 0 -63 62t-50 77q0 9 9 20q20 24 61 66t51 42q13 0 13 -14zM155 254q0 -6 -12.5 -23.5t-26.5 -33.5t-31 -35.5t-19 -22.5l24 -34q24 -34 40 -59t16 -31q0 -13 -12 -13q-14 0 -63.5 62t-49.5 77
q0 12 8 20q18 22 60.5 65t52.5 43q13 0 13 -15z" />
    <glyph glyph-name="logicalnot" unicode="&#xac;" 
d="M45 264h295v-160h-36v127h-259v33z" />
    <glyph glyph-name="registered" unicode="&#xae;" horiz-adv-x="515" 
d="M415 317q0 -75 -54 -128.5t-129 -53.5t-129 53.5t-54 128.5q0 76 53.5 129.5t129.5 53.5t129.5 -53.5t53.5 -129.5zM395 317q0 66 -48.5 114.5t-114.5 48.5t-114.5 -48.5t-48.5 -114.5q0 -65 48.5 -113.5t114.5 -48.5t114.5 48.5t48.5 113.5zM206 314v-54q0 -36 19 -36
v-6h-79v6q25 4 25 45v127q0 10 -4.5 13.5t-16.5 4.5v7h84q79 0 79 -53q0 -20 -15.5 -34t-36.5 -17q54 -84 61 -89q2 -2 10 -4v-6h-44l-64 96h-18zM206 398v-72h32q17 0 28.5 11t11.5 29q0 44 -48 44q-24 0 -24 -12z" />
    <glyph glyph-name="macron" unicode="&#xaf;" horiz-adv-x="265" 
d="M229 334q0 -16 -27 -16q-16 0 -66 -2t-77 -2q-7 0 -12 5t-5 12q0 18 25 18q23 0 70 1.5t71 1.5q21 0 21 -18z" />
    <glyph glyph-name="macron" unicode="&#x2c9;" horiz-adv-x="265" 
d="M229 334q0 -16 -27 -16q-16 0 -66 -2t-77 -2q-7 0 -12 5t-5 12q0 18 25 18q23 0 70 1.5t71 1.5q21 0 21 -18z" />
    <glyph glyph-name="degree" unicode="&#xb0;" horiz-adv-x="208" 
d="M165 486q0 -27 -18.5 -45t-45.5 -18t-45.5 18t-18.5 45q0 26 19 45.5t45 19.5q27 0 45.5 -19t18.5 -46zM136 487q0 14 -10.5 24t-24.5 10q-13 0 -23.5 -10.5t-10.5 -23.5q0 -14 10.5 -24.5t23.5 -10.5t24 11t11 24z" />
    <glyph glyph-name="plusminus" unicode="&#xb1;" 
d="M213 347v-114h117v-33h-117v-114h-36v114h-117v33h117v114h36zM330 11h-270v33h270v-33z" />
    <glyph glyph-name="twosuperior" unicode="&#xb2;" horiz-adv-x="274" 
d="M263 340q9 -12 -4 -26q-14 -16 -29 -16q-7 0 -69 11q-59 8 -86 2q-4 -1 -14 -6t-18 -7.5t-15 -2.5q-14 0 -19 11q-3 8 1.5 16t16.5 11q50 14 56 18q33 24 53.5 40.5t40 42t19.5 47.5q0 19 -15.5 31.5t-35.5 12.5q-19 0 -49 -12.5t-39 -26.5q-13 -21 -26 -21
q-11 -1 -15.5 11t2.5 20q20 25 60.5 43t74.5 18q32 0 56 -20t24 -52q0 -40 -29.5 -73.5t-76.5 -67.5q62 -2 99 -10q8 -2 19 7q11 7 18 -1z" />
    <glyph glyph-name="threesuperior" unicode="&#xb3;" horiz-adv-x="291" 
d="M272 400q0 -45 -56.5 -75.5t-109.5 -30.5q-29 0 -58.5 9t-29.5 32q0 16 16 20q20 4 20 -13q0 -7 22.5 -11t34.5 -4q39 2 80.5 23t41.5 46q0 30 -36 34q-46 -27 -81 -27q-19 0 -26 14q-7 18 18 30q36 16 90 14q25 16 25 32q0 24 -59 24q-57 0 -95 -19q-4 -2 -11.5 -13.5
t-19.5 -10.5q-14 1 -15.5 13.5t7.5 21.5q15 18 52 29t82 11q21 0 40.5 -3t38.5 -16t19 -34q0 -24 -28 -46q38 -17 38 -50z" />
    <glyph glyph-name="acute" unicode="&#xb4;" horiz-adv-x="250" 
d="M222 399q0 -13 -10 -20q-3 -2 -28 -19t-45 -28.5t-27 -11.5q-14 0 -14 14q0 12 15 23q2 1 26 18.5t43 30t25 12.5q15 0 15 -19z" />
    <glyph glyph-name="mu" unicode="&#xb5;" 
d="M121 222q0 -11 -20 -45q-6 -10 -11.5 -37.5t-5.5 -42.5q0 -22 9 -39.5t29 -17.5q25 0 53.5 23.5t47.5 50.5q0 31 12 71.5t35 40.5q20 0 20 -28q0 -21 -14.5 -51t-14.5 -36q0 -24 14.5 -45.5t40.5 -21.5q24 0 24 -14t-26 -14q-59 0 -83 59q-75 -70 -119 -70q-19 0 -32 20
v-24q0 -55 -16.5 -106t-45.5 -51q-11 0 -11 19q0 10 10.5 24t12.5 20q19 62 17 165q-2 47 14.5 107.5t41.5 60.5q18 0 18 -18z" />
    <glyph glyph-name="mu" unicode="&#x3bc;" 
d="M121 222q0 -11 -20 -45q-6 -10 -11.5 -37.5t-5.5 -42.5q0 -22 9 -39.5t29 -17.5q25 0 53.5 23.5t47.5 50.5q0 31 12 71.5t35 40.5q20 0 20 -28q0 -21 -14.5 -51t-14.5 -36q0 -24 14.5 -45.5t40.5 -21.5q24 0 24 -14t-26 -14q-59 0 -83 59q-75 -70 -119 -70q-19 0 -32 20
v-24q0 -55 -16.5 -106t-45.5 -51q-11 0 -11 19q0 10 10.5 24t12.5 20q19 62 17 165q-2 47 14.5 107.5t41.5 60.5q18 0 18 -18z" />
    <glyph glyph-name="paragraph" unicode="&#xb6;" horiz-adv-x="411" 
d="M352 465h-35v-578h-35v578h-72v-578h-35v292q-66 4 -105 47t-39 110q0 61 43 112.5t103 51.5h175v-35z" />
    <glyph glyph-name="periodcentered" unicode="&#xb7;" horiz-adv-x="172" 
d="M111 246q0 -18 -21 -34t-39 -16q-12 0 -20 7.5t-8 19.5q0 13 13 30t24 17q6 0 9 -5q7 4 16 4q10 0 18 -6.5t8 -16.5z" />
    <glyph glyph-name="periodcentered" unicode="&#x2219;" horiz-adv-x="172" 
d="M111 246q0 -18 -21 -34t-39 -16q-12 0 -20 7.5t-8 19.5q0 13 13 30t24 17q6 0 9 -5q7 4 16 4q10 0 18 -6.5t8 -16.5z" />
    <glyph glyph-name="cedilla" unicode="&#xb8;" horiz-adv-x="300" 
d="M116 34q0 -4 -12.5 -15.5t-12.5 -24.5q0 -8 5.5 -22.5t5.5 -22.5q0 -14 -14.5 -29.5t-29.5 -15.5q-14 0 -14 12q0 7 10.5 16t10.5 18q0 8 -5 23t-5 23q0 18 13.5 34.5t30.5 16.5t17 -13z" />
    <glyph glyph-name="onesuperior" unicode="&#xb9;" horiz-adv-x="143" 
d="M112 531q0 -30 -7.5 -92t-7.5 -95q0 -18 5 -23q16 -14 -3 -27q-8 -7 -19.5 -2.5t-15.5 21.5q-5 10 -4 41.5t3 50.5t5.5 51t4.5 42q-7 -6 -18 -19t-16 -18q-10 -10 -22 0q-11 9 0 24q53 53 66 64q13 12 24 1q7 -8 5 -19z" />
    <glyph glyph-name="ordmasculine" unicode="&#xba;" horiz-adv-x="329" 
d="M312 416q11 -8 -1 -20q-12 -13 -37 -9q-19 -39 -62.5 -65t-86.5 -26q-46 0 -76 32.5t-30 78.5q0 61 49.5 103.5t110.5 42.5q42 0 52 -15q15 0 22 -4q19 -11 29 -35.5t10 -46.5q0 -17 -5 -35q7 -2 12 1q7 3 13 -2zM255 454q0 16 -10 32t-22 16q-13 0 -13 -20q0 -31 41 -53
q4 16 4 25zM240 399q-66 30 -66 91l3 33q-50 0 -84.5 -32t-34.5 -81q0 -35 21.5 -60t55.5 -25q30 0 59.5 22t45.5 52z" />
    <glyph glyph-name="guillemotright" unicode="&#xbb;" horiz-adv-x="343" 
d="M275 133v-4q-2 -17 -55.5 -72.5t-68.5 -55.5q-12 0 -12 13q0 6 19 30.5t44 54t28 33.5q-79 103 -79 121q0 5 4.5 10t9.5 5q11 0 61 -61t49 -74zM159 134q0 -15 -54.5 -73t-69.5 -58q-11 0 -11 13q0 9 90 118q-2 2 -12.5 17t-20.5 28.5t-21 29.5t-17.5 28t-6.5 17
q0 16 13 16q12 0 23 -17l80 -100q7 -9 7 -19z" />
    <glyph glyph-name="onequarter" unicode="&#xbc;" horiz-adv-x="560" 
d="M112 531q0 -30 -7.5 -92t-7.5 -95q0 -18 5 -23q16 -14 -3 -27q-8 -7 -19.5 -2.5t-15.5 21.5q-5 10 -4 41.5t3 50.5t5.5 51t4.5 42q-7 -6 -18 -19t-16 -18q-10 -10 -22 0q-11 9 0 24q53 53 66 64q13 12 24 1q7 -8 5 -19zM309 109q0 9 3 16q10 23 73 78.5t90 55.5
q22 0 22 -19q0 -34 -5 -134q10 2 14 5q6 4 8 4q14 0 14 -20q0 -13 -18 -15t-18 -5v-84q0 -17 -22 -17q-20 0 -20 17q0 4 2.5 7.5t2.5 6.5q1 11 1 68q-40 -8 -69 -8q-78 0 -78 44zM344 112q0 -19 48 -19q32 0 64 8q4 82 4 111v11q-20 -8 -68 -49t-48 -62zM508 587
q0 -10 -26.5 -46.5t-43.5 -56.5q-19 -24 -94.5 -117.5t-107.5 -135t-84 -115.5t-90 -138q-2 -3 -9 -17t-12 -22t-13.5 -15.5t-16.5 -7.5q-15 0 -15 15q0 6 4 14t12 19.5t9 12.5q103 161 242 337q60 78 118 148q50 62 65 85q2 2 10.5 19t17 26.5t17.5 9.5q6 0 11.5 -4.5
t5.5 -10.5z" />
    <glyph glyph-name="onehalf" unicode="&#xbd;" horiz-adv-x="590" 
d="M531 183q0 -40 -29.5 -73.5t-76.5 -67.5q62 -2 99 -10q8 -2 19 7q11 7 18 -1q9 -12 -4 -26q-14 -16 -29 -16q-7 0 -69 11q-59 8 -86 2q-4 -1 -14 -6t-18 -7.5t-15 -2.5q-14 0 -19 11q-3 8 1.5 16t16.5 11q50 14 56 18q33 24 53.5 40.5t40 42t19.5 47.5q0 19 -15.5 31.5
t-35.5 12.5q-19 0 -49 -12.5t-39 -26.5q-13 -21 -26 -21q-11 -1 -15.5 11t2.5 20q20 25 60.5 43t74.5 18q32 0 56 -20t24 -52zM112 531q0 -30 -7.5 -92t-7.5 -95q0 -18 5 -23q16 -14 -3 -27q-8 -7 -19.5 -2.5t-15.5 21.5q-5 10 -4 41.5t3 50.5t5.5 51t4.5 42q-7 -6 -18 -19
t-16 -18q-10 -10 -22 0q-11 9 0 24q53 53 66 64q13 12 24 1q7 -8 5 -19zM501 587q0 -10 -26.5 -46.5t-43.5 -56.5q-19 -24 -94.5 -117.5t-107.5 -135t-84 -115.5t-90 -138q-2 -3 -9 -17t-12 -22t-13.5 -15.5t-16.5 -7.5q-15 0 -15 15q0 6 4 14t12 19.5t9 12.5
q103 161 242 337q60 78 118 148q50 62 65 85q2 2 10.5 19t17 26.5t17.5 9.5q6 0 11.5 -4.5t5.5 -10.5z" />
    <glyph glyph-name="threequarters" unicode="&#xbe;" horiz-adv-x="630" 
d="M369 109q0 9 3 16q10 23 73 78.5t90 55.5q22 0 22 -19q0 -34 -5 -134q10 2 14 5q6 4 8 4q14 0 14 -20q0 -13 -18 -15t-18 -5v-84q0 -17 -22 -17q-20 0 -20 17q0 4 2.5 7.5t2.5 6.5q1 11 1 68q-40 -8 -69 -8q-78 0 -78 44zM404 112q0 -19 48 -19q32 0 64 8q4 82 4 111v11
q-20 -8 -68 -49t-48 -62zM272 400q0 -45 -56.5 -75.5t-109.5 -30.5q-29 0 -58.5 9t-29.5 32q0 16 16 20q20 4 20 -13q0 -7 22.5 -11t34.5 -4q39 2 80.5 23t41.5 46q0 30 -36 34q-46 -27 -81 -27q-19 0 -26 14q-7 18 18 30q36 16 90 14q25 16 25 32q0 24 -59 24
q-57 0 -95 -19q-4 -2 -11.5 -13.5t-19.5 -10.5q-14 1 -15.5 13.5t7.5 21.5q15 18 52 29t82 11q21 0 40.5 -3t38.5 -16t19 -34q0 -24 -28 -46q38 -17 38 -50zM579 587q0 -10 -26.5 -46.5t-43.5 -56.5q-19 -24 -94.5 -117.5t-107.5 -135t-84 -115.5t-90 -138q-2 -3 -9 -17
t-12 -22t-13.5 -15.5t-16.5 -7.5q-15 0 -15 15q0 6 4 14t12 19.5t9 12.5q103 161 242 337q60 78 118 148q50 62 65 85q2 2 10.5 19t17 26.5t17.5 9.5q6 0 11.5 -4.5t5.5 -10.5z" />
    <glyph glyph-name="questiondown" unicode="&#xbf;" horiz-adv-x="438" 
d="M294 271q0 -19 -13.5 -31t-32.5 -12q-33 0 -33 26q0 18 13.5 30t31.5 12q11 0 22.5 -7.5t11.5 -17.5zM420 -129q0 -38 -64 -68t-131.5 -42.5t-107.5 -12.5q-24 0 -47 3.5t-47 12t-39 27t-15 43.5q0 39 46.5 90t102 90.5t102 80t46.5 60.5q0 5 -15 5q-14 0 -41 -8t-40 -8
q-16 0 -16 17q0 10 6.5 19t16.5 9q3 0 11 -1.5t11 -1.5q9 0 28 4.5t29 4.5q51 0 51 -36q0 -28 -46.5 -70t-101.5 -80t-101.5 -85.5t-46.5 -84.5q0 -24 21 -38.5t43.5 -18.5t47.5 -4q55 0 121.5 19t113.5 48q20 11 20 25q0 24 -36 24q-6 0 -18 -2t-19 -2q-21 0 -21 12
t23.5 16.5t42.5 4.5q25 0 47.5 -14t22.5 -38z" />
    <glyph glyph-name="Agrave" unicode="&#xc0;" horiz-adv-x="767" 
d="M426 791q-9 7 -9 17q0 19 16 19q10 0 54.5 -42t44.5 -52q0 -14 -15 -14q-6 0 -24.5 14.5t-41 35t-25.5 22.5zM689 169h5q16 0 16 -16q0 -13 -14 -21q-1 0 -33.5 -3.5t-69.5 -7t-43 -4.5q69 -66 144 -83l21 -3t21 -4q18 -5 18 -19q0 -16 -16 -16q-65 0 -115 27t-110 81
q-14 13 -26 13q-14 0 -41 -2t-35 -2q-75 -3 -149 -3h-40q-27 -31 -61 -68t-85 -83.5t-69 -46.5q-11 0 -20.5 6.5t-9.5 17.5q0 13 6 17.5t16.5 4.5t14.5 2q26 12 77 60.5t88 89.5h-21q-19 0 -44 1.5t-61 5.5t-60 14t-24 24q0 7 5.5 12.5t13.5 5.5q5 0 11 -3q65 -25 213 -25
q89 105 181 248q-5 50 -5 89q0 20 4.5 49.5t13 63t25.5 57t38 23.5q40 0 40 -70q0 -78 -77 -209q28 -151 94 -242q103 6 163 19zM463 624q-19 0 -30.5 -55t-11.5 -85q0 -28 2 -41q49 92 49 151q0 30 -9 30zM253 140q99 1 224 8q-51 97 -74 196q-62 -95 -150 -204z" />
    <glyph glyph-name="Aacute" unicode="&#xc1;" horiz-adv-x="767" 
d="M439 716q-14 0 -14 14q0 12 15 23q2 1 26 18.5t43 30t25 12.5q15 0 15 -19q0 -13 -10 -20q-3 -2 -28 -19t-45 -28.5t-27 -11.5zM689 169h5q16 0 16 -16q0 -13 -14 -21q-1 0 -33.5 -3.5t-69.5 -7t-43 -4.5q69 -66 144 -83l21 -3t21 -4q18 -5 18 -19q0 -16 -16 -16
q-65 0 -115 27t-110 81q-14 13 -26 13q-14 0 -41 -2t-35 -2q-75 -3 -149 -3h-40q-27 -31 -61 -68t-85 -83.5t-69 -46.5q-11 0 -20.5 6.5t-9.5 17.5q0 13 6 17.5t16.5 4.5t14.5 2q26 12 77 60.5t88 89.5h-21q-19 0 -44 1.5t-61 5.5t-60 14t-24 24q0 7 5.5 12.5t13.5 5.5
q5 0 11 -3q65 -25 213 -25q89 105 181 248q-5 50 -5 89q0 20 4.5 49.5t13 63t25.5 57t38 23.5q40 0 40 -70q0 -78 -77 -209q28 -151 94 -242q103 6 163 19zM463 624q-19 0 -30.5 -55t-11.5 -85q0 -28 2 -41q49 92 49 151q0 30 -9 30zM253 140q99 1 224 8q-51 97 -74 196
q-62 -95 -150 -204z" />
    <glyph glyph-name="Acircumflex" unicode="&#xc2;" horiz-adv-x="767" 
d="M387 698q-12 0 -12 11t47.5 44.5t59.5 33.5q13 0 54 -35.5t41 -47.5q0 -13 -13 -13q-6 0 -23 12t-37 28t-24 19q-2 -1 -26 -16.5t-42 -25.5t-25 -10zM689 169h5q16 0 16 -16q0 -13 -14 -21q-1 0 -33.5 -3.5t-69.5 -7t-43 -4.5q69 -66 144 -83l21 -3t21 -4q18 -5 18 -19
q0 -16 -16 -16q-65 0 -115 27t-110 81q-14 13 -26 13q-14 0 -41 -2t-35 -2q-75 -3 -149 -3h-40q-27 -31 -61 -68t-85 -83.5t-69 -46.5q-11 0 -20.5 6.5t-9.5 17.5q0 13 6 17.5t16.5 4.5t14.5 2q26 12 77 60.5t88 89.5h-21q-19 0 -44 1.5t-61 5.5t-60 14t-24 24q0 7 5.5 12.5
t13.5 5.5q5 0 11 -3q65 -25 213 -25q89 105 181 248q-5 50 -5 89q0 20 4.5 49.5t13 63t25.5 57t38 23.5q40 0 40 -70q0 -78 -77 -209q28 -151 94 -242q103 6 163 19zM463 624q-19 0 -30.5 -55t-11.5 -85q0 -28 2 -41q49 92 49 151q0 30 -9 30zM253 140q99 1 224 8
q-51 97 -74 196q-62 -95 -150 -204z" />
    <glyph glyph-name="Atilde" unicode="&#xc3;" horiz-adv-x="767" 
d="M399 697q-15 0 -15 16q0 17 21 35t38 18q15 0 31 -17t20 -19q6 0 18 17t22 17q16 0 16 -16q0 -18 -19 -36t-37 -18q-15 0 -31 17t-20 19q-8 -1 -21.5 -17t-22.5 -16zM689 169h5q16 0 16 -16q0 -13 -14 -21q-1 0 -33.5 -3.5t-69.5 -7t-43 -4.5q69 -66 144 -83l21 -3t21 -4
q18 -5 18 -19q0 -16 -16 -16q-65 0 -115 27t-110 81q-14 13 -26 13q-14 0 -41 -2t-35 -2q-75 -3 -149 -3h-40q-27 -31 -61 -68t-85 -83.5t-69 -46.5q-11 0 -20.5 6.5t-9.5 17.5q0 13 6 17.5t16.5 4.5t14.5 2q26 12 77 60.5t88 89.5h-21q-19 0 -44 1.5t-61 5.5t-60 14t-24 24
q0 7 5.5 12.5t13.5 5.5q5 0 11 -3q65 -25 213 -25q89 105 181 248q-5 50 -5 89q0 20 4.5 49.5t13 63t25.5 57t38 23.5q40 0 40 -70q0 -78 -77 -209q28 -151 94 -242q103 6 163 19zM463 624q-19 0 -30.5 -55t-11.5 -85q0 -28 2 -41q49 92 49 151q0 30 -9 30zM253 140
q99 1 224 8q-51 97 -74 196q-62 -95 -150 -204z" />
    <glyph glyph-name="Adieresis" unicode="&#xc4;" horiz-adv-x="767" 
d="M413 716q-18 0 -18 17q0 15 14 27.5t29 12.5q7 0 13.5 -6.5t6.5 -14.5q0 -12 -16 -24t-29 -12zM530 718q-26 0 -26 20q0 10 13 21.5t23 11.5q32 0 32 -20q0 -11 -15 -22t-27 -11zM689 169h5q16 0 16 -16q0 -13 -14 -21q-1 0 -33.5 -3.5t-69.5 -7t-43 -4.5q69 -66 144 -83
l21 -3t21 -4q18 -5 18 -19q0 -16 -16 -16q-65 0 -115 27t-110 81q-14 13 -26 13q-14 0 -41 -2t-35 -2q-75 -3 -149 -3h-40q-27 -31 -61 -68t-85 -83.5t-69 -46.5q-11 0 -20.5 6.5t-9.5 17.5q0 13 6 17.5t16.5 4.5t14.5 2q26 12 77 60.5t88 89.5h-21q-19 0 -44 1.5t-61 5.5
t-60 14t-24 24q0 7 5.5 12.5t13.5 5.5q5 0 11 -3q65 -25 213 -25q89 105 181 248q-5 50 -5 89q0 20 4.5 49.5t13 63t25.5 57t38 23.5q40 0 40 -70q0 -78 -77 -209q28 -151 94 -242q103 6 163 19zM463 624q-19 0 -30.5 -55t-11.5 -85q0 -28 2 -41q49 92 49 151q0 30 -9 30z
M253 140q99 1 224 8q-51 97 -74 196q-62 -95 -150 -204z" />
    <glyph glyph-name="Aring" unicode="&#xc5;" horiz-adv-x="767" 
d="M479 696q-26 0 -45 19t-19 45t19 45t45 19t45 -19t19 -45t-19 -45t-45 -19zM479 794q-13 0 -23.5 -10t-10.5 -24t10.5 -24t23.5 -10t23.5 10t10.5 24t-10.5 24t-23.5 10zM689 169h5q16 0 16 -16q0 -13 -14 -21q-1 0 -33.5 -3.5t-69.5 -7t-43 -4.5q69 -66 144 -83l21 -3
t21 -4q18 -5 18 -19q0 -16 -16 -16q-65 0 -115 27t-110 81q-14 13 -26 13q-14 0 -41 -2t-35 -2q-75 -3 -149 -3h-40q-27 -31 -61 -68t-85 -83.5t-69 -46.5q-11 0 -20.5 6.5t-9.5 17.5q0 13 6 17.5t16.5 4.5t14.5 2q26 12 77 60.5t88 89.5h-21q-19 0 -44 1.5t-61 5.5t-60 14
t-24 24q0 7 5.5 12.5t13.5 5.5q5 0 11 -3q65 -25 213 -25q89 105 181 248q-5 50 -5 89q0 20 4.5 49.5t13 63t25.5 57t38 23.5q40 0 40 -70q0 -78 -77 -209q28 -151 94 -242q103 6 163 19zM463 624q-19 0 -30.5 -55t-11.5 -85q0 -28 2 -41q49 92 49 151q0 30 -9 30zM253 140
q99 1 224 8q-51 97 -74 196q-62 -95 -150 -204z" />
    <glyph glyph-name="AE" unicode="&#xc6;" horiz-adv-x="1232" 
d="M503 392v-27q0 -113 12 -202q31 33 81.5 61t78 38t96.5 34q-31 8 -60 18.5t-65 28t-58 43.5t-22 55q0 41 35.5 71.5t90 44.5t101 20t84.5 6q93 0 176 -25.5t127 -86.5q6 -7 6 -16q0 -14 -16.5 -21t-32.5 -7q-26 0 -26 14q0 7 16 14q-11 36 -63 59t-100 29t-93 6
q-148 0 -222 -52q-41 -28 -41 -57q0 -26 28 -49.5t70.5 -39t75.5 -24t60 -13.5q40 8 77 8q79 0 79 -29q0 -10 -9 -16t-20 -6q-13 0 -40 3.5t-41 3.5q-82 0 -186 -42.5t-158 -101.5q65 4 142 22h5q14 0 14 -14q0 -18 -17 -24q-16 -5 -85 -14.5t-73 -11.5q1 -10 9 -27t16 -21
q51 -30 170 -30q179 0 395 84q4 2 8 2q14 0 14 -15q0 -13 -15 -19q-79 -38 -200.5 -63t-213.5 -25q-85 0 -136 7q0 -2 7 -17.5t7 -17.5q0 -22 -21 -22q-19 0 -48 78q-53 26 -46 82q-51 -3 -101 -3q-75 0 -150 6q-111 -112 -227 -178q-12 -6 -19 -6q-11 0 -19.5 7.5
t-8.5 18.5q0 23 28 23q22 0 87.5 50t108.5 89q-48 6 -115 24.5t-67 39.5q0 10 8.5 17.5t18.5 7.5q5 0 11 -3q87 -43 183 -50q99 95 251 274q1 6 7 48t9.5 57t12.5 47t23.5 54.5t34.5 42.5q16 16 34 16q12 0 21 -8t9 -20q0 -117 -113 -250zM575 624q-26 -6 -45 -65t-25 -103
q73 99 73 156q0 10 -3 12zM339 123q27 0 76 2t65 2q-12 66 -16 222q-117 -135 -199 -223q37 -3 74 -3z" />
    <glyph glyph-name="Ccedilla" unicode="&#xc7;" horiz-adv-x="654" 
d="M634 80q0 -11 -11 -19q-59 -40 -141.5 -63.5t-156.5 -23.5q-52 0 -108 14.5t-107 42.5t-83.5 74.5t-32.5 103.5q0 21 4 38q25 109 108 201.5t187 118.5q23 35 40 35q10 0 14 -8.5t1 -17.5q66 0 107 -31.5t41 -95.5q0 -69 -47 -122t-116 -53q-49 0 -76 31.5t-27 82.5
q0 63 37 135q-89 -33 -159.5 -124t-70.5 -183q0 -67 49 -117t114 -72t129 -22q131 0 279 88q1 0 5 1.5t6 1.5q15 0 15 -16zM456 446q0 44 -29 69t-74 25q-10 0 -30 -2q-57 -83 -57 -144q0 -37 21.5 -62.5t57.5 -25.5q45 0 78 46.5t33 93.5zM289 -42q0 -4 -12.5 -15.5
t-12.5 -24.5q0 -8 5.5 -22.5t5.5 -22.5q0 -14 -14.5 -29.5t-29.5 -15.5q-14 0 -14 12q0 7 10.5 16t10.5 18q0 8 -5 23t-5 23q0 18 13.5 34.5t30.5 16.5t17 -13z" />
    <glyph glyph-name="Egrave" unicode="&#xc8;" horiz-adv-x="687" 
d="M655 80q0 -11 -14 -19q-80 -34 -194 -57.5t-201 -23.5q-27 0 -43.5 0.5t-51.5 3t-58 8.5t-48.5 16t-38.5 28t-13 41q0 34 25 67t64 57t74.5 40.5t68.5 27.5q-31 8 -61 18.5t-67.5 28.5t-60.5 44.5t-23 56.5q0 40 35 70t88.5 44t99 20t83.5 6q93 0 177.5 -25.5
t129.5 -86.5q7 -9 7 -16q0 -14 -15.5 -21.5t-31.5 -7.5q-27 0 -27 15q0 8 14 13q-1 1 -2 2.5t-1 2.5q-31 49 -105 69.5t-151 20.5q-148 0 -218 -52q-40 -27 -40 -55q0 -26 28.5 -50t72 -40t77 -25.5t61.5 -14.5q49 9 83 9q73 0 73 -29q0 -21 -28 -21q-15 0 -46 3t-46 3
q-29 0 -77 -12.5t-97 -33t-84 -52t-35 -65.5q0 -23 26 -39.5t65 -23.5t69.5 -10t54.5 -3q168 0 380 80q6 2 8 2q14 0 14 -14zM413 615q0 -14 -15 -14q-6 0 -24.5 14.5t-41 35t-25.5 22.5q-9 7 -9 17q0 19 16 19q10 0 54.5 -42t44.5 -52z" />
    <glyph glyph-name="Eacute" unicode="&#xc9;" horiz-adv-x="687" 
d="M655 80q0 -11 -14 -19q-80 -34 -194 -57.5t-201 -23.5q-27 0 -43.5 0.5t-51.5 3t-58 8.5t-48.5 16t-38.5 28t-13 41q0 34 25 67t64 57t74.5 40.5t68.5 27.5q-31 8 -61 18.5t-67.5 28.5t-60.5 44.5t-23 56.5q0 40 35 70t88.5 44t99 20t83.5 6q93 0 177.5 -25.5
t129.5 -86.5q7 -9 7 -16q0 -14 -15.5 -21.5t-31.5 -7.5q-27 0 -27 15q0 8 14 13q-1 1 -2 2.5t-1 2.5q-31 49 -105 69.5t-151 20.5q-148 0 -218 -52q-40 -27 -40 -55q0 -26 28.5 -50t72 -40t77 -25.5t61.5 -14.5q49 9 83 9q73 0 73 -29q0 -21 -28 -21q-15 0 -46 3t-46 3
q-29 0 -77 -12.5t-97 -33t-84 -52t-35 -65.5q0 -23 26 -39.5t65 -23.5t69.5 -10t54.5 -3q168 0 380 80q6 2 8 2q14 0 14 -14zM445 701q0 -13 -10 -20q-3 -2 -28 -19t-45 -28.5t-27 -11.5q-14 0 -14 14q0 12 15 23q2 1 26 18.5t43 30t25 12.5q15 0 15 -19z" />
    <glyph glyph-name="Ecircumflex" unicode="&#xca;" horiz-adv-x="687" 
d="M655 80q0 -11 -14 -19q-80 -34 -194 -57.5t-201 -23.5q-27 0 -43.5 0.5t-51.5 3t-58 8.5t-48.5 16t-38.5 28t-13 41q0 34 25 67t64 57t74.5 40.5t68.5 27.5q-31 8 -61 18.5t-67.5 28.5t-60.5 44.5t-23 56.5q0 40 35 70t88.5 44t99 20t83.5 6q93 0 177.5 -25.5
t129.5 -86.5q7 -9 7 -16q0 -14 -15.5 -21.5t-31.5 -7.5q-27 0 -27 15q0 8 14 13q-1 1 -2 2.5t-1 2.5q-31 49 -105 69.5t-151 20.5q-148 0 -218 -52q-40 -27 -40 -55q0 -26 28.5 -50t72 -40t77 -25.5t61.5 -14.5q49 9 83 9q73 0 73 -29q0 -21 -28 -21q-15 0 -46 3t-46 3
q-29 0 -77 -12.5t-97 -33t-84 -52t-35 -65.5q0 -23 26 -39.5t65 -23.5t69.5 -10t54.5 -3q168 0 380 80q6 2 8 2q14 0 14 -14zM476 610q0 -13 -13 -13q-6 0 -23 12t-37 28t-24 19q-2 -1 -26 -16.5t-42 -25.5t-25 -10q-12 0 -12 11t47.5 44.5t59.5 33.5q13 0 54 -35.5
t41 -47.5z" />
    <glyph glyph-name="Edieresis" unicode="&#xcb;" horiz-adv-x="687" 
d="M655 80q0 -11 -14 -19q-80 -34 -194 -57.5t-201 -23.5q-27 0 -43.5 0.5t-51.5 3t-58 8.5t-48.5 16t-38.5 28t-13 41q0 34 25 67t64 57t74.5 40.5t68.5 27.5q-31 8 -61 18.5t-67.5 28.5t-60.5 44.5t-23 56.5q0 40 35 70t88.5 44t99 20t83.5 6q93 0 177.5 -25.5
t129.5 -86.5q7 -9 7 -16q0 -14 -15.5 -21.5t-31.5 -7.5q-27 0 -27 15q0 8 14 13q-1 1 -2 2.5t-1 2.5q-31 49 -105 69.5t-151 20.5q-148 0 -218 -52q-40 -27 -40 -55q0 -26 28.5 -50t72 -40t77 -25.5t61.5 -14.5q49 9 83 9q73 0 73 -29q0 -21 -28 -21q-15 0 -46 3t-46 3
q-29 0 -77 -12.5t-97 -33t-84 -52t-35 -65.5q0 -23 26 -39.5t65 -23.5t69.5 -10t54.5 -3q168 0 380 80q6 2 8 2q14 0 14 -14zM456 658q0 -11 -15 -22t-27 -11q-26 0 -26 20q0 10 13 21.5t23 11.5q32 0 32 -20zM342 659q0 -12 -16 -24t-29 -12q-18 0 -18 17q0 15 14 27.5
t29 12.5q7 0 13.5 -6.5t6.5 -14.5z" />
    <glyph glyph-name="Igrave" unicode="&#xcc;" horiz-adv-x="459" 
d="M440 539q0 -8 -6.5 -14t-14.5 -6q-3 0 -25.5 6.5t-42.5 6.5q-58 0 -77 -5q-38 -156 -38 -342q0 -76 9 -133q44 9 104 9q69 0 69 -23q0 -10 -7.5 -16.5t-17.5 -6.5q-12 0 -36 5t-37 5q-54 0 -64 -8q-2 -10 -3.5 -13.5t-6 -6t-14.5 -2.5q-14 0 -18.5 7.5t-7.5 7.5t-5 -1
q-12 -3 -34.5 -9.5t-36.5 -10t-34 -7t-38 -3.5q-62 0 -62 47q0 29 17 29q8 0 12 -6.5t6.5 -14.5t12.5 -14.5t28 -6.5q21 0 63.5 10t62.5 19l1 5q0 17 -2.5 50t-2.5 50q0 119 39 376q-63 -9 -127 -9q-75 0 -75 30q0 12 14 23t26 11q14 0 14 -12q0 -6 -5 -11q10 -7 46 -7
q56 0 107 9q4 1 11 28.5t25 27.5q15 0 15 -20q0 -6 -2 -16.5t-2 -14.5q39 5 94 5q66 0 66 -28zM329 669q0 -14 -15 -14q-6 0 -24.5 14.5t-41 35t-25.5 22.5q-9 7 -9 17q0 19 16 19q10 0 54.5 -42t44.5 -52z" />
    <glyph glyph-name="Iacute" unicode="&#xcd;" horiz-adv-x="459" 
d="M440 539q0 -8 -6.5 -14t-14.5 -6q-3 0 -25.5 6.5t-42.5 6.5q-58 0 -77 -5q-38 -156 -38 -342q0 -76 9 -133q44 9 104 9q69 0 69 -23q0 -10 -7.5 -16.5t-17.5 -6.5q-12 0 -36 5t-37 5q-54 0 -64 -8q-2 -10 -3.5 -13.5t-6 -6t-14.5 -2.5q-14 0 -18.5 7.5t-7.5 7.5t-5 -1
q-12 -3 -34.5 -9.5t-36.5 -10t-34 -7t-38 -3.5q-62 0 -62 47q0 29 17 29q8 0 12 -6.5t6.5 -14.5t12.5 -14.5t28 -6.5q21 0 63.5 10t62.5 19l1 5q0 17 -2.5 50t-2.5 50q0 119 39 376q-63 -9 -127 -9q-75 0 -75 30q0 12 14 23t26 11q14 0 14 -12q0 -6 -5 -11q10 -7 46 -7
q56 0 107 9q4 1 11 28.5t25 27.5q15 0 15 -20q0 -6 -2 -16.5t-2 -14.5q39 5 94 5q66 0 66 -28zM360 747q0 -13 -10 -20q-3 -2 -28 -19t-45 -28.5t-27 -11.5q-14 0 -14 14q0 12 15 23q2 1 26 18.5t43 30t25 12.5q15 0 15 -19z" />
    <glyph glyph-name="Icircumflex" unicode="&#xce;" horiz-adv-x="459" 
d="M440 539q0 -8 -6.5 -14t-14.5 -6q-3 0 -25.5 6.5t-42.5 6.5q-58 0 -77 -5q-38 -156 -38 -342q0 -76 9 -133q44 9 104 9q69 0 69 -23q0 -10 -7.5 -16.5t-17.5 -6.5q-12 0 -36 5t-37 5q-54 0 -64 -8q-2 -10 -3.5 -13.5t-6 -6t-14.5 -2.5q-14 0 -18.5 7.5t-7.5 7.5t-5 -1
q-12 -3 -34.5 -9.5t-36.5 -10t-34 -7t-38 -3.5q-62 0 -62 47q0 29 17 29q8 0 12 -6.5t6.5 -14.5t12.5 -14.5t28 -6.5q21 0 63.5 10t62.5 19l1 5q0 17 -2.5 50t-2.5 50q0 119 39 376q-63 -9 -127 -9q-75 0 -75 30q0 12 14 23t26 11q14 0 14 -12q0 -6 -5 -11q10 -7 46 -7
q56 0 107 9q4 1 11 28.5t25 27.5q15 0 15 -20q0 -6 -2 -16.5t-2 -14.5q39 5 94 5q66 0 66 -28zM378 663q0 -13 -13 -13q-6 0 -23 12t-37 28t-24 19q-2 -1 -26 -16.5t-42 -25.5t-25 -10q-12 0 -12 11t47.5 44.5t59.5 33.5q13 0 54 -35.5t41 -47.5z" />
    <glyph glyph-name="Idieresis" unicode="&#xcf;" horiz-adv-x="459" 
d="M440 539q0 -8 -6.5 -14t-14.5 -6q-3 0 -25.5 6.5t-42.5 6.5q-58 0 -77 -5q-38 -156 -38 -342q0 -76 9 -133q44 9 104 9q69 0 69 -23q0 -10 -7.5 -16.5t-17.5 -6.5q-12 0 -36 5t-37 5q-54 0 -64 -8q-2 -10 -3.5 -13.5t-6 -6t-14.5 -2.5q-14 0 -18.5 7.5t-7.5 7.5t-5 -1
q-12 -3 -34.5 -9.5t-36.5 -10t-34 -7t-38 -3.5q-62 0 -62 47q0 29 17 29q8 0 12 -6.5t6.5 -14.5t12.5 -14.5t28 -6.5q21 0 63.5 10t62.5 19l1 5q0 17 -2.5 50t-2.5 50q0 119 39 376q-63 -9 -127 -9q-75 0 -75 30q0 12 14 23t26 11q14 0 14 -12q0 -6 -5 -11q10 -7 46 -7
q56 0 107 9q4 1 11 28.5t25 27.5q15 0 15 -20q0 -6 -2 -16.5t-2 -14.5q39 5 94 5q66 0 66 -28zM368 685q0 -11 -15 -22t-27 -11q-26 0 -26 20q0 10 13 21.5t23 11.5q32 0 32 -20zM254 686q0 -12 -16 -24t-29 -12q-18 0 -18 17q0 15 14 27.5t29 12.5q7 0 13.5 -6.5t6.5 -14.5
z" />
    <glyph glyph-name="Eth" unicode="&#xd0;" horiz-adv-x="775" 
d="M165 250h26q8 88 38 195q-28 0 -81.5 -14t-102 -41.5t-48.5 -56.5q0 -20 -11.5 -28.5t-23.5 -1.5t-12 26q0 35 33.5 63.5t85.5 45.5t93 26.5t77 13.5q13 59 41 59q10 0 15 -8.5t5 -18.5q0 -2 -6 -26q46 -1 95.5 -6.5t113.5 -20.5t112.5 -38.5t82.5 -64.5t34 -93
q0 -58 -43 -108q-66 -78 -189.5 -112t-250.5 -34q0 -1 1.5 -8.5t1.5 -11.5q0 -27 -21 -27q-28 0 -33 49q-27 3 -58 12t-61 29t-30 46q0 11 8.5 17t17.5 6q13 0 24.5 -11t19.5 -24.5t26.5 -24.5t45.5 -11q3 0 3 4q0 20 -3.5 59t-3.5 58q0 33 1 50q-12 -1 -36 -1q-59 0 -81 8
q-13 5 -13 22q0 8 5.5 13.5t13.5 3.5q58 -15 88 -15zM660 170q35 44 35 86q0 55 -45 95t-114.5 59t-130.5 27t-115 8h-5.5h-5h-4t-4.5 -1t-4 -3t-3 -5q-27 -50 -37 -184q91 7 116 7q68 0 68 -27q0 -7 -5.5 -12t-11.5 -5q-8 0 -33 5.5t-40 5.5q-16 0 -96 -5q-1 -14 -1 -37
q0 -137 24 -141h28q70 0 137.5 10.5t137.5 40.5t109 76z" />
    <glyph glyph-name="Ntilde" unicode="&#xd1;" horiz-adv-x="675" 
d="M686 17q0 -24 -43 -39.5t-73 -15.5q-60 0 -93 40.5t-33 102.5q0 45 15.5 134t15.5 134q0 61 -41 61q-34 0 -74.5 -34t-75 -85t-59.5 -95t-40 -78q-17 -40 -21 -87q-5 -40 -27 -40q-21 0 -21 37q0 14 3 31q6 35 21.5 95.5t25 111.5t9.5 97q0 57 -23 105.5t-74 48.5
q-35 0 -64 -20.5t-47 -41t-26 -20.5q-6 0 -10.5 5.5t-4.5 11.5t4 14q23 35 68 61t86 26q66 0 98.5 -51.5t32.5 -120.5q0 -20 -2.5 -44t-5 -38.5t-8 -44.5t-7.5 -40q21 37 45 72t58.5 76t74 66.5t74.5 25.5q37 0 55.5 -30t18.5 -70q0 -43 -17 -127.5t-17 -127.5
q0 -51 25.5 -86t74.5 -35q24 0 56 14t33 14q13 0 13 -13zM447 617q0 -19 -20.5 -38t-39.5 -19q-17 0 -34.5 16.5t-22.5 19.5q-9 -1 -24.5 -17t-25.5 -16q-13 0 -13 11q0 16 23.5 37t39.5 21t34 -16.5t24 -19.5q6 0 20 17t25 17q14 0 14 -13z" />
    <glyph glyph-name="Ograve" unicode="&#xd2;" horiz-adv-x="684" 
d="M634 307q0 -136 -110.5 -232t-248.5 -96q-112 0 -196 75.5t-84 186.5q0 83 52 167q-6 4 -6 12q0 9 12 23q49 51 135 82t162 31q114 0 199 -69t85 -180zM599 299q0 63 -33.5 114.5t-91.5 80.5v-2q0 -18 -17 -18q-1 0 -45 20t-87 20q-114 0 -204.5 -76.5t-90.5 -187.5
q0 -106 79 -169.5t187 -63.5q115 0 209 84t94 198zM400 620q0 -14 -15 -14q-6 0 -24.5 14.5t-41 35t-25.5 22.5q-9 7 -9 17q0 19 16 19q10 0 54.5 -42t44.5 -52z" />
    <glyph glyph-name="Oacute" unicode="&#xd3;" horiz-adv-x="684" 
d="M634 307q0 -136 -110.5 -232t-248.5 -96q-112 0 -196 75.5t-84 186.5q0 83 52 167q-6 4 -6 12q0 9 12 23q49 51 135 82t162 31q114 0 199 -69t85 -180zM599 299q0 63 -33.5 114.5t-91.5 80.5v-2q0 -18 -17 -18q-1 0 -45 20t-87 20q-114 0 -204.5 -76.5t-90.5 -187.5
q0 -106 79 -169.5t187 -63.5q115 0 209 84t94 198zM429 688q0 -13 -10 -20q-3 -2 -28 -19t-45 -28.5t-27 -11.5q-14 0 -14 14q0 12 15 23q2 1 26 18.5t43 30t25 12.5q15 0 15 -19z" />
    <glyph glyph-name="Ocircumflex" unicode="&#xd4;" horiz-adv-x="684" 
d="M634 307q0 -136 -110.5 -232t-248.5 -96q-112 0 -196 75.5t-84 186.5q0 83 52 167q-6 4 -6 12q0 9 12 23q49 51 135 82t162 31q114 0 199 -69t85 -180zM599 299q0 63 -33.5 114.5t-91.5 80.5v-2q0 -18 -17 -18q-1 0 -45 20t-87 20q-114 0 -204.5 -76.5t-90.5 -187.5
q0 -106 79 -169.5t187 -63.5q115 0 209 84t94 198zM467 602q0 -13 -13 -13q-6 0 -23 12t-37 28t-24 19q-2 -1 -26 -16.5t-42 -25.5t-25 -10q-12 0 -12 11t47.5 44.5t59.5 33.5q13 0 54 -35.5t41 -47.5z" />
    <glyph glyph-name="Otilde" unicode="&#xd5;" horiz-adv-x="684" 
d="M634 307q0 -136 -110.5 -232t-248.5 -96q-112 0 -196 75.5t-84 186.5q0 83 52 167q-6 4 -6 12q0 9 12 23q49 51 135 82t162 31q114 0 199 -69t85 -180zM599 299q0 63 -33.5 114.5t-91.5 80.5v-2q0 -18 -17 -18q-1 0 -45 20t-87 20q-114 0 -204.5 -76.5t-90.5 -187.5
q0 -106 79 -169.5t187 -63.5q115 0 209 84t94 198zM453 655q0 -19 -20.5 -38t-39.5 -19q-17 0 -34.5 16.5t-22.5 19.5q-9 -1 -24.5 -17t-25.5 -16q-13 0 -13 11q0 16 23.5 37t39.5 21t34 -16.5t24 -19.5q6 0 20 17t25 17q14 0 14 -13z" />
    <glyph glyph-name="Odieresis" unicode="&#xd6;" horiz-adv-x="684" 
d="M634 307q0 -136 -110.5 -232t-248.5 -96q-112 0 -196 75.5t-84 186.5q0 83 52 167q-6 4 -6 12q0 9 12 23q49 51 135 82t162 31q114 0 199 -69t85 -180zM599 299q0 63 -33.5 114.5t-91.5 80.5v-2q0 -18 -17 -18q-1 0 -45 20t-87 20q-114 0 -204.5 -76.5t-90.5 -187.5
q0 -106 79 -169.5t187 -63.5q115 0 209 84t94 198zM431 654q0 -11 -15 -22t-27 -11q-26 0 -26 20q0 10 13 21.5t23 11.5q32 0 32 -20zM317 655q0 -12 -16 -24t-29 -12q-18 0 -18 17q0 15 14 27.5t29 12.5q7 0 13.5 -6.5t6.5 -14.5z" />
    <glyph glyph-name="multiply" unicode="&#xd7;" 
d="M194 171l-108 -108l-26 26l108 108l-108 108l26 26l108 -108l108 108l26 -26l-108 -108l108 -108l-26 -26z" />
    <glyph glyph-name="Oslash" unicode="&#xd8;" horiz-adv-x="684" 
d="M634 307q0 -91 -52.5 -167.5t-135 -118.5t-171.5 -42q-96 0 -174 58l-37.5 -37.5t-46.5 -43.5q-5 -5 -15 -5q-6 0 -13.5 6t-7.5 12q0 10 13 22q34 26 79 70q-78 75 -78 180q0 83 52 167q-6 4 -6 12q0 6 12 23q47 50 134.5 81.5t162.5 31.5q89 0 161 -41q6 6 17 18
t20 21.5t17 17.5q4 4 12 16t15 17h8q24 0 24 -17q0 -11 -80 -97q90 -76 90 -184zM599 299q0 101 -80 165q-52 -53 -184.5 -189t-205.5 -209q73 -49 167 -49q115 0 209 84t94 198zM485 488l-11 5q-4 -1 -12 -1q-23 0 -68.5 11t-68.5 11q-114 0 -204.5 -76.5t-90.5 -187.5
q0 -99 70 -163q34 37 99.5 103t90.5 92q163 173 195 206z" />
    <glyph glyph-name="Ugrave" unicode="&#xd9;" horiz-adv-x="686" 
d="M696 55q0 -25 -42 -46t-71 -21q-38 0 -62.5 15t-35.5 43t-14.5 55.5t-3.5 64.5q-27 -40 -49 -68.5t-57.5 -67t-74 -59.5t-75.5 -21q-45 0 -66.5 30.5t-21.5 77.5q0 39 13 88.5t39.5 122t31.5 87.5q20 62 20 87q0 36 -28 36q-5 0 -23 -5q-54 -20 -103.5 -63t-82.5 -94
q12 0 12 -11q0 -8 -24.5 -22.5t-33.5 -14.5q-17 0 -17 22q0 10 22 43q37 52 101 103.5t120 71.5q30 8 45 8q27 0 41.5 -15.5t14.5 -42.5q0 -14 -4 -33t-12 -44.5t-14 -41.5t-16.5 -44.5t-12.5 -33.5q-47 -139 -47 -196q0 -32 14.5 -55.5t44.5 -23.5q39 0 99.5 57t106.5 125
t54 106q1 7 9.5 47.5t14.5 66t16 56.5t19 44q7 10 17 10q9 0 15 -7t6 -16q0 -13 -2 -28.5t-7 -33.5t-9 -32.5t-12 -36t-12 -32.5t-12.5 -33t-10.5 -27q-10 -27 -10 -87q0 -32 5.5 -60.5t25.5 -54t52 -25.5q22 0 42.5 11t34 22t18.5 11q12 0 12 -15zM439 544q0 -14 -15 -14
q-6 0 -24.5 14.5t-41 35t-25.5 22.5q-9 7 -9 17q0 19 16 19q10 0 54.5 -42t44.5 -52z" />
    <glyph glyph-name="Uacute" unicode="&#xda;" horiz-adv-x="686" 
d="M696 55q0 -25 -42 -46t-71 -21q-38 0 -62.5 15t-35.5 43t-14.5 55.5t-3.5 64.5q-27 -40 -49 -68.5t-57.5 -67t-74 -59.5t-75.5 -21q-45 0 -66.5 30.5t-21.5 77.5q0 39 13 88.5t39.5 122t31.5 87.5q20 62 20 87q0 36 -28 36q-5 0 -23 -5q-54 -20 -103.5 -63t-82.5 -94
q12 0 12 -11q0 -8 -24.5 -22.5t-33.5 -14.5q-17 0 -17 22q0 10 22 43q37 52 101 103.5t120 71.5q30 8 45 8q27 0 41.5 -15.5t14.5 -42.5q0 -14 -4 -33t-12 -44.5t-14 -41.5t-16.5 -44.5t-12.5 -33.5q-47 -139 -47 -196q0 -32 14.5 -55.5t44.5 -23.5q39 0 99.5 57t106.5 125
t54 106q1 7 9.5 47.5t14.5 66t16 56.5t19 44q7 10 17 10q9 0 15 -7t6 -16q0 -13 -2 -28.5t-7 -33.5t-9 -32.5t-12 -36t-12 -32.5t-12.5 -33t-10.5 -27q-10 -27 -10 -87q0 -32 5.5 -60.5t25.5 -54t52 -25.5q22 0 42.5 11t34 22t18.5 11q12 0 12 -15zM491 616q0 -13 -10 -20
q-3 -2 -28 -19t-45 -28.5t-27 -11.5q-14 0 -14 14q0 12 15 23q2 1 26 18.5t43 30t25 12.5q15 0 15 -19z" />
    <glyph glyph-name="Ucircumflex" unicode="&#xdb;" horiz-adv-x="686" 
d="M696 55q0 -25 -42 -46t-71 -21q-38 0 -62.5 15t-35.5 43t-14.5 55.5t-3.5 64.5q-27 -40 -49 -68.5t-57.5 -67t-74 -59.5t-75.5 -21q-45 0 -66.5 30.5t-21.5 77.5q0 39 13 88.5t39.5 122t31.5 87.5q20 62 20 87q0 36 -28 36q-5 0 -23 -5q-54 -20 -103.5 -63t-82.5 -94
q12 0 12 -11q0 -8 -24.5 -22.5t-33.5 -14.5q-17 0 -17 22q0 10 22 43q37 52 101 103.5t120 71.5q30 8 45 8q27 0 41.5 -15.5t14.5 -42.5q0 -14 -4 -33t-12 -44.5t-14 -41.5t-16.5 -44.5t-12.5 -33.5q-47 -139 -47 -196q0 -32 14.5 -55.5t44.5 -23.5q39 0 99.5 57t106.5 125
t54 106q1 7 9.5 47.5t14.5 66t16 56.5t19 44q7 10 17 10q9 0 15 -7t6 -16q0 -13 -2 -28.5t-7 -33.5t-9 -32.5t-12 -36t-12 -32.5t-12.5 -33t-10.5 -27q-10 -27 -10 -87q0 -32 5.5 -60.5t25.5 -54t52 -25.5q22 0 42.5 11t34 22t18.5 11q12 0 12 -15zM513 554q0 -13 -13 -13
q-6 0 -23 12t-37 28t-24 19q-2 -1 -26 -16.5t-42 -25.5t-25 -10q-12 0 -12 11t47.5 44.5t59.5 33.5q13 0 54 -35.5t41 -47.5z" />
    <glyph glyph-name="Udieresis" unicode="&#xdc;" horiz-adv-x="686" 
d="M696 55q0 -25 -42 -46t-71 -21q-38 0 -62.5 15t-35.5 43t-14.5 55.5t-3.5 64.5q-27 -40 -49 -68.5t-57.5 -67t-74 -59.5t-75.5 -21q-45 0 -66.5 30.5t-21.5 77.5q0 39 13 88.5t39.5 122t31.5 87.5q20 62 20 87q0 36 -28 36q-5 0 -23 -5q-54 -20 -103.5 -63t-82.5 -94
q12 0 12 -11q0 -8 -24.5 -22.5t-33.5 -14.5q-17 0 -17 22q0 10 22 43q37 52 101 103.5t120 71.5q30 8 45 8q27 0 41.5 -15.5t14.5 -42.5q0 -14 -4 -33t-12 -44.5t-14 -41.5t-16.5 -44.5t-12.5 -33.5q-47 -139 -47 -196q0 -32 14.5 -55.5t44.5 -23.5q39 0 99.5 57t106.5 125
t54 106q1 7 9.5 47.5t14.5 66t16 56.5t19 44q7 10 17 10q9 0 15 -7t6 -16q0 -13 -2 -28.5t-7 -33.5t-9 -32.5t-12 -36t-12 -32.5t-12.5 -33t-10.5 -27q-10 -27 -10 -87q0 -32 5.5 -60.5t25.5 -54t52 -25.5q22 0 42.5 11t34 22t18.5 11q12 0 12 -15zM502 598q0 -11 -15 -22
t-27 -11q-26 0 -26 20q0 10 13 21.5t23 11.5q32 0 32 -20zM388 599q0 -12 -16 -24t-29 -12q-18 0 -18 17q0 15 14 27.5t29 12.5q7 0 13.5 -6.5t6.5 -14.5z" />
    <glyph glyph-name="Yacute" unicode="&#xdd;" horiz-adv-x="569" 
d="M572 141q0 -4 -0.5 -7t-1.5 -5.5t-1.5 -3.5t-3 -2.5t-3.5 -2t-5 -1.5t-6 -2q-22 -8 -88 -97q1 -23 1 -70q0 -33 -0.5 -44.5t-2 -53t-7.5 -64.5t-16 -52.5t-27.5 -43.5t-40.5 -14q-34 0 -51.5 27t-17.5 63q0 100 125 259q-1 39 -8 114.5t-8 111.5q-54 -68 -131 -121.5
t-148 -53.5q-55 0 -87 32t-32 88q0 74 45 177t98 166q9 12 22 12q18 0 18 -19q0 -18 -14.5 -41.5t-31.5 -22.5q-42 -60 -72.5 -129.5t-30.5 -127.5q0 -46 25.5 -73.5t70.5 -27.5q70 0 145.5 62t116.5 133q7 11 8 25q9 94 45 150q9 14 21 14q21 0 21 -25q0 -55 -32 -124
q-15 -30 -16 -34q-2 -7 -2 -49q0 -17 11 -193q2 2 9 10t12.5 14.5t14 16t16 16.5l15 14t14 10.5t10.5 3.5q7 0 14 -4t7 -11zM430 -95q0 12 -0.5 34.5t-0.5 33.5q-92 -123 -92 -205q0 -22 8.5 -41.5t27.5 -19.5q57 0 57 198zM432 652q0 -13 -10 -20q-3 -2 -28 -19t-45 -28.5
t-27 -11.5q-14 0 -14 14q0 12 15 23q2 1 26 18.5t43 30t25 12.5q15 0 15 -19z" />
    <glyph glyph-name="Thorn" unicode="&#xde;" horiz-adv-x="655" 
d="M632 301q0 -57 -45.5 -104t-107.5 -70.5t-122 -23.5q-100 0 -164 53q-14 11 -14 22q0 23 33 23q5 0 10.5 -3.5t9 -6.5t10 -10t7.5 -8q42 -37 117 -37q81 0 153 47t72 113q0 53 -66 83t-150 30q-134 0 -190 -20q-23 -172 -17 -387q12 1 54.5 -1t72.5 -8q45 -10 42 -30
q-1 -14 -17 -18q-16 -2 -46 10q-78 25 -98 9q-3 -16 -21 -18q-17 -2 -25 15q-3 1 -20 -0.5t-36 -4t-23 -2.5q-39 -3 -72 2q-16 2 -12 24q7 26 34 15q15 -6 63 -3.5t64 8.5q2 241 15 357q-16 -3 -32.5 1.5t-16.5 19.5q0 25 57 44q2 12 5.5 39t7 49t7.5 39q-16 0 -51 -5.5
t-53 -5.5q-14 0 -29 2t-31 10t-16 22q0 18 18 23q19 6 27 -17q2 -6 46 -6q37 0 90 11q6 1 10 27q6 29 26 29q5 0 10 -4t5 -10q0 -7 -2 -19t-2 -18q14 0 42.5 2.5t42.5 2.5q75 0 75 -28q0 -20 -20 -20q-6 0 -11.5 4t-9.5 5q-19 4 -48 4q-60 0 -78 -7q-7 -28 -20 -117
q73 16 180 16q44 0 87.5 -8t83.5 -24.5t64.5 -46.5t24.5 -70z" />
    <glyph glyph-name="germandbls" unicode="&#xdf;" horiz-adv-x="332" 
d="M347 143q0 -21 -44 -60t-72 -53q-4 -2 -6 -4q-36 -30 -75 -30q-28 0 -61.5 15.5t-33.5 40.5q0 16 14 16q2 0 26.5 -14t52.5 -14q66 0 66 40q0 30 -45.5 83.5t-45.5 72.5q0 21 29 61.5t58 88.5t29 89q0 13 -7 23.5t-19 10.5q-11 0 -24 -9q-41 -31 -77 -110.5t-54.5 -157
t-22.5 -134.5q-1 -13 -1 -39q0 -29 2 -50t9 -47.5t24.5 -42t44.5 -17.5q26 -3 26 -14q0 -16 -38 -16q-105 0 -105 164q0 41 4 74q12 110 59.5 243.5t115.5 176.5q24 14 43 14q28 0 43 -20.5t15 -48.5q0 -43 -29.5 -94t-59 -88t-29.5 -46q0 -8 16.5 -28.5t36 -42.5t32.5 -50
t8 -49q32 22 72 70q5 7 12 7q11 0 11 -11z" />
    <glyph glyph-name="agrave" unicode="&#xe0;" horiz-adv-x="338" 
d="M363 156l-1 -5q-5 -48 -42 -91.5t-84 -43.5q-50 0 -73 55q-18 -34 -46.5 -58t-61.5 -24q-34 0 -57 23.5t-23 57.5q0 59 56 129t113 70q17 0 33 -9t16 -25q0 -11 -8 -17q10 -7 10 -18q0 -10 -3.5 -29t-3.5 -28q0 -20 4 -39t16.5 -36.5t32.5 -17.5q31 0 52 30t34 60t24 30
q12 0 12 -14zM165 218q-18 13 -31 13q-37 0 -79.5 -57.5t-42.5 -98.5q0 -22 13 -36t35 -14q36 0 63.5 38t27.5 76q0 5 -1.5 16t-1.5 17q0 36 17 46zM147 322q0 -14 -15 -14q-6 0 -24.5 14.5t-41 35t-25.5 22.5q-9 7 -9 17q0 19 16 19q10 0 54.5 -42t44.5 -52z" />
    <glyph glyph-name="aacute" unicode="&#xe1;" horiz-adv-x="338" 
d="M363 156l-1 -5q-5 -48 -42 -91.5t-84 -43.5q-50 0 -73 55q-18 -34 -46.5 -58t-61.5 -24q-34 0 -57 23.5t-23 57.5q0 59 56 129t113 70q17 0 33 -9t16 -25q0 -11 -8 -17q10 -7 10 -18q0 -10 -3.5 -29t-3.5 -28q0 -20 4 -39t16.5 -36.5t32.5 -17.5q31 0 52 30t34 60t24 30
q12 0 12 -14zM165 218q-18 13 -31 13q-37 0 -79.5 -57.5t-42.5 -98.5q0 -22 13 -36t35 -14q36 0 63.5 38t27.5 76q0 5 -1.5 16t-1.5 17q0 36 17 46zM222 399q0 -13 -10 -20q-3 -2 -28 -19t-45 -28.5t-27 -11.5q-14 0 -14 14q0 12 15 23q2 1 26 18.5t43 30t25 12.5
q15 0 15 -19z" />
    <glyph glyph-name="acircumflex" unicode="&#xe2;" horiz-adv-x="338" 
d="M363 156l-1 -5q-5 -48 -42 -91.5t-84 -43.5q-50 0 -73 55q-18 -34 -46.5 -58t-61.5 -24q-34 0 -57 23.5t-23 57.5q0 59 56 129t113 70q17 0 33 -9t16 -25q0 -11 -8 -17q10 -7 10 -18q0 -10 -3.5 -29t-3.5 -28q0 -20 4 -39t16.5 -36.5t32.5 -17.5q31 0 52 30t34 60t24 30
q12 0 12 -14zM165 218q-18 13 -31 13q-37 0 -79.5 -57.5t-42.5 -98.5q0 -22 13 -36t35 -14q36 0 63.5 38t27.5 76q0 5 -1.5 16t-1.5 17q0 36 17 46zM218 290q0 -13 -13 -13q-6 0 -23 12t-37 28t-24 19q-2 -1 -26 -16.5t-42 -25.5t-25 -10q-12 0 -12 11t47.5 44.5t59.5 33.5
q13 0 54 -35.5t41 -47.5z" />
    <glyph glyph-name="atilde" unicode="&#xe3;" horiz-adv-x="338" 
d="M363 156l-1 -5q-5 -48 -42 -91.5t-84 -43.5q-50 0 -73 55q-18 -34 -46.5 -58t-61.5 -24q-34 0 -57 23.5t-23 57.5q0 59 56 129t113 70q17 0 33 -9t16 -25q0 -11 -8 -17q10 -7 10 -18q0 -10 -3.5 -29t-3.5 -28q0 -20 4 -39t16.5 -36.5t32.5 -17.5q31 0 52 30t34 60t24 30
q12 0 12 -14zM165 218q-18 13 -31 13q-37 0 -79.5 -57.5t-42.5 -98.5q0 -22 13 -36t35 -14q36 0 63.5 38t27.5 76q0 5 -1.5 16t-1.5 17q0 36 17 46zM215 358q0 -18 -19 -36t-37 -18q-15 0 -31 17t-20 19q-8 -1 -21.5 -17t-22.5 -16q-15 0 -15 16q0 17 21 35t38 18
q15 0 31 -17t20 -19q6 0 18 17t22 17q16 0 16 -16z" />
    <glyph glyph-name="adieresis" unicode="&#xe4;" horiz-adv-x="338" 
d="M363 156l-1 -5q-5 -48 -42 -91.5t-84 -43.5q-50 0 -73 55q-18 -34 -46.5 -58t-61.5 -24q-34 0 -57 23.5t-23 57.5q0 59 56 129t113 70q17 0 33 -9t16 -25q0 -11 -8 -17q10 -7 10 -18q0 -10 -3.5 -29t-3.5 -28q0 -20 4 -39t16.5 -36.5t32.5 -17.5q31 0 52 30t34 60t24 30
q12 0 12 -14zM165 218q-18 13 -31 13q-37 0 -79.5 -57.5t-42.5 -98.5q0 -22 13 -36t35 -14q36 0 63.5 38t27.5 76q0 5 -1.5 16t-1.5 17q0 36 17 46zM221 353q0 -11 -15 -22t-27 -11q-26 0 -26 20q0 10 13 21.5t23 11.5q32 0 32 -20zM107 354q0 -12 -16 -24t-29 -12
q-18 0 -18 17q0 15 14 27.5t29 12.5q7 0 13.5 -6.5t6.5 -14.5z" />
    <glyph glyph-name="aring" unicode="&#xe5;" horiz-adv-x="338" 
d="M363 156l-1 -5q-5 -48 -42 -91.5t-84 -43.5q-50 0 -73 55q-18 -34 -46.5 -58t-61.5 -24q-34 0 -57 23.5t-23 57.5q0 59 56 129t113 70q17 0 33 -9t16 -25q0 -11 -8 -17q10 -7 10 -18q0 -10 -3.5 -29t-3.5 -28q0 -20 4 -39t16.5 -36.5t32.5 -17.5q31 0 52 30t34 60t24 30
q12 0 12 -14zM165 218q-18 13 -31 13q-37 0 -79.5 -57.5t-42.5 -98.5q0 -22 13 -36t35 -14q36 0 63.5 38t27.5 76q0 5 -1.5 16t-1.5 17q0 36 17 46zM189 369q0 -26 -19 -45t-45 -19t-45 19t-19 45t19 45t45 19t45 -19t19 -45zM159 369q0 13 -10.5 23.5t-23.5 10.5
t-23.5 -10.5t-10.5 -23.5t10.5 -23.5t23.5 -10.5t23.5 10.5t10.5 23.5z" />
    <glyph glyph-name="ae" unicode="&#xe6;" horiz-adv-x="401" 
d="M412 106q0 -3 -2 -9q-22 -44 -67 -78.5t-90 -34.5q-36 0 -62 22t-35 58q-18 -31 -46 -53t-59 -22q-34 0 -57 23.5t-23 57.5q0 59 56 129t113 70q17 0 33 -9t16 -25q0 -11 -8 -17l8 -9q34 43 75 43q22 0 34 -15.5t12 -38.5q0 -45 -37 -79t-83 -33q11 -61 71 -61
q30 0 56.5 15t40.5 32.5t25.5 32.5t15.5 15q13 0 13 -14zM278 188q0 10 -6 21t-15 11q-29 0 -47 -30.5t-20 -62.5q6 -5 19 -5q24 0 46.5 21t22.5 45zM161 218q-16 13 -31 13q-37 0 -79.5 -57.5t-42.5 -98.5q0 -22 13 -36t35 -14q36 0 63.5 38t27.5 76q0 5 -1.5 16t-1.5 17
q0 36 17 46z" />
    <glyph glyph-name="ccedilla" unicode="&#xe7;" horiz-adv-x="300" 
d="M322 150q0 -6 -2 -9q-21 -52 -79.5 -91t-114.5 -39q-57 0 -95.5 37.5t-38.5 94.5q0 60 44 120t102 60q23 0 42 -19l5 1q14 0 11 -22q6 -16 6 -40q0 -26 -9 -59.5t-28 -33.5q-21 0 -21 50q0 15 6.5 37t6.5 31q-3 8 -12 13.5t-18 5.5q-39 0 -68 -46t-29 -88q0 -48 30 -78.5
t78 -30.5q36 0 68 19t50 41t33 41t20 19q13 0 13 -14zM121 -4q0 -4 -12.5 -15.5t-12.5 -24.5q0 -8 5.5 -22.5t5.5 -22.5q0 -14 -14.5 -29.5t-29.5 -15.5q-14 0 -14 12q0 7 10.5 16t10.5 18q0 8 -5 23t-5 23q0 18 13.5 34.5t30.5 16.5t17 -13z" />
    <glyph glyph-name="egrave" unicode="&#xe8;" horiz-adv-x="230" 
d="M254 152q0 -2 -2 -8q-21 -43 -67 -78t-90 -35q-47 0 -74 34t-27 82q0 52 31.5 101.5t80.5 49.5q22 0 34.5 -14.5t12.5 -37.5q0 -44 -38.5 -80t-82.5 -33q5 -30 22.5 -47.5t46.5 -17.5q36 0 67.5 24.5t50 49t22.5 24.5q13 0 13 -14zM120 234q0 11 -6 22t-16 11
q-28 0 -46 -31.5t-20 -62.5q8 -4 20 -4q24 0 46 20.5t22 44.5zM113 355q0 -14 -15 -14q-6 0 -24.5 14.5t-41 35t-25.5 22.5q-9 7 -9 17q0 19 16 19q10 0 54.5 -42t44.5 -52z" />
    <glyph glyph-name="eacute" unicode="&#xe9;" horiz-adv-x="230" 
d="M254 152q0 -2 -2 -8q-21 -43 -67 -78t-90 -35q-47 0 -74 34t-27 82q0 52 31.5 101.5t80.5 49.5q22 0 34.5 -14.5t12.5 -37.5q0 -44 -38.5 -80t-82.5 -33q5 -30 22.5 -47.5t46.5 -17.5q36 0 67.5 24.5t50 49t22.5 24.5q13 0 13 -14zM120 234q0 11 -6 22t-16 11
q-28 0 -46 -31.5t-20 -62.5q8 -4 20 -4q24 0 46 20.5t22 44.5zM207 422q0 -13 -10 -20q-3 -2 -28 -19t-45 -28.5t-27 -11.5q-14 0 -14 14q0 12 15 23q2 1 26 18.5t43 30t25 12.5q15 0 15 -19z" />
    <glyph glyph-name="ecircumflex" unicode="&#xea;" horiz-adv-x="230" 
d="M254 152q0 -2 -2 -8q-21 -43 -67 -78t-90 -35q-47 0 -74 34t-27 82q0 52 31.5 101.5t80.5 49.5q22 0 34.5 -14.5t12.5 -37.5q0 -44 -38.5 -80t-82.5 -33q5 -30 22.5 -47.5t46.5 -17.5q36 0 67.5 24.5t50 49t22.5 24.5q13 0 13 -14zM120 234q0 11 -6 22t-16 11
q-28 0 -46 -31.5t-20 -62.5q8 -4 20 -4q24 0 46 20.5t22 44.5zM191 315q0 -13 -13 -13q-6 0 -23 12t-37 28t-24 19q-2 -1 -26 -16.5t-42 -25.5t-25 -10q-12 0 -12 11t47.5 44.5t59.5 33.5q13 0 54 -35.5t41 -47.5z" />
    <glyph glyph-name="edieresis" unicode="&#xeb;" horiz-adv-x="230" 
d="M254 152q0 -2 -2 -8q-21 -43 -67 -78t-90 -35q-47 0 -74 34t-27 82q0 52 31.5 101.5t80.5 49.5q22 0 34.5 -14.5t12.5 -37.5q0 -44 -38.5 -80t-82.5 -33q5 -30 22.5 -47.5t46.5 -17.5q36 0 67.5 24.5t50 49t22.5 24.5q13 0 13 -14zM120 234q0 11 -6 22t-16 11
q-28 0 -46 -31.5t-20 -62.5q8 -4 20 -4q24 0 46 20.5t22 44.5zM194 383q0 -11 -15 -22t-27 -11q-26 0 -26 20q0 10 13 21.5t23 11.5q32 0 32 -20zM80 384q0 -12 -16 -24t-29 -12q-18 0 -18 17q0 15 14 27.5t29 12.5q7 0 13.5 -6.5t6.5 -14.5z" />
    <glyph glyph-name="igrave" unicode="&#xec;" horiz-adv-x="169" 
d="M193 152q0 -6 -3 -10q-19 -48 -59 -90t-84 -42q-59 0 -59 85q0 33 7 81.5t20 58.5q7 5 13 5q16 0 16 -18q0 -12 -9.5 -56t-9.5 -68q0 -53 33 -53q43 0 108 110q5 10 14 10q13 0 13 -13zM74 300q0 -14 -15 -14q-6 0 -24.5 14.5t-41 35t-25.5 22.5q-9 7 -9 17q0 19 16 19
q10 0 54.5 -42t44.5 -52z" />
    <glyph glyph-name="iacute" unicode="&#xed;" horiz-adv-x="169" 
d="M193 152q0 -6 -3 -10q-19 -48 -59 -90t-84 -42q-59 0 -59 85q0 33 7 81.5t20 58.5q7 5 13 5q16 0 16 -18q0 -12 -9.5 -56t-9.5 -68q0 -53 33 -53q43 0 108 110q5 10 14 10q13 0 13 -13zM140 372q0 -13 -10 -20q-3 -2 -28 -19t-45 -28.5t-27 -11.5q-14 0 -14 14
q0 12 15 23q2 1 26 18.5t43 30t25 12.5q15 0 15 -19z" />
    <glyph glyph-name="icircumflex" unicode="&#xee;" horiz-adv-x="169" 
d="M193 152q0 -6 -3 -10q-19 -48 -59 -90t-84 -42q-59 0 -59 85q0 33 7 81.5t20 58.5q7 5 13 5q16 0 16 -18q0 -12 -9.5 -56t-9.5 -68q0 -53 33 -53q43 0 108 110q5 10 14 10q13 0 13 -13zM143 277q0 -13 -13 -13q-6 0 -23 12t-37 28t-24 19q-2 -1 -26 -16.5t-42 -25.5
t-25 -10q-12 0 -12 11t47.5 44.5t59.5 33.5q13 0 54 -35.5t41 -47.5z" />
    <glyph glyph-name="idieresis" unicode="&#xef;" horiz-adv-x="169" 
d="M193 152q0 -6 -3 -10q-19 -48 -59 -90t-84 -42q-59 0 -59 85q0 33 7 81.5t20 58.5q7 5 13 5q16 0 16 -18q0 -12 -9.5 -56t-9.5 -68q0 -53 33 -53q43 0 108 110q5 10 14 10q13 0 13 -13zM130 335q0 -11 -15 -22t-27 -11q-26 0 -26 20q0 10 13 21.5t23 11.5q32 0 32 -20z
M16 336q0 -12 -16 -24t-29 -12q-18 0 -18 17q0 15 14 27.5t29 12.5q7 0 13.5 -6.5t6.5 -14.5z" />
    <glyph glyph-name="eth" unicode="&#xf0;" horiz-adv-x="435" 
d="M396 140q0 -76 -66.5 -117.5t-143.5 -41.5q-69 0 -134 37.5t-65 104.5q0 37 23 63.5t58.5 39.5t68.5 19t64 6q57 0 145 -31q-17 77 -84 139q-20 -17 -55.5 -40t-52.5 -27q-10 -2 -18.5 6t-8.5 17t9 14q62 21 101 50q-48 33 -90 33q-44 0 -55 -14q-16 -22 -34 -22
q-8 0 -13.5 7t-5.5 14q0 25 34.5 40t63.5 15q66 0 130 -50q42 35 66 46q29 14 38 -6q8 -16 -8 -24q-2 0 -3 -1q-28 -9 -68 -36q49 -46 76.5 -110t27.5 -131zM358 148q0 18 -2 25q-5 17 -69 30.5t-91 13.5q-58 0 -113.5 -25.5t-55.5 -72.5t51.5 -76t107.5 -29q70 0 121 36
t51 98z" />
    <glyph glyph-name="ntilde" unicode="&#xf1;" horiz-adv-x="333" 
d="M356 148q0 -7 -2 -10q-17 -49 -56.5 -98.5t-80.5 -49.5q-35 0 -52 27.5t-17.5 60t-3.5 60t-15 27.5q-22 0 -53 -36.5t-56.5 -72.5t-32.5 -36t-12.5 7t-5.5 14q0 5 5 12q17 24 17 93q0 14 -3 41t-3 40q0 11 6.5 19.5t17.5 8.5q30 0 24 -130q66 77 108 77q27 0 37 -27
t8 -59t6.5 -59t33.5 -27q27 0 50.5 33.5t40 66.5t26.5 33q13 0 13 -15zM206 315q0 -18 -19 -36t-37 -18q-15 0 -31 17t-20 19q-8 -1 -21.5 -17t-22.5 -16q-15 0 -15 16q0 17 21 35t38 18q15 0 31 -17t20 -19q6 0 18 17t22 17q16 0 16 -16z" />
    <glyph glyph-name="ograve" unicode="&#xf2;" horiz-adv-x="339" 
d="M179 318q0 -14 -15 -14q-6 0 -24.5 14.5t-41 35t-25.5 22.5q-9 7 -9 17q0 19 16 19q10 0 54.5 -42t44.5 -52zM360 149l-2 -6q-10 -30 -47 -45.5t-71 -11.5q-19 -39 -62.5 -65.5t-87.5 -26.5q-46 0 -76 32.5t-30 78.5q0 60 49.5 103t110.5 43q47 0 52 -15q3 -1 9 -1
q24 -1 38 -29.5t14 -55.5q0 -16 -5 -33q3 -1 10 -1q23 0 41.5 11t29.5 22.5t15 11.5q12 0 12 -12zM220 152q0 14 -9.5 31t-22.5 17t-13 -20q0 -32 41 -53q4 16 4 25zM25 108q0 -34 21 -59.5t54 -25.5q30 0 60 22.5t45 51.5q-66 37 -66 91q0 17 8 33h-4q-50 1 -84 -31
t-34 -82z" />
    <glyph glyph-name="oacute" unicode="&#xf3;" horiz-adv-x="339" 
d="M258 383q0 -13 -10 -20q-3 -2 -28 -19t-45 -28.5t-27 -11.5q-14 0 -14 14q0 12 15 23q2 1 26 18.5t43 30t25 12.5q15 0 15 -19zM360 149l-2 -6q-10 -30 -47 -45.5t-71 -11.5q-19 -39 -62.5 -65.5t-87.5 -26.5q-46 0 -76 32.5t-30 78.5q0 60 49.5 103t110.5 43
q47 0 52 -15q3 -1 9 -1q24 -1 38 -29.5t14 -55.5q0 -16 -5 -33q3 -1 10 -1q23 0 41.5 11t29.5 22.5t15 11.5q12 0 12 -12zM220 152q0 14 -9.5 31t-22.5 17t-13 -20q0 -32 41 -53q4 16 4 25zM25 108q0 -34 21 -59.5t54 -25.5q30 0 60 22.5t45 51.5q-66 37 -66 91q0 17 8 33
h-4q-50 1 -84 -31t-34 -82z" />
    <glyph glyph-name="ocircumflex" unicode="&#xf4;" horiz-adv-x="339" 
d="M242 276q0 -13 -13 -13q-6 0 -23 12t-37 28t-24 19q-2 -1 -26 -16.5t-42 -25.5t-25 -10q-12 0 -12 11t47.5 44.5t59.5 33.5q13 0 54 -35.5t41 -47.5zM360 149l-2 -6q-10 -30 -47 -45.5t-71 -11.5q-19 -39 -62.5 -65.5t-87.5 -26.5q-46 0 -76 32.5t-30 78.5q0 60 49.5 103
t110.5 43q47 0 52 -15q3 -1 9 -1q24 -1 38 -29.5t14 -55.5q0 -16 -5 -33q3 -1 10 -1q23 0 41.5 11t29.5 22.5t15 11.5q12 0 12 -12zM220 152q0 14 -9.5 31t-22.5 17t-13 -20q0 -32 41 -53q4 16 4 25zM25 108q0 -34 21 -59.5t54 -25.5q30 0 60 22.5t45 51.5q-66 37 -66 91
q0 17 8 33h-4q-50 1 -84 -31t-34 -82z" />
    <glyph glyph-name="otilde" unicode="&#xf5;" horiz-adv-x="339" 
d="M231 345q0 -18 -19 -36t-37 -18q-15 0 -31 17t-20 19q-8 -1 -21.5 -17t-22.5 -16q-15 0 -15 16q0 17 21 35t38 18q15 0 31 -17t20 -19q6 0 18 17t22 17q16 0 16 -16zM360 149l-2 -6q-10 -30 -47 -45.5t-71 -11.5q-19 -39 -62.5 -65.5t-87.5 -26.5q-46 0 -76 32.5
t-30 78.5q0 60 49.5 103t110.5 43q47 0 52 -15q3 -1 9 -1q24 -1 38 -29.5t14 -55.5q0 -16 -5 -33q3 -1 10 -1q23 0 41.5 11t29.5 22.5t15 11.5q12 0 12 -12zM220 152q0 14 -9.5 31t-22.5 17t-13 -20q0 -32 41 -53q4 16 4 25zM25 108q0 -34 21 -59.5t54 -25.5q30 0 60 22.5
t45 51.5q-66 37 -66 91q0 17 8 33h-4q-50 1 -84 -31t-34 -82z" />
    <glyph glyph-name="odieresis" unicode="&#xf6;" horiz-adv-x="339" 
d="M232 335q0 -11 -15 -22t-27 -11q-26 0 -26 20q0 10 13 21.5t23 11.5q32 0 32 -20zM118 336q0 -12 -16 -24t-29 -12q-18 0 -18 17q0 15 14 27.5t29 12.5q7 0 13.5 -6.5t6.5 -14.5zM360 149l-2 -6q-10 -30 -47 -45.5t-71 -11.5q-19 -39 -62.5 -65.5t-87.5 -26.5
q-46 0 -76 32.5t-30 78.5q0 60 49.5 103t110.5 43q47 0 52 -15q3 -1 9 -1q24 -1 38 -29.5t14 -55.5q0 -16 -5 -33q3 -1 10 -1q23 0 41.5 11t29.5 22.5t15 11.5q12 0 12 -12zM220 152q0 14 -9.5 31t-22.5 17t-13 -20q0 -32 41 -53q4 16 4 25zM25 108q0 -34 21 -59.5t54 -25.5
q30 0 60 22.5t45 51.5q-66 37 -66 91q0 17 8 33h-4q-50 1 -84 -31t-34 -82z" />
    <glyph glyph-name="divide" unicode="&#xf7;" 
d="M313 182h-276v33h276v-33zM214 93q0 -16 -20 -31t-35 -15q-9 0 -15.5 5.5t-6.5 14.5q0 13 9.5 24.5t21.5 17.5q3 0 8 -5q3 0 9.5 2t10.5 2q18 0 18 -15zM214 334q0 -16 -19.5 -30.5t-35.5 -14.5q-9 0 -15.5 5.5t-6.5 14.5q0 13 9.5 24.5t21.5 17.5q4 0 8 -6q3 0 9.5 2.5
t10.5 2.5q18 0 18 -16z" />
    <glyph glyph-name="oslash" unicode="&#xf8;" horiz-adv-x="339" 
d="M360 150q0 -3 -2 -7q-11 -31 -47.5 -46.5t-70.5 -10.5q-19 -39 -62.5 -65.5t-87.5 -26.5q-23 0 -41 7q-6 -8 -11.5 -17t-12 -22l-9.5 -19q-2 -12 -11.5 -22t-21.5 -10q-15 0 -15 14q0 12 55 92q-39 36 -39 88q0 60 49.5 103t110.5 43q28 0 46 -6q22 30 28 43q1 1 2.5 5.5
t2.5 6.5l3 6t3.5 6t4 5t5 4.5t5.5 2.5t7 1q18 0 18 -16q0 -8 -49 -79q37 -23 37 -80q0 -16 -5 -33q3 -1 10 -1q23 0 41.5 11t29.5 22.5t15 11.5q12 0 12 -11zM220 152q0 32 -26 46q-4 -6 -18 -25q5 -29 40 -46q4 16 4 25zM147 221h-2q-51 0 -85.5 -31.5t-34.5 -81.5
q0 -36 21 -61q18 25 53 71.5t41 55.5q0 2 -0.5 7t-0.5 7q0 20 8 33zM205 97q-36 19 -52 46q-11 -15 -39.5 -53t-43.5 -59q14 -8 30 -8q30 0 60 22.5t45 51.5z" />
    <glyph glyph-name="ugrave" unicode="&#xf9;" horiz-adv-x="365" 
d="M389 146q0 -2 -2 -8q-17 -38 -58.5 -80t-76.5 -42q-26 0 -49.5 17t-33.5 42q-75 -70 -119 -70q-34 0 -49 26t-15 63q0 35 15.5 90.5t39.5 55.5q18 0 18 -18q0 -11 -20 -45q-6 -10 -11.5 -37.5t-5.5 -42.5q0 -22 9 -39.5t29 -17.5q25 0 53.5 23.5t47.5 50.5q0 31 12 71.5
t35 40.5q20 0 20 -28q0 -21 -14.5 -51t-14.5 -36q0 -19 18 -38t37 -19q22 0 43 16.5t33 36t25 36t21 16.5q13 0 13 -13zM160 277q0 -14 -15 -14q-6 0 -24.5 14.5t-41 35t-25.5 22.5q-9 7 -9 17q0 19 16 19q10 0 54.5 -42t44.5 -52z" />
    <glyph glyph-name="uacute" unicode="&#xfa;" horiz-adv-x="365" 
d="M389 146q0 -2 -2 -8q-17 -38 -58.5 -80t-76.5 -42q-26 0 -49.5 17t-33.5 42q-75 -70 -119 -70q-34 0 -49 26t-15 63q0 35 15.5 90.5t39.5 55.5q18 0 18 -18q0 -11 -20 -45q-6 -10 -11.5 -37.5t-5.5 -42.5q0 -22 9 -39.5t29 -17.5q25 0 53.5 23.5t47.5 50.5q0 31 12 71.5
t35 40.5q20 0 20 -28q0 -21 -14.5 -51t-14.5 -36q0 -19 18 -38t37 -19q22 0 43 16.5t33 36t25 36t21 16.5q13 0 13 -13zM224 356q0 -13 -10 -20q-3 -2 -28 -19t-45 -28.5t-27 -11.5q-14 0 -14 14q0 12 15 23q2 1 26 18.5t43 30t25 12.5q15 0 15 -19z" />
    <glyph glyph-name="ucircumflex" unicode="&#xfb;" horiz-adv-x="365" 
d="M389 146q0 -2 -2 -8q-17 -38 -58.5 -80t-76.5 -42q-26 0 -49.5 17t-33.5 42q-75 -70 -119 -70q-34 0 -49 26t-15 63q0 35 15.5 90.5t39.5 55.5q18 0 18 -18q0 -11 -20 -45q-6 -10 -11.5 -37.5t-5.5 -42.5q0 -22 9 -39.5t29 -17.5q25 0 53.5 23.5t47.5 50.5q0 31 12 71.5
t35 40.5q20 0 20 -28q0 -21 -14.5 -51t-14.5 -36q0 -19 18 -38t37 -19q22 0 43 16.5t33 36t25 36t21 16.5q13 0 13 -13zM218 271q0 -13 -13 -13q-6 0 -23 12t-37 28t-24 19q-2 -1 -26 -16.5t-42 -25.5t-25 -10q-12 0 -12 11t47.5 44.5t59.5 33.5q13 0 54 -35.5t41 -47.5z
" />
    <glyph glyph-name="udieresis" unicode="&#xfc;" horiz-adv-x="365" 
d="M389 146q0 -2 -2 -8q-17 -38 -58.5 -80t-76.5 -42q-26 0 -49.5 17t-33.5 42q-75 -70 -119 -70q-34 0 -49 26t-15 63q0 35 15.5 90.5t39.5 55.5q18 0 18 -18q0 -11 -20 -45q-6 -10 -11.5 -37.5t-5.5 -42.5q0 -22 9 -39.5t29 -17.5q25 0 53.5 23.5t47.5 50.5q0 31 12 71.5
t35 40.5q20 0 20 -28q0 -21 -14.5 -51t-14.5 -36q0 -19 18 -38t37 -19q22 0 43 16.5t33 36t25 36t21 16.5q13 0 13 -13zM228 317q0 -11 -15 -22t-27 -11q-26 0 -26 20q0 10 13 21.5t23 11.5q32 0 32 -20zM114 318q0 -12 -16 -24t-29 -12q-18 0 -18 17q0 15 14 27.5t29 12.5
q7 0 13.5 -6.5t6.5 -14.5z" />
    <glyph glyph-name="yacute" unicode="&#xfd;" horiz-adv-x="343" 
d="M363 152q0 -19 -29.5 -47t-74 -60t-50.5 -37q42 -126 42 -204q0 -139 -148 -139q-63 0 -107.5 28t-44.5 87q0 38 20 74t59 69t65 51t68 44q-1 6 -10 42q-68 -59 -122 -59q-27 0 -45 16.5t-18 43.5q0 33 27.5 99t54.5 66q14 0 14 -13q0 -14 -13 -21q-46 -70 -46 -119
q0 -36 39 -36q28 0 57 19t47 45q-1 7 -1 21q0 32 12.5 76t36.5 44q18 0 18 -36q0 -24 -13 -62t-13 -46q0 -5 11 -57q99 57 136 116q7 11 15 11q13 0 13 -16zM217 -207q0 71 -43 196q-70 -38 -127 -93t-57 -115q0 -25 11.5 -42.5t31 -26t40 -12.5t43.5 -4q52 0 76.5 22.5
t24.5 74.5zM224 359q0 -13 -10 -20q-3 -2 -28 -19t-45 -28.5t-27 -11.5q-14 0 -14 14q0 12 15 23q2 1 26 18.5t43 30t25 12.5q15 0 15 -19z" />
    <glyph glyph-name="thorn" unicode="&#xfe;" horiz-adv-x="330" 
d="M350 149q0 -12 -24 -36q-35 -36 -84 -56.5t-100 -20.5q-53 0 -106 24q3 -161 -1 -234t-20 -91q-17 -18 -34 -1q-52 48 -52 172q0 127 64 243q4 124 28.5 243.5t78.5 169.5q13 13 33 13q41 0 41 -71q0 -121 -95 -260q43 24 82 24q52 0 77 -35.5t25 -86.5q0 -30 -21 -56
q29 16 84 67q8 6 16 4t8 -12zM140 490q0 49 -12 49q-6 0 -19 -16q-28 -38 -49 -123t-30 -167q110 135 110 257zM224 136q0 39 -19.5 66.5t-55.5 27.5q-31 0 -71.5 -24t-42.5 -54q-4 -43 6 -51q32 -29 83 -29q41 0 70.5 15.5t29.5 48.5zM6 73q-2 16 -9 16q-14 -17 -24.5 -75
t-10.5 -91q0 -28 9 -81.5t25 -57.5v1q3 13 5 28.5t3 28.5t1.5 41t0.5 46v65v79z" />
    <glyph glyph-name="ydieresis" unicode="&#xff;" horiz-adv-x="343" 
d="M363 152q0 -19 -29.5 -47t-74 -60t-50.5 -37q42 -126 42 -204q0 -139 -148 -139q-63 0 -107.5 28t-44.5 87q0 38 20 74t59 69t65 51t68 44q-1 6 -10 42q-68 -59 -122 -59q-27 0 -45 16.5t-18 43.5q0 33 27.5 99t54.5 66q14 0 14 -13q0 -14 -13 -21q-46 -70 -46 -119
q0 -36 39 -36q28 0 57 19t47 45q-1 7 -1 21q0 32 12.5 76t36.5 44q18 0 18 -36q0 -24 -13 -62t-13 -46q0 -5 11 -57q99 57 136 116q7 11 15 11q13 0 13 -16zM217 -207q0 71 -43 196q-70 -38 -127 -93t-57 -115q0 -25 11.5 -42.5t31 -26t40 -12.5t43.5 -4q52 0 76.5 22.5
t24.5 74.5zM207 321q0 -11 -15 -22t-27 -11q-26 0 -26 20q0 10 13 21.5t23 11.5q32 0 32 -20zM93 322q0 -12 -16 -24t-29 -12q-18 0 -18 17q0 15 14 27.5t29 12.5q7 0 13.5 -6.5t6.5 -14.5z" />
    <glyph glyph-name="dotlessi" unicode="&#x131;" horiz-adv-x="169" 
d="M193 152q0 -6 -3 -10q-19 -48 -59 -90t-84 -42q-59 0 -59 85q0 33 7 81.5t20 58.5q7 5 13 5q16 0 16 -18q0 -12 -9.5 -56t-9.5 -68q0 -53 33 -53q43 0 108 110q5 10 14 10q13 0 13 -13z" />
    <glyph glyph-name="Lslash" unicode="&#x141;" horiz-adv-x="768" 
d="M748 32q0 -7 -6 -13q-55 -65 -190 -65q-90 0 -205 33q-45 -84 -133 -84q-38 0 -88.5 21.5t-90.5 61t-40 81.5q0 27 17.5 41t43.5 14q21 0 53.5 -9t57.5 -18.5t64 -25.5t51 -21q34 -13 43 -13q19 59 38 189q-62 -38 -94 -43q-15 -2 -23 16t8 22q65 15 115 46q6 39 14.5 75
t26 85t39.5 84t57 60t77 25q50 0 91 -39t41 -89q0 -19 -10.5 -25.5t-21.5 1.5t-11 24q0 37 -26.5 65t-62.5 28q-39 0 -71.5 -31.5t-52.5 -81t-30 -85t-16 -69.5q112 75 140 74q18 -1 20.5 -16.5t-14.5 -19.5q-16 -4 -32 -10t-34 -15.5t-28 -16t-31.5 -20.5t-28.5 -18
q-30 -168 -45 -226q23 -6 53.5 -15t45.5 -12.5t41 -7t58 -3.5q92 0 161 54q8 6 15 6q14 0 14 -14zM313 -1q-217 79 -261 79q-11 0 -16 -7t-1 -17q22 -46 79.5 -84.5t106.5 -38.5q33 0 53.5 17t38.5 51z" />
    <glyph glyph-name="lslash" unicode="&#x142;" horiz-adv-x="199" 
d="M230 142q-4 -42 -48 -86.5t-88 -43.5q-33 1 -53 23.5t-24.5 58.5t-3.5 65t5 60q-41 -28 -60 -34q-16 -4 -25 13q-9 16 6 22q62 25 87 44q36 170 97 244q24 30 54 5q20 -16 16 -33q-1 -4 -4 -6q-10 -9 -31 9q-11 11 -35 -28q-29 -47 -52 -156q76 67 104 70q19 1 23 -14
t-13 -21q-9 -3 -18 -7.5t-15.5 -8t-16.5 -10t-14.5 -10t-15 -11.5t-14 -11t-15.5 -12.5t-14 -11.5q-5 -27 -7 -55.5t-1 -65t14.5 -60t37.5 -24.5q17 0 33.5 12t25 23t23 36t17.5 29q5 6 11 8.5t10 -1t4 -12.5z" />
    <glyph glyph-name="OE" unicode="&#x152;" horiz-adv-x="1173" 
d="M1105 94q14 0 14 -13t-15 -20q-13 -5 -37.5 -13t-31.5 -11q-174 -57 -325 -57q-199 0 -239 55q-89 -56 -196 -56q-111 0 -195.5 76t-84.5 186q0 83 52 167q-6 4 -6 12q0 6 12 23q46 51 133.5 82t163.5 31q105 0 183 -56q89 57 250 57q93 0 177.5 -26t129.5 -86
q7 -9 7 -16q0 -14 -16 -21.5t-32 -7.5q-26 0 -26 15q0 9 14 13q-12 35 -64 58t-100.5 29.5t-92.5 6.5q-138 0 -217 -49q64 -59 70 -153q49 -20 126 -34q49 9 82 9q73 0 73 -29q0 -21 -28 -21q-16 0 -46 3t-46 3q-88 0 -180 -48q-23 -73 -103 -140q20 -26 85.5 -38.5
t119.5 -12.5q169 0 381 80q6 2 8 2zM474 494v-2q0 -18 -17 -18q-4 0 -22.5 10t-48.5 20t-61 10q-114 0 -204.5 -76.5t-90.5 -187.5q0 -106 79 -169.5t187 -63.5q92 0 162 48q0 1 -0.5 5t-0.5 6q0 44 39.5 83t89.5 67q11 33 13 72q-123 50 -123 119q0 31 28 59zM633 285
q-1 -19 -6 -39q29 13 62 24q-11 2 -32 8t-24 7zM519 417q0 -41 77 -80q-12 66 -62 113q-15 -15 -15 -33zM560 171q-48 -37 -56 -69q36 34 56 69z" />
    <glyph glyph-name="oe" unicode="&#x153;" horiz-adv-x="472" 
d="M486 106q0 -2 -2 -8q-20 -43 -66 -78t-91 -35q-37 0 -63.5 23.5t-34.5 59.5q-23 -32 -62 -53t-77 -21q-46 0 -76 32.5t-30 78.5q0 61 49 103.5t111 42.5q33 0 63.5 -16.5t41.5 -44.5q35 63 89 63q22 0 34.5 -16t12.5 -39q0 -45 -37.5 -78t-83.5 -34q6 -29 23 -46.5
t45 -17.5q35 0 67 25t51 49.5t23 24.5q13 0 13 -15zM351 193q0 28 -19 28q-30 0 -50 -33t-18 -65v-5q33 -2 60 20t27 55zM220 152q0 14 -9.5 31t-22.5 17t-13 -20q0 -32 41 -53q4 16 4 25zM204 97q-65 35 -65 91q0 20 8 33q-53 0 -87.5 -30.5t-34.5 -82.5q0 -34 20 -59
t53 -25q30 0 60.5 22t45.5 51z" />
    <glyph glyph-name="Scaron" unicode="&#x160;" horiz-adv-x="655" 
d="M619 205q0 -28 -20 -53q-65 -82 -188 -135t-233 -53q-76 0 -133 41.5t-57 114.5q0 34 22 34q16 0 16 -30q0 -61 48 -92t113 -31q92 0 201.5 45t168.5 111q17 19 17 36q0 21 -19 36t-39 21.5t-42 9.5q-46 7 -133 11t-157 15t-128 38q-77 35 -77 82q0 39 45.5 69t112 44
t122 20.5t94.5 6.5q134 0 199 -38q49 -30 49 -60q0 -17 -16.5 -33.5t-32.5 -16.5q-8 0 -14 5t-6 13q0 10 10 21t10 13q0 3 -9 12q-26 28 -87.5 40t-116.5 12q-72 0 -151.5 -15.5t-131.5 -45.5q-35 -20 -35 -42q0 -27 48 -51q33 -17 68.5 -28t81 -17t70 -8t82.5 -4.5t73 -3.5
q26 -1 51 -5.5t55.5 -14t49.5 -29t19 -45.5zM426 678q0 -11 -47.5 -44.5t-59.5 -33.5q-13 0 -54 35.5t-41 47.5q0 13 13 13q6 0 23 -12t37 -28t24 -19q2 1 26 16.5t42 25.5t25 10q12 0 12 -11z" />
    <glyph glyph-name="scaron" unicode="&#x161;" horiz-adv-x="230" 
d="M254 162q0 -24 -17 -46.5t-43.5 -45.5t-35.5 -36q-34 -45 -84 -45q-23 0 -49 12t-26 32q0 15 13 15q1 0 20.5 -8t34.5 -8q28 0 49 11.5t21 36.5q0 7 -3 15.5t-6.5 15t-11 15.5t-12.5 14.5t-15.5 14.5t-14.5 12.5t-14.5 12t-11.5 9.5q-29 -58 -40 -58t-11 15q0 4 28 69
q-8 15 -8 35q0 22 14.5 51.5t34.5 29.5q17 0 17 -25q0 -33 -19 -79q1 -1 23.5 -21.5t31 -29.5t24 -28t21.5 -35t5 -31q32 27 63 80q6 10 12 10q10 0 10 -10zM189 449q0 -11 -47.5 -44.5t-59.5 -33.5q-13 0 -54 35.5t-41 47.5q0 13 13 13q6 0 23 -12t37 -28t24 -19
q2 1 26 16.5t42 25.5t25 10q12 0 12 -11z" />
    <glyph glyph-name="Ydieresis" unicode="&#x178;" horiz-adv-x="569" 
d="M572 141q0 -4 -0.5 -7t-1.5 -5.5t-1.5 -3.5t-3 -2.5t-3.5 -2t-5 -1.5t-6 -2q-22 -8 -88 -97q1 -23 1 -70q0 -33 -0.5 -44.5t-2 -53t-7.5 -64.5t-16 -52.5t-27.5 -43.5t-40.5 -14q-34 0 -51.5 27t-17.5 63q0 100 125 259q-1 39 -8 114.5t-8 111.5q-54 -68 -131 -121.5
t-148 -53.5q-55 0 -87 32t-32 88q0 74 45 177t98 166q9 12 22 12q18 0 18 -19q0 -18 -14.5 -41.5t-31.5 -22.5q-42 -60 -72.5 -129.5t-30.5 -127.5q0 -46 25.5 -73.5t70.5 -27.5q70 0 145.5 62t116.5 133q7 11 8 25q9 94 45 150q9 14 21 14q21 0 21 -25q0 -55 -32 -124
q-15 -30 -16 -34q-2 -7 -2 -49q0 -17 11 -193q2 2 9 10t12.5 14.5t14 16t16 16.5l15 14t14 10.5t10.5 3.5q7 0 14 -4t7 -11zM430 -95q0 12 -0.5 34.5t-0.5 33.5q-92 -123 -92 -205q0 -22 8.5 -41.5t27.5 -19.5q57 0 57 198zM424 613q0 -11 -15 -22t-27 -11q-26 0 -26 20
q0 10 13 21.5t23 11.5q32 0 32 -20zM310 614q0 -12 -16 -24t-29 -12q-18 0 -18 17q0 15 14 27.5t29 12.5q7 0 13.5 -6.5t6.5 -14.5z" />
    <glyph glyph-name="Zcaron" unicode="&#x17d;" horiz-adv-x="570" 
d="M234 598q-13 0 -54 35.5t-41 47.5q0 13 13 13q6 0 23 -12t37 -28t24 -19q2 1 26 16.5t42 25.5t25 10q12 0 12 -11t-47.5 -44.5t-59.5 -33.5zM583 99q20 0 20 -18q0 -9 -6.5 -15t-15.5 -6q-54 0 -132 -36q1 -11 1 -28q0 -65 -48.5 -142t-121 -130t-134.5 -53q-32 0 -52 22
t-20 54q0 41 36.5 88t93.5 87.5t105.5 68.5t91.5 49q-8 39 -42 65.5t-78 38.5q-77 -50 -125 -50q-19 0 -33 9t-14 27q0 30 36 45t71 15q30 0 60 -6q50 36 90 89t40 102q0 62 -53 99t-117 37q-73 0 -153 -44.5t-106 -108.5q-5 -12 -5 -23q0 -22 33 -22q14 0 40 7.5t36 7.5
q13 0 13 -11q0 -15 -39 -27t-60 -12q-28 0 -45 15.5t-17 42.5q0 35 27 69q49 62 127.5 100.5t156.5 38.5q74 0 137 -42t63 -112q0 -101 -126 -216q44 -16 78 -46.5t45 -70.5q104 42 142 42zM166 129q28 0 69 26q-3 0 -8 0.5t-8 0.5q-57 0 -67 -25q5 -2 14 -2zM408 -11v17
q-40 -19 -81 -43t-94.5 -60t-87 -77t-33.5 -76q0 -19 11.5 -31.5t30.5 -12.5q75 0 164.5 94.5t89.5 188.5z" />
    <glyph glyph-name="zcaron" unicode="&#x17e;" horiz-adv-x="335" 
d="M358 55q0 -10 -13 -17q-11 -6 -35 -16.5t-36 -17.5q-3 -101 -114 -207q-45 -42 -102.5 -76t-103.5 -34q-20 0 -32.5 12t-12.5 32q0 107 319 288q-7 44 -49 44q-18 0 -38 -5q-79 -62 -105 -62q-15 0 -15 17t23 32.5t54.5 30t40.5 21.5q56 47 56 90q0 20 -16 32.5t-36 12.5
q-24 0 -47 -15t-36 -33.5t-26 -33.5t-21 -15q-12 0 -12 14q0 7 3 13q19 41 60.5 74.5t83.5 33.5q33 0 60 -24t27 -57q0 -41 -44 -89q29 -1 51 -17t27 -44q62 31 74 31q6 0 10.5 -4.5t4.5 -10.5zM230 -17q-42 -20 -104.5 -61t-121 -97t-58.5 -93q0 -9 4 -11t14 -2
q35 0 88.5 33.5t87.5 67.5q86 84 90 163zM256 388q0 -11 -47.5 -44.5t-59.5 -33.5q-13 0 -54 35.5t-41 47.5q0 13 13 13q6 0 23 -12t37 -28t24 -19q2 1 26 16.5t42 25.5t25 10q12 0 12 -11z" />
    <glyph glyph-name="florin" unicode="&#x192;" horiz-adv-x="297" 
d="M296 466q0 -9 -0.5 -13.5t-5 -9t-12.5 -4.5q-16 0 -20.5 35t-25.5 35q-23 0 -51.5 -39.5t-45.5 -75t-29 -67.5h38t53.5 -1t35.5 -5q13 -3 13 -13q0 -14 -14 -14q-23 0 -69 -0.5t-69 -0.5q-41 -114 -41 -234q0 -29 2 -50t9 -47.5t24.5 -42t44.5 -17.5q26 -3 26 -14
q0 -16 -38 -16q-105 0 -105 164q0 111 44 257h-26q-57 0 -57 18q0 4 1.5 7.5t5 5t6.5 3t8.5 1.5h8.5h8h7h48q11 31 25 62t36 69t50 61.5t57 23.5q58 0 58 -78z" />
    <glyph glyph-name="circumflex" unicode="&#x2c6;" horiz-adv-x="250" 
d="M236 313q0 -13 -13 -13q-6 0 -23 12t-37 28t-24 19q-2 -1 -26 -16.5t-42 -25.5t-25 -10q-12 0 -12 11t47.5 44.5t59.5 33.5q13 0 54 -35.5t41 -47.5z" />
    <glyph glyph-name="caron" unicode="&#x2c7;" horiz-adv-x="250" 
d="M236 366q0 -11 -47.5 -44.5t-59.5 -33.5q-13 0 -54 35.5t-41 47.5q0 13 13 13q6 0 23 -12t37 -28t24 -19q2 1 26 16.5t42 25.5t25 10q12 0 12 -11z" />
    <glyph glyph-name="breve" unicode="&#x2d8;" horiz-adv-x="250" 
d="M240 373q0 -35 -34 -58.5t-70 -23.5t-64 23.5t-28 58.5q0 17 13 17q9 0 15.5 -16.5t21 -33t43.5 -16.5q21 0 38 10t25.5 22t16 22t12.5 10q11 0 11 -15z" />
    <glyph glyph-name="dotaccent" unicode="&#x2d9;" horiz-adv-x="139" 
d="M107 338q0 -12 -16 -24t-29 -12q-18 0 -18 17q0 15 14 27.5t29 12.5q7 0 13.5 -6.5t6.5 -14.5z" />
    <glyph glyph-name="ring" unicode="&#x2da;" horiz-adv-x="268" 
d="M196 380q0 -26 -19 -45t-45 -19t-45 19t-19 45t19 45t45 19t45 -19t19 -45zM166 380q0 14 -10 24t-24 10t-24 -10t-10 -24t10 -24t24 -10t24 10t10 24z" />
    <glyph glyph-name="ogonek" unicode="&#x2db;" horiz-adv-x="300" 
d="M195 36q0 -19 -33 -69t-51 -50q-13 0 -13 12q0 6 9 15q11 10 26.5 37t28 48.5t18.5 21.5t10.5 -4.5t4.5 -10.5z" />
    <glyph glyph-name="tilde" unicode="&#x2dc;" horiz-adv-x="250" 
d="M226 357q0 -19 -20.5 -38t-39.5 -19q-17 0 -34.5 16.5t-22.5 19.5q-9 -1 -24.5 -17t-25.5 -16q-13 0 -13 11q0 16 23.5 37t39.5 21t34 -16.5t24 -19.5q6 0 20 17t25 17q14 0 14 -13z" />
    <glyph glyph-name="hungarumlaut" unicode="&#x2dd;" horiz-adv-x="375" 
d="M345 375q0 -13 -10 -20q-3 -2 -28 -19t-45 -28.5t-27 -11.5q-14 0 -14 14q0 12 15 23q2 1 26 18.5t43 30t25 12.5q15 0 15 -19zM222 382q0 -14 -10 -20q-88 -59 -100 -59q-5 0 -9.5 4t-4.5 10q0 13 15 22q85 62 94 62q15 0 15 -19z" />
    <glyph glyph-name="endash" unicode="&#x2013;" horiz-adv-x="443" 
d="M401 156q0 -7 -5 -12t-12 -5q-3 0 -7 2q-28 9 -66 9q-28 0 -84.5 -4t-84.5 -4q-54 0 -80 8q-14 5 -14 22q0 19 16 19q1 0 10 -3q25 -14 81 -14q32 0 94 4.5t93 4.5q59 0 59 -27z" />
    <glyph glyph-name="emdash" unicode="&#x2014;" horiz-adv-x="601" 
d="M553 158q0 -18 -21 -18q-2 0 -4 0.5t-4 0.5q-34 10 -95 10q-40 0 -120 -4t-120 -4q-84 0 -114 8q-17 4 -17 22q0 19 19 19q6 0 12 -3q37 -14 117 -14q46 0 137 4.5t136 4.5q74 0 74 -26z" />
    <glyph glyph-name="quoteleft" unicode="&#x2018;" horiz-adv-x="82" 
d="M49 510q0 -5 -1 -13t-1 -12q0 -2 1 -11.5t0.5 -17t-1.5 -16.5t-5.5 -14.5t-11.5 -5.5q-8 0 -12.5 7t-5.5 19t-0.5 23t2 24t1.5 18t-1.5 14.5t-1.5 14.5q0 19 16 19q21 0 21 -49z" />
    <glyph glyph-name="quoteright" unicode="&#x2019;" horiz-adv-x="82" 
d="M67 542q0 -6 -27 -103q-7 -22 -19 -22q-14 0 -14 18q0 20 24 104q6 19 22 19q14 0 14 -16z" />
    <glyph glyph-name="quotesinglbase" unicode="&#x201a;" horiz-adv-x="115" 
d="M68 65q0 -10 -18 -69.5t-23 -66.5t-12 -7q-14 0 -14 19q0 13 5 34.5t14.5 51t11.5 35.5q5 18 22 18q14 0 14 -15z" />
    <glyph glyph-name="quotedblleft" unicode="&#x201c;" horiz-adv-x="160" 
d="M124 440q0 -20 -16 -20q-8 0 -13 6.5t-6.5 18.5t-1.5 21.5t0.5 23.5t0.5 16q0 5 -2 16.5t-2 17.5q0 19 15 19q24 0 24 -57q0 -5 -2 -15q3 -15 3 -47zM52 510q0 -5 -1 -13t-1 -12q0 -2 1 -11.5t0.5 -17t-1.5 -16.5t-5.5 -14.5t-11.5 -5.5q-8 0 -12.5 7t-5.5 19t-0.5 23
t2 24t1.5 18t-1.5 14.5t-1.5 14.5q0 19 16 19q21 0 21 -49z" />
    <glyph glyph-name="quotedblright" unicode="&#x201d;" horiz-adv-x="160" 
d="M145 542q0 -8 -32 -104q-7 -20 -20 -20q-14 0 -14 16q0 9 5.5 28.5t14 45.5t9.5 31q5 18 23 18q14 0 14 -15zM67 543q0 -7 -5.5 -27.5t-13 -46.5t-8.5 -30q-7 -22 -19 -22q-14 0 -14 18q0 20 24 104q6 19 22 19q14 0 14 -15z" />
    <glyph glyph-name="quotedblbase" unicode="&#x201e;" horiz-adv-x="242" 
d="M169 58q0 -8 -33 -114q-7 -21 -21 -21q-13 0 -13 17q0 21 30 115q5 17 23 17q14 0 14 -14zM94 65q0 -10 -18 -69.5t-23 -66.5t-12 -7q-14 0 -14 19q0 13 5 34.5t14.5 51t11.5 35.5q5 18 22 18q14 0 14 -15z" />
    <glyph glyph-name="dagger" unicode="&#x2020;" horiz-adv-x="362" 
d="M310 280h-134v-388h-34v388h-134v30h134v147h34v-147h134v-30z" />
    <glyph glyph-name="daggerdbl" unicode="&#x2021;" horiz-adv-x="362" 
d="M310 52h-134v-159h-34v159h-134v30h134v187h-134v30h134v158h34v-158h134v-30h-134v-187h134v-30z" />
    <glyph glyph-name="bullet" unicode="&#x2022;" horiz-adv-x="223" 
d="M168 191q0 -25 -20 -47.5t-45 -22.5q-27 0 -48 22.5t-21 49.5q0 23 23 40.5t46 17.5q25 0 45 -18t20 -42z" />
    <glyph glyph-name="ellipsis" unicode="&#x2026;" horiz-adv-x="582" 
d="M529 32q0 -17 -21 -33.5t-39 -16.5q-12 0 -20 7.5t-8 19.5q0 13 13 30t24 17q5 0 10 -5q5 4 16 4q10 0 17.5 -6.5t7.5 -16.5zM327 33q0 -18 -20.5 -34.5t-39.5 -16.5q-12 0 -19.5 7.5t-7.5 19.5q0 13 13 30t24 17q6 0 9 -4q8 3 16 3q10 0 17.5 -6t7.5 -16zM126 32
q0 -17 -21 -33.5t-39 -16.5q-12 0 -20 7.5t-8 19.5q0 13 13 30t24 17q5 0 10 -5q5 4 16 4q10 0 17.5 -6.5t7.5 -16.5z" />
    <glyph glyph-name="perthousand" unicode="&#x2030;" horiz-adv-x="728" 
d="M673 143q0 -49 -40.5 -90.5t-89.5 -41.5q-52 0 -52 53q0 46 37 89.5t82 43.5q27 0 45 -14t18 -40zM465 143q0 -49 -40.5 -90.5t-89.5 -41.5q-52 0 -52 53q0 46 37 89.5t82 43.5q27 0 45 -14t18 -40zM358 408q0 -37 -47.5 -112.5t-95 -151.5t-47.5 -115q0 -14 15 -19.5
t15 -15.5t-8 -17t-18 -7q-20 0 -29.5 17.5t-9.5 39.5q0 41 29 97.5t64 102.5t64 96t29 80q0 14 -6 23.5t-13.5 14t-21 6.5t-22.5 2t-24.5 -0.5t-20.5 -0.5l-27 3q-6 -38 -44 -86.5t-73 -48.5q-36 0 -36 46q0 42 24 83t60 68q14 11 28 11q39 0 47 -34q1 -4 7 -6t16 -2.5
t18.5 -0.5t18.5 0.5t13 0.5q95 0 95 -74zM630 129q0 31 -41 31q-18 0 -37 -33t-19 -54q0 -28 13 -28q35 0 59.5 24.5t24.5 59.5zM145 454q0 18 -14 18q-4 0 -14 -2q-16 -17 -34 -48t-18 -49q0 -15 10 -15q22 0 46 36t24 60zM422 129q0 31 -41 31q-18 0 -37 -33t-19 -54
q0 -28 13 -28q35 0 59.5 24.5t24.5 59.5z" />
    <glyph glyph-name="guilsinglleft" unicode="&#x2039;" horiz-adv-x="225" 
d="M154 255q0 -16 -89 -116l24 -34q24 -34 40 -59t16 -31q0 -13 -12 -13q-14 0 -63.5 62t-49.5 77q0 12 8 20q18 22 60.5 65t52.5 43q13 0 13 -14z" />
    <glyph glyph-name="guilsinglright" unicode="&#x203a;" horiz-adv-x="225" 
d="M158 131q0 -13 -55 -70t-66 -57q-13 0 -13 14q0 5 7.5 16.5t19.5 26.5t23 28t23.5 27.5t15.5 17.5q-80 111 -80 124q0 12 11 12q15 0 64.5 -61.5t49.5 -77.5z" />
    <glyph glyph-name="fraction" unicode="&#x2044;" horiz-adv-x="343" 
d="M453 587q0 -10 -26.5 -46.5t-43.5 -56.5q-19 -24 -94.5 -117.5t-107.5 -135t-84 -115.5t-90 -138q-2 -3 -9 -17t-12 -22t-13.5 -15.5t-16.5 -7.5q-15 0 -15 15q0 6 4 14t12 19.5t9 12.5q103 161 242 337q60 78 118 148q50 62 65 85q2 2 10.5 19t17 26.5t17.5 9.5
q6 0 11.5 -4.5t5.5 -10.5z" />
    <glyph glyph-name="fraction" unicode="&#x2215;" horiz-adv-x="343" 
d="M453 587q0 -10 -26.5 -46.5t-43.5 -56.5q-19 -24 -94.5 -117.5t-107.5 -135t-84 -115.5t-90 -138q-2 -3 -9 -17t-12 -22t-13.5 -15.5t-16.5 -7.5q-15 0 -15 15q0 6 4 14t12 19.5t9 12.5q103 161 242 337q60 78 118 148q50 62 65 85q2 2 10.5 19t17 26.5t17.5 9.5
q6 0 11.5 -4.5t5.5 -10.5z" />
    <glyph glyph-name="Euro" unicode="&#x20ac;" horiz-adv-x="527" 
d="M486 421h-16q-7 38 -46 57t-100 19q-98 0 -143.5 -49t-57.5 -146h309l-11 -20h-300q0 -3 -0.5 -11t-0.5 -12q0 -20 1 -26h273l-11 -20h-260q9 -98 60 -150.5t141 -52.5q57 0 97.5 19t48.5 60h16l-5 -49q-46 -50 -160 -50q-214 0 -232 223h-67l10 20h54q-1 5 -1 26
q0 3 0.5 11.5t0.5 11.5h-64l10 20h57q13 109 65.5 162.5t166.5 53.5q115 0 160 -47z" />
    <glyph glyph-name="trademark" unicode="&#x2122;" horiz-adv-x="608" 
d="M528 542q-29 0 -29 -20v-159q0 -10 8.5 -15.5t18.5 -3.5v-5h-85v5q2 -1 6 -1q8 0 14 6t6 14v150l-81 -177h-6l-83 177v-151q0 -10 8 -15t18 -3v-5h-63v5q1 0 2.5 -0.5t2.5 -0.5q9 0 15 5.5t6 14.5v159q0 22 -29 20v6h61l74 -163l77 163h59v-6zM233 498h-6
q-5 22 -15.5 31.5t-32.5 9.5q-6 0 -18 -2v-174q0 -10 8.5 -15.5t18.5 -3.5v-5h-89v5q2 -1 6 -1q8 0 15 6t7 14v174q-12 2 -19 2q-40 0 -48 -41h-4v50h177v-50z" />
    <glyph glyph-name="minus" unicode="&#x2212;" 
d="M348 182h-303v33h303v-33z" />
    <glyph glyph-name="fi" unicode="&#xfb01;" horiz-adv-x="454" 
d="M465 165q13 0 13 -13q0 -6 -3 -10q-19 -48 -59 -90t-84 -42q-61 0 -59 97q-23 -20 -51 -29q0 -10 5 -26.5t5 -28.5q0 -56 -32.5 -102t-85.5 -46q-117 0 -120 226q-29 19 -29 41q0 28 36 40q3 39 14 94t30 121.5t50.5 111.5t68.5 45q28 0 41.5 -19t13.5 -48
q0 -98 -148 -298q42 -1 80.5 -22.5t60.5 -58.5q36 12 65 45q0 3 1 12t2 15.5t3 16t4.5 16.5t6 13.5t8.5 10t11 3.5q16 0 16 -18q0 -12 -9.5 -56t-9.5 -68q0 -53 33 -53q7 0 14.5 2.5t15 8t13.5 10.5t13.5 14.5t12.5 15.5t12 16.5t10 15.5t9.5 15t7.5 12q5 10 14 10zM162 519
q-34 0 -64.5 -72t-44 -139t-17.5 -107q42 42 96 139t54 146q0 33 -24 33zM310 261q-10 0 -17.5 6t-7.5 16q0 22 12 42.5t32 20.5q13 0 19.5 -10.5t6.5 -23.5q0 -20 -13 -35.5t-32 -15.5zM31 131v-4q41 -29 114 -29q9 0 31 2q-16 26 -48 40t-65 14q-13 0 -18 -0.5t-9.5 -6
t-4.5 -16.5zM130 -89q33 0 50.5 36t17.5 72q0 29 -10 50q-48 -3 -49 -3q-53 0 -111 22q3 -177 102 -177z" />
    <glyph glyph-name="fl" unicode="&#xfb02;" horiz-adv-x="479" 
d="M499 146q0 -43 -40.5 -88.5t-84.5 -45.5q-39 0 -62 29.5t-32 71.5q-29 -26 -58 -35q10 -34 10 -55q0 -56 -32.5 -102t-85.5 -46q-117 0 -120 226q-29 19 -29 41q0 28 36 40q3 39 14 94t30 121.5t50.5 111.5t68.5 45q28 0 41.5 -19t13.5 -48q0 -98 -148 -298
q42 -1 80.5 -22.5t60.5 -58.5q29 10 63 42q-2 12 -2 38q0 42 12 116t42.5 148t70.5 74q23 0 34.5 -21t11.5 -45q0 -69 -38 -152.5t-89 -148.5l-2 -3q-4 -4 -4 -15q0 -26 24 -59.5t49 -33.5q21 0 39 17.5t27.5 38.5t19 38.5t17.5 17.5q12 0 12 -14zM412 450q0 38 -17 38
q-6 0 -14 -8q-36 -34 -54 -114t-17 -146v-18q37 53 69.5 125.5t32.5 122.5zM186 486q0 33 -24 33q-34 0 -64.5 -72t-44 -139t-17.5 -107q42 42 96 139t54 146zM176 100q-16 26 -48 40t-65 14q-13 0 -18 -0.5t-9.5 -6t-4.5 -16.5v-4q41 -29 114 -29q9 0 31 2zM198 19
q0 29 -10 50q-48 -3 -49 -3q-53 0 -111 22q3 -177 102 -177q33 0 50.5 36t17.5 72z" />
    </font>
</defs>
</svg>
